<svg id="Layer_1" data-name="Layer 1" xmlns="http://www.w3.org/2000/svg" viewBox="0 0 516 524"><defs><style>.cls-1,.cls-12,.cls-13,.cls-15{fill:#738458;}.cls-18,.cls-19,.cls-2{fill:#9b8c79;}.cls-2{stroke:#050505;}.cls-15,.cls-17,.cls-18,.cls-2,.cls-3,.cls-5,.cls-6{stroke-miterlimit:10;}.cls-16,.cls-3{fill:#c4ccb0;}.cls-3{stroke:#070706;}.cls-4{fill:#aeb596;}.cls-21,.cls-5{fill:#cebea1;}.cls-5,.cls-6{stroke:#020202;stroke-width:0.5px;}.cls-20,.cls-6{fill:#bcad96;}.cls-7{fill:#bdd09e;}.cls-10,.cls-12,.cls-13,.cls-8,.cls-9{isolation:isolate;}.cls-10,.cls-9{font-size:20.04px;font-family:MyriadPro-Bold, Myriad Pro;font-weight:700;}.cls-10,.cls-11,.cls-9{fill:#fff;}.cls-10{letter-spacing:-0.01em;}.cls-12,.cls-13{font-size:10.03px;font-family:Montserrat-Light, Montserrat;font-weight:300;}.cls-13{letter-spacing:-0.01em;}.cls-14{fill:#0a0a0a;}.cls-15{stroke:#000;}.cls-17{fill:#afa08e;}.cls-17,.cls-18{stroke:#0c0b0b;}</style></defs><path class="cls-1" d="M194.74,96c15.92-13.53,26-32.1,40.7-46.8,26.93-26.9,69.71-38.58,106.65-29.13,24.49,6.27,46.38,21.69,57.52,43.07,10.22,19.62,11,42.68,8.68,64.78s-7.57,44-8.71,66.14c-.62,11.85.12,24.26,6.51,34.26,5.74,9,15.35,14.95,24.52,20.85,15.38,9.91,30.7,20.77,40.33,35.82,12.95,20.26,14,45.53,12.49,69.52-.69,11-1.91,22.28-6.68,32.49-7.36,15.77-22.62,27.51-39.3,34.54s-34.85,9.88-52.81,12.16c-17.38,2.21-35.08,4-51.38,10.43C312,452.46,294.8,467.91,276,480.56a243.11,243.11,0,0,1-91.61,37.15c-5.45,1-11.12,1.79-16.43.52s-9.58-4.34-13.64-7.57c-19.51-15.53-35.18-36.84-37.45-61.12-1.36-14.6,2.14-29.34,2.47-44a101.77,101.77,0,0,0-15.24-55.77c-13.53-21.78-34.86-38-51.79-57.52-29.16-33.58-45-79.71-32.76-122.64s56.71-79.1,103.23-75.95c25.11,1.7,51.59,13.55,74.1,2.1"/><polygon class="cls-2" points="296.45 435.77 107.95 437.27 88.95 86.27 298.45 86.77 296.48 429.52 296.45 435.77"/><polygon class="cls-3" points="121.95 427.27 121.46 419.53 101.36 101.82 100.95 95.27 297.61 96.34 297.58 103.59 296.5 423.18 296.48 429.52 121.95 427.27"/><polygon class="cls-4" points="286.3 406.01 138.48 409.07 134.64 96.77 102.45 99.23 123.18 426.31 295.48 428.52 286.3 406.01"/><polygon class="cls-5" points="242.56 302.83 142.46 317.01 127.45 297.82 225.87 282.81 242.56 302.83"/><polygon class="cls-5" points="286.76 327.01 242.56 302.83 259.24 286.14 301.78 312.83 286.76 327.01"/><polygon class="cls-6" points="242.56 302.83 243.39 334.08 185.83 345.37 142.46 317.58 242.56 302.83"/><polygon class="cls-6" points="142.46 342.55 143.29 397.08 187.5 423.77 185.83 345.37 142.46 342.55"/><polygon class="cls-5" points="142.46 317.01 185.83 343.7 171.65 358.71 127.45 332.85 142.46 317.01"/><polygon class="cls-6" points="185.83 345.37 286.76 327.01 287.18 406.67 187.5 423.77 185.83 345.37"/><polygon class="cls-6" points="242.56 302.83 286.76 327.01 243.39 334.08 242.56 302.83"/><path class="cls-7" d="M199.12,374.49c3.76-6.12,14.47-7.86,22-5.82,4.16,1.12,4.29,2.55,9,4.55,11.6,4.95,23.77,1.65,27.22.71,13.41-3.65,16.3-10.71,22.79-9,6.15,1.6,11.4,8.58,11,15-.59,10.33-15.43,15.33-17.34,16-12.1,4.08-16-2.28-30.47.11-15.61,2.57-18,11.17-27,9.27C204.26,402.69,193.4,383.83,199.12,374.49Z"/><g class="cls-8"><text class="cls-9" transform="translate(231.36 394.11) rotate(-9.53)">ond</text><text class="cls-10" transform="translate(266.12 388.27) rotate(-9.53)">a</text><text class="cls-9" transform="translate(276.32 386.56) rotate(-9.53)">y</text></g><path class="cls-11" d="M224.45,396l6.6-1.5s-4-10.1-4.41-11.45-8.22-.58-8.44,1.35-.42,3.5-.42,3.5-3.71-7-3.85-7.66-4.73-.32-6.1,1.07-.05,16.69-.05,16.69l6.11-.67A17.17,17.17,0,0,0,213,389c-2.73-6.74,2.57,4.26,2.68,4.9l5.73-1.23s-.42-5.85,1.14-5.23C220.79,391.76,224.45,396,224.45,396Z"/><circle class="cls-11" cx="209.38" cy="376.17" r="3.1"/><circle class="cls-11" cx="222.71" cy="378.75" r="2.81"/><text class="cls-12" transform="matrix(1.15, -0.19, 0.16, 0.99, 228.53, 381.44)">EA</text><text class="cls-13" transform="matrix(1.15, -0.19, 0.16, 0.99, 244.44, 378.81)">S</text><text class="cls-12" transform="matrix(1.15, -0.19, 0.16, 0.99, 251.32, 377.67)">Y</text><path class="cls-14" d="M312.8,248.2a1.5,1.5,0,0,0,0-3,1.5,1.5,0,0,0,0,3Z"/><polygon class="cls-4" points="317.95 110.27 317.95 113.25 350.56 110.77 317.95 110.27"/><polygon class="cls-15" points="148.45 306.77 154.45 302.77 166.45 314.77 160.45 320.77 148.45 306.77"/><path class="cls-15" d="M181.45,283.77s9-6,8-11,3,8,12,7c0,0-9,8-6,13S191.45,284.77,181.45,283.77Z"/><path class="cls-1" d="M211.57,263.63a1.5,1.5,0,0,0,0-3,1.5,1.5,0,0,0,0,3Z"/><path class="cls-1" d="M215.78,316.62a2.94,2.94,0,0,1,3.43,1.18,7.66,7.66,0,0,1,1.1,3.73,4.4,4.4,0,0,1-.44,3,3.13,3.13,0,0,1-1.65,1.1,5.29,5.29,0,0,1-6.35-3.64c-.41-1.54,0-3.45,1.49-4.14"/><path d="M216,316.94c1.66-.71,3.12,1,3.57,2.39a11.7,11.7,0,0,1,.43,2.57,3.4,3.4,0,0,1-.53,2.53c-1,1.14-2.83,1.16-4.14.68a5,5,0,0,1-2.94-2.86c-.53-1.42-.28-3.37,1.19-4.12.43-.21,0-.86-.38-.64a3.91,3.91,0,0,0-1.7,4.39,5.63,5.63,0,0,0,3.32,3.82,4.75,4.75,0,0,0,5-.55,3.46,3.46,0,0,0,1-2.73,11.92,11.92,0,0,0-.44-3.15,4.58,4.58,0,0,0-1.83-2.67,3,3,0,0,0-2.88-.3c-.44.19-.06.83.38.64Z"/><path class="cls-1" d="M227.19,257.82a17.05,17.05,0,0,0,15.41,11,8.69,8.69,0,0,0,4.1-.79c2.58-1.32,3.85-4.44,3.77-7.33a3.79,3.79,0,0,0-1.27-3.05,10.47,10.47,0,0,0-15.19.45"/><path d="M226.83,257.92c2.51,6.71,9.47,11.65,16.73,11.22a7.41,7.41,0,0,0,7.07-6.11c.35-1.64.46-3.62-.6-5a10.05,10.05,0,0,0-4.44-3.1,11,11,0,0,0-11.84,2.91c-.33.35.2.88.53.53a10.12,10.12,0,0,1,14.38-.71c1.53,1.41,1.65,3.27,1.24,5.2a7.55,7.55,0,0,1-2.05,3.89,7.06,7.06,0,0,1-5.06,1.69,16.13,16.13,0,0,1-8.67-2.63,16.52,16.52,0,0,1-6.57-8.06c-.17-.44-.89-.25-.72.2Z"/><path class="cls-1" d="M230.83,264.37a52.22,52.22,0,0,0-.59,8.19,3.67,3.67,0,0,0,.49,2.15c.69.93,2,1,3.2,1a1.76,1.76,0,0,0,2-1.95,46.07,46.07,0,0,0,.48-6"/><path d="M230.46,264.27a53.71,53.71,0,0,0-.54,5.52c0,.92-.06,1.85,0,2.77a4.5,4.5,0,0,0,.36,2.05c.63,1.21,2.06,1.44,3.3,1.45a3.09,3.09,0,0,0,2-.4,2.54,2.54,0,0,0,.8-1.66,42.17,42.17,0,0,0,.53-6.25.38.38,0,0,0-.75,0,44.68,44.68,0,0,1-.47,5.89,3,3,0,0,1-.33,1.15,1.31,1.31,0,0,1-1.17.52,5.85,5.85,0,0,1-2.24-.23,2,2,0,0,1-1.24-1.91,24.68,24.68,0,0,1,0-2.72,52.11,52.11,0,0,1,.55-6c.07-.47-.65-.68-.73-.2Z"/><path class="cls-1" d="M227.05,257.7a8.33,8.33,0,0,1-.59-2.78,2.69,2.69,0,0,1,1.27-2.37,3.44,3.44,0,0,1,1.56-.25,3.34,3.34,0,0,1,1.85.35c1.08.69,1.14,2.29,1.54,3.55a8.8,8.8,0,0,0,2,3.14,11.6,11.6,0,0,0,3.89,3,5.56,5.56,0,0,0,4.7,0,2,2,0,0,0,1.13-1.24,1.76,1.76,0,0,0-1.41-1.95,4,4,0,0,0-2.5.54,4.48,4.48,0,0,0-2.16,1.77"/><path d="M227.42,257.6c-.45-1.34-1.14-3.4.17-4.51a3,3,0,0,1,2.11-.41,2,2,0,0,1,1.91,1.14c.48,1,.53,2.21,1,3.25a11.49,11.49,0,0,0,2.3,3.07c1.74,1.77,4,3.3,6.62,3.07,1.71-.16,4.45-1.72,2.77-3.69s-5.26,0-6.3,1.74a.38.38,0,0,0,.65.38c.75-1.28,3.57-3,4.91-1.8,1.12,1,0,2-1,2.37a5,5,0,0,1-2.48.2,8.45,8.45,0,0,1-4.36-2.48A10.09,10.09,0,0,1,233,256.1a10,10,0,0,0-1.09-3.19,3.51,3.51,0,0,0-3.2-1,2.6,2.6,0,0,0-2.37,1.61c-.6,1.4-.14,2.9.31,4.26.16.46.88.26.73-.2Z"/><path class="cls-16" d="M242.48,262.25a1.5,1.5,0,0,0,0-3,1.5,1.5,0,0,0,0,3Z"/><path class="cls-16" d="M242.79,260.09a.59.59,0,0,1,.61.72,1.41,1.41,0,0,1-.85.75,4.59,4.59,0,0,1-2.93,0c-.46-.15-.66.58-.2.72a5.59,5.59,0,0,0,2,.26,3.74,3.74,0,0,0,1.86-.52,1.59,1.59,0,0,0,.84-1.56,1.35,1.35,0,0,0-1.36-1.1.38.38,0,0,0,0,.75Z"/><path class="cls-16" d="M239.52,261.54q-.37,0-.72-.12l.09.69a5.92,5.92,0,0,0,.76-.65l.78-.69a1.91,1.91,0,0,1,1.56-.58.39.39,0,0,0,.46-.26.37.37,0,0,0-.26-.46q-.09,0,0,0t0,0a.39.39,0,0,0-.43-.18l-.29.12a.37.37,0,1,0,.2.72l.29-.11-.42-.18a.58.58,0,0,0,.42.32l.2-.72a2.57,2.57,0,0,0-2.06.57c-.28.23-.54.48-.81.72a6.66,6.66,0,0,1-.81.7.37.37,0,0,0,.09.68,9.28,9.28,0,0,0,.92.15.38.38,0,0,0,0-.75Z"/><path class="cls-16" d="M241.42,261.14l-.06,0s.09,0,0,0h0s.09,0,0,0,0,0-.06,0,.07,0,0,0l-.06,0s-.06,0,0,0,0,0,0,0l0,0s0,0,0,0l0-.05c0-.06,0,.05,0,0s0,0,0,0l0-.13c0-.05,0,.07,0,0v-.07a.48.48,0,0,1,0-.12s0,.08,0,0,0,0,0,0,0-.07,0,0,0,0,0,0,0,0,0,0a.09.09,0,0,0,0,0l.05,0h0l.11,0h0c.07,0-.08,0,0,0l-.19-.05-.07-.13c0-.13-.07-.16-.07-.1v.12c0,.06,0-.08,0,0s0,.06,0,.09a1,1,0,0,1,0,.16h0l0,.09-.09.13,0,0s0-.06,0,0l-.06.07-.12.11,0,0,0,0a.22.22,0,0,0-.08.05l-.14.08c-.06,0,.07,0,0,0l-.11,0s-.08,0,0,0h0s0,0,0,0h0s0,0,0,0l0,0h0s0,0,0,0,0-.06,0,0,0,.08,0,0,0,.06,0,.05l-.05.1-.09,0h0c-.06,0,0,0,0,0H240a.24.24,0,0,1-.15-.22v-.05c0-.05,0-.06.07-.1l.05,0,.43.17c0-.06,0,0,0,0v-.05c0-.07,0,0,0,0l0-.09v0l0,0c0-.06,0,0,0,0s0,0,0,0l0,0s-.07,0,0,0l.1-.05,0,0s-.07,0,0,0l.22-.05a.38.38,0,0,0-.2-.73,1.23,1.23,0,0,0-.87.57.87.87,0,0,0-.09.61.45.45,0,0,0,.69.3.52.52,0,0,0,.16-.69.54.54,0,0,0-.62-.25.54.54,0,0,0-.42.54.63.63,0,0,0,.34.54,1.06,1.06,0,0,0,1.09-.16,1.84,1.84,0,0,0,.6-.67,2.09,2.09,0,0,0,.16-.44,1,1,0,0,0,0-.55.42.42,0,0,0-.39-.27.86.86,0,0,0-.27,0,.92.92,0,0,0-.52,1.48.93.93,0,0,0,1.09.48.37.37,0,1,0-.2-.72Z"/><path class="cls-16" d="M242.6,259.25a2,2,0,0,0-1,.12l-.16.06h0c-.06,0,0,0,0,0h-.05a.5.5,0,0,0-.21.05.6.6,0,0,0-.37.55.37.37,0,0,0,.37.38.39.39,0,0,0,.38-.38c0,.07,0,.08,0,.05s0,.07,0,0l0,0s0,0,0,0h0l.12,0a1,1,0,0,0,.25-.08l-.05,0,.05,0,.09,0,.17-.05.1,0s0,0,0,0h0a1.53,1.53,0,0,1,.37,0,.38.38,0,0,0,.37-.38.31.31,0,0,0-.11-.26.36.36,0,0,0-.26-.11Z"/><path class="cls-1" d="M156.6,263.33a17.07,17.07,0,0,0-3.73,18.54,8.72,8.72,0,0,0,2.4,3.42c2.26,1.82,5.62,1.71,8.23.46a4.48,4.48,0,0,0,1.53-1.08,4.31,4.31,0,0,0,.73-1.33,10.46,10.46,0,0,0-6.6-13.68"/><path d="M156.34,263.06c-5.12,5.05-6.76,13.51-3.34,20a7.45,7.45,0,0,0,8.69,3.77,5.82,5.82,0,0,0,4.25-2.9,10.56,10.56,0,0,0,.77-5.63,11,11,0,0,0-7.45-9c-.46-.15-.66.57-.2.73a10.09,10.09,0,0,1,6.62,12.34,4.38,4.38,0,0,1-1.7,2.7,8.26,8.26,0,0,1-2.49,1,6.57,6.57,0,0,1-8.27-4.33,16.13,16.13,0,0,1-1-9.11,16.57,16.57,0,0,1,4.66-9,.38.38,0,0,0-.53-.53Z"/><path class="cls-1" d="M152.11,269.32a52.7,52.7,0,0,0-7.72,2.8,3.63,3.63,0,0,0-1.76,1.33c-.57,1-.08,2.27.41,3.32a2.26,2.26,0,0,0,.75,1,2.33,2.33,0,0,0,1.87,0,45.83,45.83,0,0,0,5.66-2"/><path d="M152,269a50.48,50.48,0,0,0-5,1.66c-.81.31-1.61.64-2.4,1a6.48,6.48,0,0,0-1.81,1c-1.2,1.09-.79,2.71-.22,4a2.83,2.83,0,0,0,1.19,1.56,3,3,0,0,0,2.07-.05,45.31,45.31,0,0,0,5.66-2c.45-.19.07-.84-.37-.65a44.34,44.34,0,0,1-5.57,2,2.52,2.52,0,0,1-1.27.14,1.31,1.31,0,0,1-.8-.78,5.16,5.16,0,0,1-.74-2.52c.08-.91.82-1.39,1.57-1.75s1.64-.74,2.47-1.07a53.87,53.87,0,0,1,5.42-1.82.37.37,0,0,0-.2-.72Z"/><path class="cls-1" d="M156.66,263.16a8.2,8.2,0,0,1,2.3-1.68,2.68,2.68,0,0,1,2.68.19,3.46,3.46,0,0,1,.87,1.32,3.42,3.42,0,0,1,.43,1.84c-.2,1.26-1.63,2-2.62,2.85a8.91,8.91,0,0,0-2,3.12,11.71,11.71,0,0,0-1.14,4.77,5.55,5.55,0,0,0,1.91,4.29,2.06,2.06,0,0,0,1.6.52,1.76,1.76,0,0,0,1.21-2.08,4.1,4.1,0,0,0-1.52-2.06,4.43,4.43,0,0,0-2.49-1.25"/><path d="M156.92,263.42c1.05-1,2.78-2.51,4.31-1.58a3.67,3.67,0,0,1,1.21,2,2,2,0,0,1-.68,2.21,19,19,0,0,0-2.57,2.34,13.29,13.29,0,0,0-1.8,3.64c-.81,2.35-1,5.15.57,7.24a3.2,3.2,0,0,0,2.54,1.5,1.93,1.93,0,0,0,1.68-1.49c.6-2.25-2.41-4.43-4.34-4.66-.48-.06-.47.69,0,.75,1.35.16,3.73,1.81,3.67,3.37,0,1.17-1.13,1.53-2,1a4.33,4.33,0,0,1-1.63-2.26,7.74,7.74,0,0,1,.17-4.87,10.44,10.44,0,0,1,2.59-4.62c.86-.78,2.06-1.36,2.54-2.48a3.67,3.67,0,0,0-.53-3.15,2.63,2.63,0,0,0-2.8-1.45,6.62,6.62,0,0,0-3.41,2c-.35.33.18.86.53.53Z"/><path class="cls-16" d="M160.17,280a1.5,1.5,0,0,0,0-3,1.5,1.5,0,0,0,0,3Z"/><path class="cls-16" d="M160.91,278.53a.59.59,0,0,1-.38.82,1.39,1.39,0,0,1-1.1-.5,4.08,4.08,0,0,1-.75-1.18,4.7,4.7,0,0,1-.4-1.42.39.39,0,0,0-.38-.38.38.38,0,0,0-.37.38,5.78,5.78,0,0,0,.57,1.94,4,4,0,0,0,1.18,1.51,1.63,1.63,0,0,0,1.81.21,1.36,1.36,0,0,0,.47-1.76.38.38,0,0,0-.65.38Z"/><path class="cls-16" d="M158.26,276.15a7.27,7.27,0,0,1-.22-.8l-.55.42a5.41,5.41,0,0,0,.94.45l1,.44a1.83,1.83,0,0,1,1.08,1.19.38.38,0,0,0,.73-.2.21.21,0,0,1-.05.13.38.38,0,0,0,0-.53l-.22-.23a.38.38,0,0,0-.53.53l.22.23v-.53a.63.63,0,0,0-.15.6l.73-.2a2.51,2.51,0,0,0-1.27-1.56c-.33-.17-.68-.31-1-.46a7.24,7.24,0,0,1-1-.5c-.29-.2-.62.12-.55.42a7.27,7.27,0,0,0,.22.8.37.37,0,0,0,.46.26.38.38,0,0,0,.26-.46Z"/><path class="cls-16" d="M159.35,277.65s0,0,0,0l0-.05s0,0,0,0,0,0,0-.06,0,.07,0,0v-.05s0-.07,0,0,0,0,0,0,0,0,0-.05,0,.07,0,0l.06-.1s-.05.06,0,0l0,0,0,0c.05,0,0,0,0,0l.18-.11s-.05,0,0,0l.06,0s-.07,0,0,0h0c.06,0,0,0,0,0l0,0s0,0,0,0l0,0,.08.09s0,.06,0,0l0,0,0-.19v0l.1-.16s0,0,0,0l0,0s-.05,0-.07,0l-.15,0h-.32l-.16,0-.14-.05c.08,0,0,0,0,0l-.07,0s-.11-.05-.13-.09l0,0,0,0-.06-.05-.06-.06c0-.05,0,.06,0,0a.21.21,0,0,1,0-.07c0,.09,0,0,0,0v.06s0,0,0,0v0s0,0,0,0l0,0h0a.22.22,0,0,1-.19,0,.18.18,0,0,1-.09-.24.22.22,0,0,1,.19-.14.26.26,0,0,1,.29.26l0,.19s-.06.07-.08.07l0,0s0,0,0,0,0,0,0,0h.08c-.07,0,.09,0,.09,0s-.07,0,0,0l.05,0,0,0,0,0,.09.09,0,0s0,0,0,0a.37.37,0,1,0,.64-.38,1.28,1.28,0,0,0-.92-.61.93.93,0,0,0-.54.14.46.46,0,0,0-.23.38.44.44,0,0,0,.15.35.51.51,0,0,0,.69,0,.56.56,0,0,0,.08-.68.57.57,0,0,0-.75-.21.67.67,0,0,0-.32.55,1.09,1.09,0,0,0,.57.88,1.77,1.77,0,0,0,.89.29,2,2,0,0,0,.48,0,1,1,0,0,0,.48-.22.46.46,0,0,0,.07-.51,1.24,1.24,0,0,0-.17-.23,1,1,0,0,0-.46-.3,1.17,1.17,0,0,0-1.12.53,1,1,0,0,0,.07,1.16.39.39,0,0,0,.53,0,.38.38,0,0,0,0-.53Z"/><path class="cls-16" d="M161.61,278a2.32,2.32,0,0,0-.28-.57,3,3,0,0,0-.22-.28c-.06-.07-.14-.13-.2-.21l.06.08-.11-.16a.55.55,0,0,0-.18-.16.63.63,0,0,0-.5-.05.37.37,0,0,0,.2.72h-.08l.07,0-.09,0,.05,0-.07-.06,0,0-.06-.07.11.15a.93.93,0,0,0,.13.15,1.51,1.51,0,0,1,.21.23l-.06-.08a2.75,2.75,0,0,1,.24.41l0-.09a.88.88,0,0,1,0,.15.38.38,0,0,0,.18.23.38.38,0,0,0,.55-.43Z"/><path class="cls-15" d="M243.45,332.89s9-6,8-11,3,8,12,7c0,0-9,8-6,13S253.45,333.89,243.45,332.89Z"/><polygon class="cls-5" points="303.45 346.2 286.76 327.01 185.83 343.7 204.19 362.88 303.45 346.2"/><polygon class="cls-17" points="286.45 435.77 288.66 86.77 400.45 75.77 388.27 455.77 286.45 435.77"/><polygon class="cls-18" points="412.95 76.27 399.45 75.77 388.45 455.77 397.95 448.27 412.95 76.27"/><polygon class="cls-19" points="307.95 103.27 336.95 102.27 335.95 184.27 307.95 186.27 307.95 103.27"/><polygon class="cls-19" points="347.95 100.27 346.95 184.27 375.95 184.27 377.95 98.27 347.95 100.27"/><polygon class="cls-19" points="304.95 193.27 335.95 192.27 333.95 271.27 304.95 267.27 304.95 193.27"/><polygon class="cls-19" points="346.95 193.27 346.95 273.27 377.95 280.27 376.95 193.27 346.95 193.27"/><polygon class="cls-19" points="306.95 306.27 372.95 319.27 372.95 439.27 305.95 422.27 306.95 306.27"/><path class="cls-20" d="M361.45,294.51l5.38-5.62s17.23-1.87,12.92,9.36-17.23,5.62-17.23,5.62Z"/><path class="cls-21" d="M377,297.27a9,9,0,1,1-9-9A9,9,0,0,1,377,297.27Z"/><polygon class="cls-15" points="240.29 300.54 242.8 305.35 232.85 313.36 228.85 308.38 240.29 300.54"/><path class="cls-15" d="M260.38,283.57s4.08-2.72,3.62-5,1.36,3.63,5.45,3.18c0,0-4.09,3.63-2.73,5.89S264.91,284,260.38,283.57Z"/><path class="cls-1" d="M188.14,248.42a3,3,0,0,1,3.43,1.18,7.66,7.66,0,0,1,1.1,3.73,4.39,4.39,0,0,1-.44,3,3.13,3.13,0,0,1-1.65,1.1,5.28,5.28,0,0,1-6.35-3.63c-.41-1.54.05-3.46,1.49-4.15"/><path d="M188.33,248.75c1.66-.72,3.12,1,3.57,2.38a11.8,11.8,0,0,1,.43,2.57,3.4,3.4,0,0,1-.53,2.53c-1,1.14-2.83,1.16-4.14.68a5,5,0,0,1-2.94-2.86c-.53-1.42-.28-3.37,1.19-4.11.43-.22.05-.87-.38-.65a3.92,3.92,0,0,0-1.7,4.39,5.66,5.66,0,0,0,3.32,3.83,4.77,4.77,0,0,0,5-.56,3.46,3.46,0,0,0,1-2.73,12.34,12.34,0,0,0-.44-3.15,4.58,4.58,0,0,0-1.83-2.67,3,3,0,0,0-2.88-.3c-.44.19-.06.84.38.65Z"/><path class="cls-1" d="M201.19,334.44a11.63,11.63,0,0,0-12.28-3.95,5.92,5.92,0,0,0-2.51,1.36,5.41,5.41,0,0,0-.94,5.54,2.93,2.93,0,0,0,.62,1.12,2.8,2.8,0,0,0,.84.6,7.13,7.13,0,0,0,9.78-3.43"/><path d="M201.46,334.17a12,12,0,0,0-13.4-3.79,5.2,5.2,0,0,0-3.28,5.72,4.19,4.19,0,0,0,1.5,3.07,7.22,7.22,0,0,0,3.94,1.1,7.57,7.57,0,0,0,6.8-4.4c.21-.43-.44-.81-.64-.38a6.78,6.78,0,0,1-8.64,3.58,3,3,0,0,1-1.7-1.27,5.64,5.64,0,0,1,0-4.87,4.77,4.77,0,0,1,3-2.08,10.94,10.94,0,0,1,6.21,0,11.2,11.2,0,0,1,5.71,3.83c.29.38.82-.15.53-.53Z"/><path class="cls-1" d="M197.47,330.93a35.16,35.16,0,0,0-1.31-5.45,2.43,2.43,0,0,0-.76-1.29,2.57,2.57,0,0,0-2.28,0,1.68,1.68,0,0,0-.77.43,1.61,1.61,0,0,0-.16,1.26,31.63,31.63,0,0,0,.92,4"/><path d="M197.84,330.83a36.76,36.76,0,0,0-.77-3.61c-.16-.58-.32-1.15-.51-1.72a3.65,3.65,0,0,0-.64-1.33,2.47,2.47,0,0,0-2.75-.37,2.06,2.06,0,0,0-1.2.73,2.08,2.08,0,0,0-.16,1.37,29.6,29.6,0,0,0,.94,4.09.37.37,0,0,0,.72-.2,31.36,31.36,0,0,1-.9-3.86,2.16,2.16,0,0,1,0-.84c.08-.28.33-.39.58-.48a3.56,3.56,0,0,1,1.54-.3,1.28,1.28,0,0,1,1,1c.23.61.41,1.25.58,1.88a36.32,36.32,0,0,1,.83,3.86c.08.48.8.27.73-.2Z"/><path class="cls-1" d="M201.3,334.49a5.36,5.36,0,0,1,1,1.69,1.83,1.83,0,0,1-.33,1.8,2.29,2.29,0,0,1-1,.48,2.19,2.19,0,0,1-1.28.15c-.84-.22-1.21-1.25-1.74-2A5.89,5.89,0,0,0,196,335a8.07,8.07,0,0,0-3.15-1.15,3.84,3.84,0,0,0-3,1,1.39,1.39,0,0,0-.48,1.05,1.19,1.19,0,0,0,1.32,1,2.76,2.76,0,0,0,1.51-.86,3.11,3.11,0,0,0,1-1.6"/><path d="M201,334.68c.54.73,1.33,1.77.88,2.74a1.84,1.84,0,0,1-2.63.46c-.57-.6-.84-1.42-1.43-2a8.43,8.43,0,0,0-2.31-1.57,5.72,5.72,0,0,0-4.93-.45,2.7,2.7,0,0,0-1.57,1.62,1.38,1.38,0,0,0,.74,1.55c1.54.83,3.49-1.14,3.82-2.54.11-.47-.61-.67-.72-.2-.2.86-1.36,2.25-2.35,2.2s-.85-1-.27-1.52a3.12,3.12,0,0,1,1.38-.67,5.38,5.38,0,0,1,3.42.6,6.71,6.71,0,0,1,2.67,2,6.29,6.29,0,0,0,1.39,1.84,2.61,2.61,0,0,0,2.51-.09,1.87,1.87,0,0,0,1.15-1.75,4.35,4.35,0,0,0-1.1-2.59c-.29-.39-.94,0-.65.38Z"/><path class="cls-20" d="M190.65,336.44a.75.75,0,0,0,0-1.5.75.75,0,0,0,0,1.5Z"/><path class="cls-20" d="M190.87,336.46l.3-.24-.15.12a7.86,7.86,0,0,1,.89-.62.78.78,0,0,0,.35-.45.74.74,0,0,0-.08-.58.72.72,0,0,0-.44-.34.73.73,0,0,0-.58.07,11.59,11.59,0,0,0-1.35,1,.49.49,0,0,0-.15.24.57.57,0,0,0-.07.29.77.77,0,0,0,.22.53.81.81,0,0,0,.53.22l.2,0a.78.78,0,0,0,.33-.19Z"/><path class="cls-20" d="M190.49,336.57a1.18,1.18,0,0,0,.82-.17,2.6,2.6,0,0,0,.57-.53,10.34,10.34,0,0,0,.92-1.28.38.38,0,0,0,0-.42.36.36,0,0,0-.39-.13,5,5,0,0,0-2.1.66,1.35,1.35,0,0,0-.64.91.91.91,0,0,0,.52,1,1.22,1.22,0,0,0,1.28-.34.38.38,0,0,0,0-.53.39.39,0,0,0-.53,0,.79.79,0,0,1-.18.14l0,0-.12,0c.07,0-.06,0-.08,0s0,0,0,0-.05,0,0,0-.06-.08,0,0l0-.06s0,0,0,0,0,.05,0,0a.17.17,0,0,1,0-.1c0,.08,0,0,0,0s0,0,0,0l0-.06s.06-.1,0,0a1,1,0,0,1,.18-.17h0l.06,0,.1-.06a1.36,1.36,0,0,1,.24-.13l.2-.08.25-.08a10.19,10.19,0,0,1,1.1-.22l-.42-.55a9.81,9.81,0,0,1-.73,1,2.92,2.92,0,0,1-.41.45.53.53,0,0,1-.19.13l-.1,0h0a.39.39,0,0,0-.46.27.39.39,0,0,0,.26.46Z"/><path class="cls-1" d="M229.41,342.53a1.5,1.5,0,0,0,0-3,1.5,1.5,0,0,0,0,3Z"/><path class="cls-1" d="M178,325.62a1.5,1.5,0,0,0,0-3,1.5,1.5,0,0,0,0,3Z"/><path class="cls-1" d="M208,297.93a1.5,1.5,0,0,0,0-3,1.5,1.5,0,0,0,0,3Z"/><path class="cls-1" d="M246.3,287.91a1.5,1.5,0,0,0,0-3,1.5,1.5,0,0,0,0,3Z"/><path class="cls-1" d="M275.17,306.76a1.5,1.5,0,0,0,0-3,1.5,1.5,0,0,0,0,3Z"/><path class="cls-1" d="M177.38,302.64a1.5,1.5,0,0,0,0-3,1.5,1.5,0,0,0,0,3Z"/><polygon class="cls-15" points="266.69 309.02 270 310.95 267.08 319.49 262.81 318.03 266.69 309.02"/><path class="cls-1" d="M161.76,332.4a2.93,2.93,0,0,1,3.42,1.18,7.55,7.55,0,0,1,1.1,3.73,4.34,4.34,0,0,1-.44,3,3.09,3.09,0,0,1-1.65,1.1,5.29,5.29,0,0,1-6.35-3.64c-.41-1.54.06-3.45,1.5-4.14"/><path d="M162,332.72c1.66-.71,3.12,1,3.56,2.39a11.14,11.14,0,0,1,.43,2.57,3.35,3.35,0,0,1-.53,2.53c-1,1.14-2.83,1.16-4.14.68a5.05,5.05,0,0,1-2.94-2.86c-.52-1.42-.28-3.37,1.19-4.12.44-.21.06-.86-.37-.64a3.9,3.9,0,0,0-1.71,4.39,5.65,5.65,0,0,0,3.32,3.82,4.75,4.75,0,0,0,5-.55,3.47,3.47,0,0,0,1-2.73,12.34,12.34,0,0,0-.44-3.15,4.58,4.58,0,0,0-1.83-2.67,3,3,0,0,0-2.88-.3c-.45.19-.06.83.38.64Z"/></svg>