<svg id="Layer_1" data-name="Layer 1" xmlns="http://www.w3.org/2000/svg" viewBox="0 0 511 432"><defs><style>.cls-1,.cls-20,.cls-21{fill:#738458;}.cls-2{fill:#ededed;}.cls-10,.cls-11,.cls-2,.cls-9{stroke:#000;}.cls-10,.cls-11,.cls-13,.cls-2,.cls-5,.cls-7,.cls-8,.cls-9{stroke-miterlimit:10;}.cls-3{fill:#2d2c2c;}.cls-4{fill:#e8e4dc;}.cls-5{fill:snow;}.cls-5,.cls-7,.cls-8{stroke:#0a0a0a;}.cls-6,.cls-9{fill:#0a0a0a;}.cls-14,.cls-7{fill:#bdd09e;}.cls-10,.cls-11,.cls-7,.cls-8,.cls-9{stroke-width:0.25px;}.cls-11,.cls-17,.cls-18,.cls-19,.cls-8{fill:#fff;}.cls-12{fill:#8ea85d;opacity:0.11;}.cls-13{fill:#cebea1;stroke:#020202;stroke-width:0.5px;}.cls-15{opacity:0.48;}.cls-16,.cls-17,.cls-18,.cls-20,.cls-21{isolation:isolate;}.cls-17,.cls-18{font-size:29.92px;font-family:MyriadPro-Bold, Myriad Pro;font-weight:700;}.cls-18{letter-spacing:-0.01em;}.cls-20,.cls-21{font-size:14.98px;font-family:Montserrat-Light, Montserrat;font-weight:300;}.cls-21{letter-spacing:-0.01em;}.cls-22{opacity:0.66;}.cls-23{fill:#a89a83;}</style></defs><path class="cls-1" d="M68.71,216.15c-9.15-17.56-24.64-31-35.22-47.74-19.36-30.63-20.06-72.1-1.72-103.36,12.15-20.73,32.53-37,56-42.09,21.55-4.7,44.09-.06,64.91,7.18s40.74,17.08,61.91,23.26c11.32,3.31,23.53,5.53,34.8,2.06C259.5,52.35,267.68,45,275.68,38.1c13.42-11.63,27.74-23,44.71-28.21,22.84-7,47.58-2.11,70.45,4.83,10.51,3.19,21.1,6.9,29.81,13.6,13.44,10.33,21,26.88,23.69,43.62s.91,33.86-1.34,50.66c-2.18,16.25-4.82,32.7-2.66,49,2.8,21.18,13.48,40.36,21.07,60.34a213.63,213.63,0,0,1,13.22,91.61c-.39,5.17-1,10.49-3.57,15s-6.59,7.67-10.72,10.59c-19.9,14.06-44.43,23.31-68.52,19.72-14.47-2.15-27.88-8.75-42-12.47a108.57,108.57,0,0,0-57.81.85c-24.46,7.2-45.49,22.74-68.58,33.55C183.62,409.37,135,413,96.46,391.94S33.92,322.2,48.53,280.8c7.89-22.35,26-43.59,20.45-66.63"/><path class="cls-2" d="M93.69,36.19l315-1.5s13,.94,9.06,14-22.58,88.11-22.58,88.11-3,4-12,3.05,9-2,9.05,9,.81,172-2.17,176-10,5.05-15,4.07-245,1.17-245,1.17-14,4.06-17.05-11.92.2-169,.2-169-4-4,6-9c0,0-10,5-12.05-11.95s-21.4-82.9-21.4-82.9S81.7,39.24,93.69,36.19Z"/><path d="M383.39,140.43h-27l-1,6h-205v-7h-31s-7,8-12-12-21-83-21-83-2-8,8-9,315,0,315,0,14,3,9,14-23,88-23,88S389.39,143.43,383.39,140.43Z"/><rect class="cls-3" x="130.89" y="156.93" width="14" height="10"/><rect class="cls-3" x="148.89" y="156.93" width="14" height="10"/><rect class="cls-3" x="166.89" y="156.93" width="14" height="10"/><rect class="cls-3" x="184.89" y="156.93" width="14" height="10"/><rect class="cls-3" x="202.89" y="156.93" width="14" height="10"/><rect class="cls-3" x="220.89" y="156.93" width="14" height="10"/><rect class="cls-3" x="239.89" y="156.93" width="14" height="10"/><rect class="cls-3" x="257.89" y="156.93" width="14" height="10"/><rect class="cls-3" x="275.89" y="156.93" width="14" height="10"/><rect class="cls-3" x="294.89" y="156.93" width="14" height="10"/><rect class="cls-3" x="312.89" y="156.93" width="14" height="10"/><rect class="cls-3" x="330.89" y="156.93" width="14" height="10"/><rect class="cls-3" x="348.89" y="156.93" width="14" height="10"/><rect class="cls-3" x="366.89" y="156.93" width="13" height="10"/><rect class="cls-3" x="130.89" y="169.93" width="14" height="13"/><rect class="cls-3" x="148.89" y="169.93" width="14" height="13"/><rect class="cls-3" x="165.89" y="169.93" width="14" height="13"/><rect class="cls-3" x="182.89" y="169.93" width="14" height="13"/><rect class="cls-3" x="200.89" y="169.93" width="14" height="13"/><rect class="cls-3" x="217.89" y="169.93" width="14" height="13"/><rect class="cls-3" x="234.89" y="169.93" width="14" height="13"/><rect class="cls-3" x="252.89" y="169.93" width="14" height="13"/><rect class="cls-3" x="269.89" y="169.93" width="14" height="13"/><rect class="cls-3" x="285.89" y="169.93" width="14" height="13"/><rect class="cls-3" x="303.89" y="169.93" width="14" height="13"/><rect class="cls-3" x="320.89" y="169.93" width="14" height="13"/><rect class="cls-3" x="338.89" y="169.93" width="14" height="13"/><rect class="cls-3" x="355.89" y="169.93" width="23" height="13"/><rect class="cls-3" x="364.89" y="186.93" width="14" height="13" transform="translate(743.77 386.87) rotate(-180)"/><rect class="cls-3" x="346.89" y="186.93" width="14" height="13" transform="translate(707.77 386.87) rotate(-180)"/><rect class="cls-3" x="329.89" y="186.93" width="14" height="13" transform="translate(673.77 386.87) rotate(-180)"/><rect class="cls-3" x="312.89" y="186.93" width="14" height="13" transform="translate(639.77 386.87) rotate(-180)"/><rect class="cls-3" x="294.89" y="186.93" width="14" height="13" transform="translate(603.77 386.87) rotate(-180)"/><rect class="cls-3" x="277.89" y="186.93" width="14" height="13" transform="translate(569.77 386.87) rotate(-180)"/><rect class="cls-3" x="260.89" y="186.93" width="14" height="13" transform="translate(535.77 386.87) rotate(-180)"/><rect class="cls-3" x="242.89" y="186.93" width="14" height="13" transform="translate(499.77 386.87) rotate(-180)"/><rect class="cls-3" x="225.89" y="186.93" width="14" height="13" transform="translate(465.77 386.87) rotate(-180)"/><rect class="cls-3" x="209.89" y="186.93" width="14" height="13" transform="translate(433.77 386.87) rotate(-180)"/><rect class="cls-3" x="191.89" y="186.93" width="14" height="13" transform="translate(397.77 386.87) rotate(-180)"/><rect class="cls-3" x="174.89" y="186.93" width="14" height="13" transform="translate(363.77 386.87) rotate(-180)"/><rect class="cls-3" x="156.89" y="186.93" width="14" height="13" transform="translate(327.77 386.87) rotate(-180)"/><rect class="cls-3" x="130.89" y="186.93" width="23" height="13" transform="translate(284.77 386.87) rotate(-180)"/><rect class="cls-3" x="366.89" y="203.93" width="14" height="13" transform="translate(747.77 420.87) rotate(-180)"/><rect class="cls-3" x="348.89" y="203.93" width="14" height="13" transform="translate(711.77 420.87) rotate(-180)"/><rect class="cls-3" x="331.89" y="203.93" width="14" height="13" transform="translate(677.77 420.87) rotate(-180)"/><rect class="cls-3" x="314.89" y="203.93" width="14" height="13" transform="translate(643.77 420.87) rotate(-180)"/><rect class="cls-3" x="296.89" y="203.93" width="14" height="13" transform="translate(607.77 420.87) rotate(-180)"/><rect class="cls-3" x="279.89" y="203.93" width="14" height="13" transform="translate(573.77 420.87) rotate(-180)"/><rect class="cls-3" x="262.89" y="203.93" width="14" height="13" transform="translate(539.77 420.87) rotate(-180)"/><rect class="cls-3" x="244.89" y="203.93" width="14" height="13" transform="translate(503.77 420.87) rotate(-180)"/><rect class="cls-3" x="227.89" y="203.93" width="14" height="13" transform="translate(469.77 420.87) rotate(-180)"/><rect class="cls-3" x="211.89" y="203.93" width="14" height="13" transform="translate(437.77 420.87) rotate(-180)"/><rect class="cls-3" x="193.89" y="203.93" width="14" height="13" transform="translate(401.77 420.87) rotate(-180)"/><rect class="cls-3" x="176.89" y="203.93" width="14" height="13" transform="translate(367.77 420.87) rotate(-180)"/><rect class="cls-3" x="158.89" y="203.93" width="14" height="13" transform="translate(331.77 420.87) rotate(-180)"/><rect class="cls-3" x="132.89" y="203.93" width="23" height="13" transform="translate(288.77 420.87) rotate(-180)"/><rect class="cls-3" x="357.89" y="220.93" width="20" height="13" transform="translate(735.77 454.87) rotate(-180)"/><rect class="cls-3" x="338.89" y="220.93" width="14" height="13" transform="translate(691.77 454.87) rotate(-180)"/><rect class="cls-3" x="322.89" y="221.93" width="14" height="13" transform="translate(659.77 456.87) rotate(-180)"/><rect class="cls-3" x="302.89" y="222.93" width="14" height="13" transform="translate(619.77 458.87) rotate(-180)"/><rect class="cls-3" x="284.89" y="221.93" width="14" height="13" transform="translate(583.77 456.87) rotate(-180)"/><rect class="cls-3" x="267.89" y="220.93" width="14" height="13" transform="translate(549.77 454.87) rotate(-180)"/><rect class="cls-3" x="248.89" y="220.93" width="14" height="13" transform="translate(511.77 454.87) rotate(-180)"/><rect class="cls-3" x="228.89" y="220.93" width="14" height="13" transform="translate(471.77 454.87) rotate(-180)"/><rect class="cls-3" x="211.89" y="220.93" width="14" height="13" transform="translate(437.77 454.87) rotate(-180)"/><rect class="cls-3" x="190.89" y="220.93" width="14" height="13" transform="translate(395.77 454.87) rotate(-180)"/><rect class="cls-3" x="173.89" y="220.93" width="14" height="13" transform="translate(361.77 454.87) rotate(-180)"/><rect class="cls-3" x="155.89" y="220.93" width="14" height="13" transform="translate(325.77 454.87) rotate(-180)"/><rect class="cls-3" x="129.89" y="220.93" width="23" height="13" transform="translate(282.77 454.87) rotate(-180)"/><rect class="cls-3" x="131.89" y="237.93" width="23" height="13" transform="translate(286.77 488.87) rotate(-180)"/><rect class="cls-3" x="163.67" y="238.23" width="173.22" height="13" transform="translate(500.55 489.46) rotate(-180)"/><rect class="cls-3" x="350.89" y="238.8" width="29" height="13" transform="translate(730.77 490.59) rotate(-180)"/><polygon class="cls-4" points="106.89 44.93 394.89 45.93 371.89 131.93 130.89 130.93 106.89 44.93"/><polygon class="cls-5" points="475.51 334.11 384.39 322.43 386.13 308.73 398.39 212.43 488.39 224.43 475.51 334.11"/><polygon class="cls-5" points="386.13 308.73 398.39 212.43 378.39 307.43 386.13 308.73"/><path class="cls-5" d="M481.39,276.64s21-61.21,16-63.21-8,5-9,11S481.39,276.64,481.39,276.64Z"/><path class="cls-5" d="M398.39,212.43s-6-13,8-14,84,13,91,15c0,0-6-3-9,11Z"/><path class="cls-6" d="M402,239.21A110.46,110.46,0,0,1,434.37,242c.47.11.67-.61.2-.72A111.49,111.49,0,0,0,402,238.46c-.48,0-.48.78,0,.75Z"/><path class="cls-6" d="M446.79,242.46a127.69,127.69,0,0,1,30.1,2.25c.47.09.67-.63.2-.72a128.86,128.86,0,0,0-30.3-2.28c-.48,0-.48.77,0,.75Z"/><path class="cls-6" d="M402.8,248.48a179.41,179.41,0,0,1,49.72,2.26c.47.09.67-.63.2-.72a179.72,179.72,0,0,0-49.92-2.29c-.48,0-.48.79,0,.75Z"/><path class="cls-6" d="M460.65,251.4h8.15a.38.38,0,0,0,0-.75h-8.15a.38.38,0,0,0,0,.75Z"/><path class="cls-6" d="M401.15,258.89c8.62-.89,17.27-.3,25.85.69s17.39,2.24,26.08,3.38l14.85,2c.48.06.48-.69,0-.75l-26.24-3.45c-8.61-1.13-17.23-2.42-25.91-2.87a95.28,95.28,0,0,0-14.63.3c-.47.05-.48.8,0,.75Z"/><path class="cls-6" d="M400.32,270.23a288.49,288.49,0,0,1,31.81.49c.48,0,.48-.72,0-.75a288.49,288.49,0,0,0-31.81-.49c-.48,0-.48.77,0,.75Z"/><path class="cls-6" d="M446.79,271.78h9a.38.38,0,0,0,0-.75h-9a.38.38,0,0,0,0,.75Z"/><path class="cls-6" d="M473.68,287.18A140,140,0,0,1,435.47,285c-.48-.09-.68.63-.2.73a140.62,140.62,0,0,0,38.41,2.24c.48,0,.49-.79,0-.75Z"/><path class="cls-6" d="M427.22,284.83a46.61,46.61,0,0,1-17-1.53.38.38,0,0,0-.2.73,47.27,47.27,0,0,0,17.23,1.55c.47,0,.48-.79,0-.75Z"/><path class="cls-6" d="M406.84,282.45h-8.15a.38.38,0,0,0,0,.75h8.15a.38.38,0,0,0,0-.75Z"/><path class="cls-6" d="M399.51,293.06q14.69-.53,29.37.31c.48,0,.48-.73,0-.75q-14.67-.84-29.37-.31c-.49,0-.49.77,0,.75Z"/><path class="cls-6" d="M437,293.8H463.1a.38.38,0,0,0,0-.75H437a.38.38,0,0,0,0,.75Z"/><path class="cls-7" d="M450.89,351.93,427.1,274.16s-2.21-5.23-2.21-7.23,4-5,7,0,24,82,24,82l1,11Z"/><polygon class="cls-8" points="450.89 351.93 455.89 348.93 456.32 353.73 453.62 355.58 450.89 351.93"/><polygon class="cls-9" points="456.89 359.93 453.62 355.58 456.32 353.73 456.89 359.93"/><path class="cls-10" d="M427.1,274.16l6.71-2.39-1.92-4.84s-4-6-7,0l.8,2.62Z"/><polygon class="cls-11" points="433.81 271.77 427.1 274.16 426.3 271.33 432.71 269.12 433.81 271.77"/><path class="cls-12" d="M179,346.71l2-1.22,1.83-2.18a25.9,25.9,0,0,0,2.22-4,48.79,48.79,0,0,1,4.92-8.47c5.65-9.4,11.26-18.82,16.93-28.21,2.81-4.65,6-9.5,8.27-14.49a43.69,43.69,0,0,0,3-8.22,56.6,56.6,0,0,0,1.13-8.7,108.31,108.31,0,0,1,1.17-11.52,26,26,0,0,1,1.38-5.77,36.34,36.34,0,0,1,3.08-8l-.2.36,2.94-5.15a2.27,2.27,0,0,0-1.4.58q-2.4,1.47-4.72,3T217,247.94a2.33,2.33,0,0,0-1.08,1.07,68.4,68.4,0,0,0-4.53,10.65,71.6,71.6,0,0,0-2.53,11.65,101.21,101.21,0,0,1-2.57,12.34,45.65,45.65,0,0,1-5.8,11.73c-9.51,14.26-18.37,29-27.56,43.44l.32-.2a3.82,3.82,0,0,0-2.43,1.91,5.14,5.14,0,0,1-3.11,1.48,1.83,1.83,0,0,0,1.08.77q2.2,1,4.47,1.93t4.53,1.79A1.81,1.81,0,0,0,179,346.71Z"/><path class="cls-12" d="M180.27,348.54l2-1.26a13.63,13.63,0,0,0,2.58-3.63,16.69,16.69,0,0,0,1.37-2.74,41.14,41.14,0,0,1,4.86-8.55q6.31-10.65,12.65-21.29l8.38-13.92a92.41,92.41,0,0,0,4.83-9.52,36.39,36.39,0,0,0,2.42-8.36c.56-3.61.66-7.22.9-10.85a67.73,67.73,0,0,1,1.4-10.11c1.25-5.7,3.82-10.58,6.7-15.57a1.94,1.94,0,0,0-1.33.32c-1.52.7-3,1.42-4.52,2.18s-3,1.51-4.46,2.32a1.91,1.91,0,0,0-1,.86,74.44,74.44,0,0,0-5.36,13.5c-.92,3.52-1.5,7.08-2.11,10.66-1.07,6.24-2,12.09-5,17.76a63.32,63.32,0,0,1-4,6.43c-6.28,9.21-12,18.9-17.85,28.39l-8.67,14-.93.46a5.55,5.55,0,0,1-1.82,1.88,3.92,3.92,0,0,1-2.42,1.06,2,2,0,0,0,1.05.9c1.47.84,3,1.66,4.47,2.44s3,1.56,4.53,2.3A2,2,0,0,0,180.27,348.54Z"/><path class="cls-12" d="M182.26,346.92c2.3-1.81,1.62-1,3-2.92a27.5,27.5,0,0,0,2.48-4.48l1.3-3,12.69-21.6q4.14-7.11,8.38-14.17a113,113,0,0,0,6.18-10.87,69.12,69.12,0,0,0,3.47-7.94,39.51,39.51,0,0,0,1.92-11c.21-3.64.14-7.32.52-11l1-6a44.45,44.45,0,0,1,6.69-15.45c.41-.7-1.35.36-1.14.22a7.26,7.26,0,0,0-2.24,2,65.75,65.75,0,0,0-5,10.1A51.81,51.81,0,0,0,219,262.55c-.61,6.15-.13,12.3-1.79,18.33-2,7.22-6,13.65-9.81,20-5.58,9.37-11.08,18.79-16.63,28.17a38,38,0,0,0-4.87,8.64,24.45,24.45,0,0,1-5.36,8.31C180,346.56,181.89,347.21,182.26,346.92Z"/><path class="cls-12" d="M182,352.67a7.07,7.07,0,0,0,3-2.84,11,11,0,0,0,1.75-2.85,36.55,36.55,0,0,0,2.17-4.77l8.41-14.47,8.38-14.27a180.32,180.32,0,0,0,9.31-15.87c1.05-2,2.13-4,3-6.07.57-1.3,1.16-2.79,1.63-4.13a40.33,40.33,0,0,0,2-11.2c.21-3.63.13-7.3.53-10.91l1.1-5.88a45.86,45.86,0,0,1,6.76-15.31c.35-.58-1.46-.3-1.71.13a58,58,0,0,0-6.68,15.36,55,55,0,0,0-1.4,10.05l-.25,4.53a27.17,27.17,0,0,1-3.12,12.67A31.73,31.73,0,0,1,213.15,297q-2.43,4.59-5.27,9Q199.39,320,191,334.19a64.92,64.92,0,0,0-4.95,8.54,23.32,23.32,0,0,1-1.52,2.83,11.15,11.15,0,0,1-1.76,2.55,8.88,8.88,0,0,1-3,2.79C179.39,351.17,181.45,353.11,182,352.67Z"/><path class="cls-12" d="M179.44,349l2-1.28a13.47,13.47,0,0,0,2.51-3.63,14.75,14.75,0,0,0,1.33-2.74,36.54,36.54,0,0,1,4.81-8.48q6.3-10.61,12.61-21.22L211,297.77a93.27,93.27,0,0,0,4.8-9.46,35.26,35.26,0,0,0,2.41-8.3c.56-3.57.67-7.15.91-10.74a68.17,68.17,0,0,1,1.41-10.07c1.26-5.7,3.82-10.6,6.69-15.61a2.05,2.05,0,0,0-1.39.33q-2.41,1-4.79,2.19t-4.72,2.33a2.05,2.05,0,0,0-1.13.86,78.88,78.88,0,0,0-5.33,13.59c-.93,3.5-1.51,7-2.19,10.57-1.15,6.05-2.19,11.72-5.17,17.19a66.76,66.76,0,0,1-4,6.26c-6.38,9.07-12,18.77-17.88,28.14l-8.62,13.51-.81.31a5,5,0,0,1-1.71,1.73,3.62,3.62,0,0,1-2.32,1,2.37,2.37,0,0,0,1.13,1c1.57,1,3.17,2,4.79,3s3.23,1.94,4.87,2.87A2.39,2.39,0,0,0,179.44,349Z"/><path class="cls-12" d="M179.39,347.41l2-1.24a13.63,13.63,0,0,0,2.6-3.57,15.69,15.69,0,0,0,1.4-2.7,44.16,44.16,0,0,1,4.89-8.47q6.36-10.6,12.69-21.23l8.4-13.91a91.49,91.49,0,0,0,4.88-9.5,36.53,36.53,0,0,0,2.48-8.36c.59-3.6.72-7.21,1-10.85a69.14,69.14,0,0,1,1.44-10.11c1.26-5.69,3.82-10.57,6.68-15.57a2.48,2.48,0,0,0-1.46.52c-1.68.92-3.33,1.88-5,2.86s-3.28,2-4.89,3a2.46,2.46,0,0,0-1.15,1A66.85,66.85,0,0,0,210.81,260a72.78,72.78,0,0,0-2.57,11.67,99.18,99.18,0,0,1-2.62,12.2,45.13,45.13,0,0,1-5.82,11.61c-9.55,14.17-18.36,28.83-27.57,43.22l.36-.18a3.29,3.29,0,0,0-2.38,1.78,5.09,5.09,0,0,1-3.07,1.43,2.16,2.16,0,0,0,1.16.86q2.38,1.21,4.81,2.33t4.87,2.17A2.12,2.12,0,0,0,179.39,347.41Z"/><path class="cls-12" d="M180.39,350.53l2-1.29,1.78-2.29a44.07,44.07,0,0,0,2.69-5.42l8.72-14.87L204,312.54c3.89-6.51,8-12.91,11.41-19.67a47.33,47.33,0,0,0,3.27-8.1,43.07,43.07,0,0,0,1.49-8.74c.14-1.47.24-2.95.28-4.42a36.54,36.54,0,0,1,1.59-10,24.08,24.08,0,0,1,2.59-10.4,38.14,38.14,0,0,1,3.87-7.34c.44-.77-1.61.12-1.47.06-.82.33-1.63.68-2.43,1.06a3.49,3.49,0,0,0-1.19.71,61.09,61.09,0,0,0-5.53,13.12,86.09,86.09,0,0,0-1.79,9c-.82,5.43-.9,11.07-2.59,16.35-2.49,7.77-7.28,14.5-11.53,21.38s-8.46,13.7-12.7,20.55L179,342.5l-1.34,1.69a6.43,6.43,0,0,1-3.45,2.07c-.31.13,3,2.52,2.88,2.45C177.38,348.92,179.76,350.94,180.39,350.53Z"/><path class="cls-12" d="M182.71,348.22c2.13-1.51,2.43-1.46,3.86-3.93l1.47-3a61.75,61.75,0,0,1,5.56-10.23q6.21-10.83,12.59-21.54l8.35-14.05a68,68,0,0,0,5.6-11.79,52,52,0,0,0,2.2-13.29c.29-5,.23-9.8,1.47-14.73l1.64-5.62a49.13,49.13,0,0,1,5-9.85c.45-.76-1.51.31-1.29.19-.82.46-2.36,1.14-2.84,2a77,77,0,0,0-4.89,10.1,51.92,51.92,0,0,0-2.64,13.84c-.45,6.26-.51,12.64-2.76,18.6-3.34,8.85-8.89,16.86-13.69,24.93-5.88,9.91-12.08,19.79-17.4,30-1.43,2.74-2.35,4.85-5.1,6.79C179.2,347.16,182.23,348.56,182.71,348.22Z"/><path class="cls-12" d="M180.42,350.62l2-1.29a13.16,13.16,0,0,0,2.49-3.7,19.27,19.27,0,0,0,1.3-2.76,37.64,37.64,0,0,1,4.86-8.62q6.28-10.71,12.65-21.39l8.36-13.94a91.94,91.94,0,0,0,4.77-9.52,36.12,36.12,0,0,0,2.39-8.38c.55-3.61.63-7.22.86-10.86A68.37,68.37,0,0,1,221.46,260c1.23-5.73,3.79-10.6,6.68-15.62a1.16,1.16,0,0,0-1,.08c-1.16.38-2.31.79-3.46,1.24-.86.34-3.68,1-4.2,2a68.88,68.88,0,0,0-5.39,13.44c-.93,3.6-1.53,7.24-2.12,10.91-1,6.5-2,12.59-5,18.52a67.58,67.58,0,0,1-4,6.58c-6.25,9.33-12.06,19.05-18,28.62l-9,14.64-.87.46a6,6,0,0,1-1.86,2,3.94,3.94,0,0,1-2.41,1.12,1.69,1.69,0,0,0,.83.94c1.22.93,2.46,1.82,3.72,2.69C175.71,347.8,179.7,351.1,180.42,350.62Z"/><path class="cls-12" d="M179.21,348.15l2-1.25a13.49,13.49,0,0,0,2.55-3.59,15.22,15.22,0,0,0,1.37-2.7,40.23,40.23,0,0,1,4.84-8.47q6.34-10.59,12.65-21.2L211,297a90.8,90.8,0,0,0,4.85-9.47,35.55,35.55,0,0,0,2.44-8.31c.58-3.59.7-7.18,1-10.79a68.85,68.85,0,0,1,1.43-10.09c1.25-5.69,3.81-10.58,6.67-15.58a2.17,2.17,0,0,0-1.41.42c-1.62.81-3.23,1.65-4.81,2.52s-3.18,1.74-4.75,2.66a2.23,2.23,0,0,0-1.12.95A67.93,67.93,0,0,0,210.68,260a72.71,72.71,0,0,0-2.59,11.68,100.49,100.49,0,0,1-2.64,12.16,45,45,0,0,1-5.82,11.57c-9.56,14.13-18.37,28.78-27.57,43.15l.37-.16a3.06,3.06,0,0,0-2.3,1.73,4.9,4.9,0,0,1-3,1.43,2.24,2.24,0,0,0,1.12.95q2.34,1.36,4.74,2.66t4.82,2.52A2.25,2.25,0,0,0,179.21,348.15Z"/><path class="cls-12" d="M180.89,349.85l2-1.28,1.78-2.29a29.25,29.25,0,0,0,2.08-4.15,41,41,0,0,1,4.88-8.64q8.37-14.22,16.85-28.38c2.79-4.66,5.93-9.51,8.16-14.52a43.92,43.92,0,0,0,2.9-8.25,57.93,57.93,0,0,0,1-8.71,99,99,0,0,1,1.05-11.53,26.39,26.39,0,0,1,1.36-5.81,39.45,39.45,0,0,1,5.86-12.77,1.23,1.23,0,0,0-1.05.13c-1.2.45-2.38.94-3.55,1.45-.93.41-3.75,1.17-4.3,2.28a88.73,88.73,0,0,0-4.64,10.46c-1.53,4.42-2.12,9.23-2.82,13.85-.87,5.73-1.54,11.52-4,16.85a57.46,57.46,0,0,1-3.79,6.82c-3.52,5.54-7.05,11.08-10.52,16.66l-8.45,13.63a92.37,92.37,0,0,1-10.43,16,7.08,7.08,0,0,1-3.76,2.47,1.55,1.55,0,0,0,.84.85c1.21.81,2.44,1.58,3.68,2.33C176.33,347.53,180.13,350.34,180.89,349.85Z"/><path class="cls-12" d="M182.64,353.19a7,7,0,0,0,3-2.83,16.22,16.22,0,0,0,2.55-4.42l1.37-3.21,8.4-14.49q6.19-10.65,12.51-21.23,2.24-3.5,4.23-7.12c1-1.92,2-3.85,3-5.81a41.69,41.69,0,0,0,4.13-12.84,45,45,0,0,0,.56-6.87l.41-8.62,1.09-5.88a45.65,45.65,0,0,1,6.78-15.3c.35-.6-1.32-.4-1.56,0a57.45,57.45,0,0,0-6.69,15.34c-1.73,7-1.28,14.23-2.41,21.33a19.76,19.76,0,0,1-2.76,8.22,56.24,56.24,0,0,1-7.69,15c-5.94,10.09-12,20.14-18,30.21a68.84,68.84,0,0,0-5,8.55,23.53,23.53,0,0,1-1.55,2.83,11.29,11.29,0,0,1-1.78,2.56,8.83,8.83,0,0,1-3.05,2.77C180,351.64,182,353.63,182.64,353.19Z"/><path class="cls-12" d="M203.79,268.46a67,67,0,0,1,2.56-11.66,75.68,75.68,0,0,1,3.83-11.25l-.17.39,3.5-7.5-.18.38a96.4,96.4,0,0,1,8.29-13.19,52.84,52.84,0,0,0,3.49-4.15,19.58,19.58,0,0,0,1.37-1.78,22.83,22.83,0,0,0,3.49-6.93,2.34,2.34,0,0,0-1.43.47c-1.65.87-3.28,1.76-4.88,2.69s-3.22,1.85-4.8,2.82a2.41,2.41,0,0,0-1.14,1,32.84,32.84,0,0,1-3.5,6.89L212.16,230c-2.19,3.48-4.12,6.44-6.13,10.23-6.36,12-10,25-13.06,38.16a2.55,2.55,0,0,0,1.34-.82c1.46-1.26,2.91-2.55,4.33-3.87s2.83-2.62,4.22-4A2.52,2.52,0,0,0,203.79,268.46Z"/><path class="cls-12" d="M204.29,270.16A90.43,90.43,0,0,1,208,254.69a93.14,93.14,0,0,1,6.13-14.58l-.19.33,4.11-7.13-.2.32,4.66-6.75-.21.31c1.73-1.9,3.38-3.87,4.93-5.92a22.6,22.6,0,0,0,3.49-6.93,2,2,0,0,0-1.36.25c-1.58.59-3.14,1.22-4.7,1.89s-3.1,1.32-4.63,2a2,2,0,0,0-1.12.8,63.62,63.62,0,0,1-4.53,8.51c-2.5,4-5.14,7.8-7.32,12a129.84,129.84,0,0,0-6.64,14.92A181.36,181.36,0,0,0,194,277.48a1.89,1.89,0,0,0,1.25-.52q2.09-1.38,4.11-2.83t4-3A1.9,1.9,0,0,0,204.29,270.16Z"/><path class="cls-12" d="M205.67,265.45a108,108,0,0,1,3.5-15.28l10-20.83a36.8,36.8,0,0,1,5.77-7.67,48.39,48.39,0,0,0,3.69-4.28,31,31,0,0,0,3.63-7c.3-.72-1.23.21-1.12.14-.67.41-1.94,1.06-2.28,1.83l-1.54,3.55a49.16,49.16,0,0,1-5.45,7.36,75.3,75.3,0,0,0-9.78,15c-1.24,2.45-2.48,5.11-3.57,7.64-3.13,7.26-4.78,14.88-6.26,22.61-.16.82,1.3-.58,1.18-.47C204.09,267.44,205.51,266.35,205.67,265.45Z"/><path class="cls-12" d="M206.82,270.54l.3-7.29,8.51-21.95a68.88,68.88,0,0,1,9.72-14.25,45.8,45.8,0,0,0,3.61-4.13,30.35,30.35,0,0,0,3.53-7.07c.29-.73-1.64-.46-1.82,0a17.08,17.08,0,0,1-3.57,6.69,28.89,28.89,0,0,1-4.49,5.67,86.26,86.26,0,0,0-10.15,16.63,63.38,63.38,0,0,0-4.44,10.9c-3.12,9.09-2.61,6.17-2.21,15C205.84,271.35,206.8,271,206.82,270.54Z"/><path class="cls-12" d="M203.24,271.09l1.48-7.79a79.78,79.78,0,0,1,3.57-11.37,47.2,47.2,0,0,1,3.05-7.31,70.45,70.45,0,0,1,5.59-10.41l-.22.32,4.67-6.78-.23.31c1.28-1.49,2.56-3,3.78-4.52a16.34,16.34,0,0,0,2.16-3.07,16.92,16.92,0,0,0,2.48-5.32,2.1,2.1,0,0,0-1.42.24q-2.52.88-5,1.86c-1.65.64-3.3,1.31-4.92,2a2.16,2.16,0,0,0-1.21.79,70.25,70.25,0,0,1-4.49,8.6c-2.45,4-5.07,7.94-7.21,12.16-6.09,11.95-9.89,24.76-12.92,37.79a2.13,2.13,0,0,0,1.31-.55q2.19-1.4,4.32-2.9t4.23-3A2.15,2.15,0,0,0,203.24,271.09Z"/><path class="cls-12" d="M203.87,269.28a88.09,88.09,0,0,1,3.65-15.47,93.29,93.29,0,0,1,6.09-14.56l-.2.37,4.11-7.16-.22.36,4.42-6.43q1.92-2.08,3.63-4.34a17.24,17.24,0,0,0,2.27-3.23,16.92,16.92,0,0,0,2.48-5.32,2.45,2.45,0,0,0-1.49.42q-2.6,1.2-5.15,2.51t-5.08,2.65a2.41,2.41,0,0,0-1.22.95,68.77,68.77,0,0,1-4.51,8.58c-2.45,4-5.07,7.94-7.22,12.15-6.12,12-9.88,24.85-12.93,37.94a2.5,2.5,0,0,0,1.38-.76q2.31-1.79,4.54-3.66t4.45-3.79A2.51,2.51,0,0,0,203.87,269.28Z"/><path class="cls-12" d="M204.4,271c1.51-7.8,3.19-15.46,6.4-22.77a98.66,98.66,0,0,1,9.53-17,24.1,24.1,0,0,1,3.43-4.53,51.63,51.63,0,0,0,3.5-4.18,33,33,0,0,0,3.52-6.87c.31-.76-1.45,0-1.52,0-.87.29-1.73.6-2.58.94a3.65,3.65,0,0,0-1.28.67,44.86,44.86,0,0,1-4.62,8.25,129.6,129.6,0,0,0-7.64,11.14,118.76,118.76,0,0,0-7,14.3c-3,7.26-4.64,15-6.36,22.64-.18.8,1.4-.27,1.41-.28.73-.44,1.45-.91,2.16-1.4A3.28,3.28,0,0,0,204.4,271Z"/><path class="cls-12" d="M206.34,267.18a113.23,113.23,0,0,1,3.54-15.31,90.26,90.26,0,0,1,8.18-17.81,106.65,106.65,0,0,1,10.11-13.73,14.36,14.36,0,0,0,2.18-3,16.7,16.7,0,0,0,2.52-5.28c.31-.76-1.38.16-1.3.12-.73.37-2.59,1.07-2.95,1.89a37.49,37.49,0,0,1-4.72,8.24,109.55,109.55,0,0,0-8,11,116.63,116.63,0,0,0-7.23,14.23c-3.07,7.25-4.72,14.91-6.27,22.59-.17.82,1.37-.46,1.29-.41C204.31,269.2,206.19,268.06,206.34,267.18Z"/><path class="cls-12" d="M204.17,271.63a89.11,89.11,0,0,1,13.48-36.39,48.85,48.85,0,0,1,6.86-9.17c.83-1,1.67-2.08,2.49-3.13a22,22,0,0,0,3.5-6.9,1.25,1.25,0,0,0-1.05,0c-1.22.32-2.44.68-3.64,1.07-.73.23-4,.82-4.46,1.8a31.22,31.22,0,0,1-3.49,6.77q-2,3.11-4.1,6.12c-1.53,2.32-3,4.71-4.32,7.15-6.41,11.58-10.14,24.2-12.94,37.09a1.09,1.09,0,0,0,1-.2c1-.53,2.06-1.09,3.07-1.69C201.16,273.81,204,272.63,204.17,271.63Z"/><path class="cls-12" d="M203.35,270.24A89,89,0,0,1,207,254.79a95.06,95.06,0,0,1,6.1-14.59l-.2.35,4.11-7.16-.22.34,4.66-6.79-.23.33c1.72-1.92,3.36-3.9,4.91-6a22.58,22.58,0,0,0,3.48-6.93,2.25,2.25,0,0,0-1.44.32q-2.52,1-5,2.19c-1.66.74-3.3,1.51-4.94,2.32a2.23,2.23,0,0,0-1.19.87,70.19,70.19,0,0,1-4.5,8.59c-2.45,4-5.06,8-7.21,12.16-6.1,12-9.88,24.82-12.92,37.88a2.24,2.24,0,0,0,1.33-.65q2.22-1.6,4.37-3.28c1.45-1.11,2.87-2.24,4.28-3.4A2.3,2.3,0,0,0,203.35,270.24Z"/><path class="cls-12" d="M204.79,270.75l1.37-7.67,8.19-21.93a73.11,73.11,0,0,1,9.59-14.57,55.67,55.67,0,0,0,3.6-4.37,31.72,31.72,0,0,0,3.6-7,1.28,1.28,0,0,0-1.08.08c-1.25.39-2.49.81-3.71,1.27s-2.46.91-3.66,1.42a1.29,1.29,0,0,0-.88.63,23.06,23.06,0,0,1-2.52,5.13,84.65,84.65,0,0,1-5.11,7.73,105.85,105.85,0,0,0-7.87,14.06c-4.46,9.63-7.22,19.91-9.49,30.24a1.17,1.17,0,0,0,1-.27c1.08-.6,2.14-1.24,3.19-1.9C201.68,273.15,204.6,271.81,204.79,270.75Z"/><path class="cls-12" d="M207.43,271l.22-7.33a81.68,81.68,0,0,1,6.86-18.45c2.74-5.63,6-11.78,10.21-16.45,1.58-1.78,3.36-3.43,4.78-5.35a29.57,29.57,0,0,0,3.57-7.13c.29-.73-1.51-.54-1.67-.12l-1.49,3.7a36.14,36.14,0,0,1-5.37,7.31,24,24,0,0,0-3.44,4.5,70.77,70.77,0,0,0-6.21,9.89A109.15,109.15,0,0,0,208.74,256c-.44,1.35-.86,2.71-1.29,4.07a16.29,16.29,0,0,0-.94,11C206.53,271.71,207.42,271.51,207.43,271Z"/><path class="cls-12" d="M191.75,239.82a53.87,53.87,0,0,1,3-10.46,85.92,85.92,0,0,1,4.08-10.05l-.18.38q3.16-6.75,6.61-13.36l-.2.37a15.93,15.93,0,0,1,3.44-3.88l-10.55,6.28,13.37-6.6-11,4,9.46-2.18-9.16,1.4q-6.19,4-12.29,8.21a38.93,38.93,0,0,1-8.49,5.18l.06.29,4.18,10.68-1.16-8.51a81,81,0,0,1,.07,23.53,74.53,74.53,0,0,0-.6,14.32,1.48,1.48,0,0,0,1-.57q1.62-1.42,3.17-2.92t3.06-3a1.5,1.5,0,0,0,.62-1q.12-7.14.18-14.28a21.39,21.39,0,0,0-7.16-16.88l1,9.58a33.68,33.68,0,0,1,13.55-16.27,67.69,67.69,0,0,1,15-10.56l.3-.25L210,202a2.24,2.24,0,0,0-1.43.35c-1.66.72-3.31,1.48-4.94,2.26s-3.27,1.57-4.87,2.41a2.22,2.22,0,0,0-1.18.89,43.71,43.71,0,0,0-4,6.93,264,264,0,0,0-13,34.38,2.48,2.48,0,0,0,1.36-.76c1.5-1.19,3-2.41,4.45-3.66s2.92-2.5,4.35-3.79A2.46,2.46,0,0,0,191.75,239.82Z"/><path class="cls-12" d="M192.27,241.49l1.78-7a91.41,91.41,0,0,1,3.9-10.14c2.4-5.57,5.15-10.95,7.91-16.35l-.21.32,1.23-1.79-.22.31a9.14,9.14,0,0,1,2.51-2.45l-2.77,1.39,3.25-1.5-9.49,3.16,11-3.13-10.79,1.86a142.82,142.82,0,0,0-13.25,8.31l0,.27.57,4.94-.09-2-2.82,21.89a45.26,45.26,0,0,0-1.53,7.42l-.42,3.71a45.38,45.38,0,0,0-.36,10.55,1.42,1.42,0,0,0,.9-.66c.88-1,1.74-2.07,2.57-3.14.7-.89,2.84-2.92,2.87-4.26l.12-6.46q.51-5.16,1.08-10.32c.66-6.06.42-3.36.09-11.94L188,230.31a23.54,23.54,0,0,1,10.33-15.49,31.94,31.94,0,0,0,12.53-11.29,2,2,0,0,0-1.36.14q-2.4.71-4.77,1.51c-1.59.51-3.16,1.07-4.72,1.65a1.93,1.93,0,0,0-1.17.71c-.77,1-1.59,2.08-2.28,3.19a62.59,62.59,0,0,0-3.34,7,231,231,0,0,0-11.5,30.7,1.87,1.87,0,0,0,1.27-.47c1.43-.86,2.84-1.74,4.23-2.66s2.78-1.83,4.14-2.79A1.93,1.93,0,0,0,192.27,241.49Z"/><path class="cls-12" d="M193.74,236.85a46.76,46.76,0,0,1,2.81-10.22,73.78,73.78,0,0,1,4.15-10l3.22-6.47a18.9,18.9,0,0,1,6.3-9.47L208,202h5.92l-.14-.58c-3.75,2.66-7.45,5.29-11.05,8.14a30.55,30.55,0,0,0-6.59,6,47,47,0,0,0-7.61,9.63A67.6,67.6,0,0,0,182,239.1a41.83,41.83,0,0,0-2.09,10.78,41.63,41.63,0,0,0-.2,10.64c0,.71,1.24.21,1.22-.24a56.41,56.41,0,0,1,.34-13.92,46.66,46.66,0,0,1,5.65-17.09,32.91,32.91,0,0,1,6.95-10.1A72,72,0,0,1,216,201.51c.16-.11.32-.36.09-.51-1.16-.79-2.2-1.62-3.68-1.65a6.53,6.53,0,0,0-1.85.36,9.79,9.79,0,0,0-2.91,1.81,19.31,19.31,0,0,0-3.9,4.73l-3.35,6.57q-2.56,4.91-4.65,10a52.62,52.62,0,0,0-2.64,6.89,57.43,57.43,0,0,0-2.8,9.91c-.19.8,1.31-.51,1.18-.4C192.16,238.71,193.53,237.73,193.74,236.85Z"/><path class="cls-12" d="M194.88,242l.66-6.62a126,126,0,0,1,10.83-23.67c1.74-3.08,2.14-4.2,4.72-6L210,206l4.29,1.16-.1-.49c-7.6,5.16-15.21,10.41-21.1,17.6l-4.86,6.39a20.7,20.7,0,0,0-1.94,3.55,53.21,53.21,0,0,0-6.19,17.63l-.72,7.11a50.86,50.86,0,0,0,.17,7.3c0,.67,1.65-.8,1.63-1.35l.19-13.54A37,37,0,0,1,184,241.18a28.21,28.21,0,0,1,12.19-15.94,43.7,43.7,0,0,1,19.87-18c.21-.13,0-.42-.11-.49-1.36-1.1-2.36-2-4.2-1.81a5,5,0,0,0-3.56,1.53,17.86,17.86,0,0,0-2.22,2.68,32.74,32.74,0,0,0-1.75,3.38q-1.65,3.16-3.21,6.39c-1.58,3.21-3.06,6.45-4.43,9.76-3.23,7.79-2.64,5.66-2.7,13.43C193.84,242.82,194.84,242.49,194.88,242Z"/><path class="cls-12" d="M191.21,242.4a53,53,0,0,1,3-10.42,95.42,95.42,0,0,1,4.1-10.08c2.27-4.88,4.44-10.1,7.47-14.54l-.23.32a9.47,9.47,0,0,1,2.51-2.5L196.21,210l16.47-4.38-12.76.36-6.24,3.13L194,209a69.28,69.28,0,0,0-8.68,3.6l0,.32,2.53,11.93-.81-9.29-.88,16.87q-1.44,5.64-2.56,11.34a43.29,43.29,0,0,0-1.19,7.42,45.36,45.36,0,0,0-.4,10.61,2,2,0,0,0,1.08-.87q1.66-1.92,3.24-3.92t3.12-4a2,2,0,0,0,.61-1.24,93.44,93.44,0,0,1,.77-13.16,45.25,45.25,0,0,0-.32-15.91l-1.82,5,3-7.32a42.19,42.19,0,0,1,9.33-7.62,66.53,66.53,0,0,1,7.82-4.9q7.06-1.71,2.42-3.4a2.13,2.13,0,0,0-1.43,0c-1.74.27-3.48.58-5.2.92s-3.46.68-5.17,1.08a2.09,2.09,0,0,0-1.32.56,27.79,27.79,0,0,0-5.19,8.29,276.18,276.18,0,0,0-13,34.17,2.08,2.08,0,0,0,1.33-.49c1.51-.87,3-1.78,4.46-2.71s2.94-1.87,4.37-2.85A2,2,0,0,0,191.21,242.4Z"/><path class="cls-12" d="M191.83,240.62l1.75-7.05a91.2,91.2,0,0,1,3.89-10.13c2.39-5.56,5.13-10.93,7.87-16.33l-.23.36a16.49,16.49,0,0,1,3.48-3.92l-12.22,6.34L213,204.16l-13,1.77q-5.7,3.6-11.68,6.72a15.94,15.94,0,0,0-6.65,4V217l3.41,13.55.21-5.06a173.51,173.51,0,0,1-2.1,20.34,69,69,0,0,0-.68,14.22,1.69,1.69,0,0,0,1-.69q1.65-1.62,3.21-3.31t3.08-3.42a1.69,1.69,0,0,0,.62-1.1q.08-6.92.45-13.81a26.71,26.71,0,0,0-4.67-17.24l-.82,10.1a30.09,30.09,0,0,1,12-16.26,34,34,0,0,0,12.75-11.58,2.44,2.44,0,0,0-1.49.3c-1.76.67-3.5,1.36-5.22,2.09s-3.46,1.46-5.16,2.24a2.37,2.37,0,0,0-1.26.85c-.73,1.11-1.53,2.21-2.2,3.36a73.15,73.15,0,0,0-3.29,7.07,246.94,246.94,0,0,0-11.46,30.9,2.48,2.48,0,0,0,1.41-.69c1.58-1.13,3.14-2.28,4.67-3.47s3.08-2.36,4.59-3.58A2.48,2.48,0,0,0,191.83,240.62Z"/><path class="cls-12" d="M192.39,242.36a76.38,76.38,0,0,1,4.19-13.73q2.71-6.72,6-13.14c2.05-4.09,3.3-7.52,6.81-10.26l-1.3.65,2.3-.92-4.59,1.09,5.17-.8-3.77.3,2.5.27-1.6-.51a56.35,56.35,0,0,0-6.47,6.64,102.13,102.13,0,0,0-6.89,8.49,94.67,94.67,0,0,0-5.53,8,60.22,60.22,0,0,0-6.57,14.14l-1.67,7a56.36,56.36,0,0,0-.63,14c0,.94,1.46-1.1,1.35-1q.93-1.22,1.77-2.46a4.51,4.51,0,0,0,.78-1.38c-.23-6.38-.4-13.15,1.6-19.33l14.23-23.27A66.16,66.16,0,0,1,214.07,206c.22-.1.23-.21,0-.35l-1.69-1.08c-.5-.33-2.5,0-2.86.06a7.6,7.6,0,0,0-2.82.47,12.28,12.28,0,0,0-3.32,2.31,19.77,19.77,0,0,0-2.51,3.81,172.38,172.38,0,0,0-13.26,33.48c-.23.8,1.44-.22,1.43-.22.76-.41,1.51-.85,2.24-1.31A3.26,3.26,0,0,0,192.39,242.36Z"/><path class="cls-12" d="M194.38,238.6a66.75,66.75,0,0,1,4.08-13.69q2-5,4.51-9.85c2.3-4.64,4-9.88,8.25-13.09l-3.5,1.86,5.19-.57-.36-.45L207.13,208l-7.33,5.83L194.19,220a41.73,41.73,0,0,0-6.89,10.1,55.33,55.33,0,0,0-5.4,14,27.75,27.75,0,0,0-1.21,7.17A42.17,42.17,0,0,0,180.5,262c0,.73,1.37-.12,1.35-.59a55,55,0,0,1,1.77-20.62,51.88,51.88,0,0,1,6-13.53,56.34,56.34,0,0,1,10.92-12.88q7.69-6.08,15.86-11.52c.14-.13.13-.24,0-.35a6,6,0,0,0-3.46-1.5,6.18,6.18,0,0,0-2,.48,11.77,11.77,0,0,0-4.15,2.49c-2.15,2.07-3.39,4.63-4.72,7.28-2.2,4.38-4.33,8.78-6.22,13.3a126.85,126.85,0,0,0-5.5,16.8c-.22.81,1.39-.41,1.3-.34C192.3,240.51,194.17,239.47,194.38,238.6Z"/><path class="cls-12" d="M192.17,243l1.64-6.88a138.5,138.5,0,0,1,10.6-23.83c1.64-3,2.16-4.35,4.61-6.29l-7.92,2.65,12.63-2.08-9.73-.78-4.82,3.14a6.7,6.7,0,0,0-4.69,4.81c-3.06,6.92-5.1,14.25-7.94,21.26a79,79,0,0,0-4.27,14.12c-1.1,5.57-.81,8.57-.76,14.15,0,1.16,1.9-1.91,1.74-1.67q1.28-1.86,2.49-3.78a9.23,9.23,0,0,0,1.14-2.06,63.42,63.42,0,0,1,2-19.52q1.88-6.71,3.71-13.43l-2.07,4.84A33.18,33.18,0,0,1,199.05,216a89.43,89.43,0,0,1,14.68-9.43c.36-.09.36-.21,0-.35l-1.47-.87c-1-.59-2.67-.11-3.77,0s-2.27.19-3.39.32a9.71,9.71,0,0,0-2.34.39,15.09,15.09,0,0,0-4.31,5,124.87,124.87,0,0,0-5.92,12.68,182.14,182.14,0,0,0-8.33,23.42,1.1,1.1,0,0,0,1-.17q1.62-.72,3.18-1.56C189,245,191.93,244,192.17,243Z"/><path class="cls-12" d="M191.32,241.57l1.75-7A93.37,93.37,0,0,1,197,224.4c2.4-5.57,5.14-11,7.88-16.37l-.22.34,1.23-1.82-.23.34a9.18,9.18,0,0,1,2.49-2.48l-3,1.58,3.33-1.65-11.15,4,14.27-3.16-11.7.83a161.82,161.82,0,0,1-16.24,7.86l.09.29,2.72,8.57-1.93-7.14a89.87,89.87,0,0,1-1.63,31.18,62.87,62.87,0,0,0-.77,14.17,1.9,1.9,0,0,0,1.08-.78q1.7-1.77,3.3-3.63t3.18-3.73a1.86,1.86,0,0,0,.64-1.17,123.91,123.91,0,0,1,.7-13.34,34.51,34.51,0,0,0-2-16.83l-2.67,9.28a24,24,0,0,1,10.78-15.94,126.45,126.45,0,0,1,15.43-9.86l.34-.22-1.67-1a2.13,2.13,0,0,0-1.45.06c-1.74.37-3.48.77-5.2,1.22s-3.46.88-5.17,1.37a2.19,2.19,0,0,0-1.3.63,24.89,24.89,0,0,0-4.77,7.37A286.46,286.46,0,0,0,180,249.54a2.27,2.27,0,0,0,1.35-.59q2.3-1.5,4.51-3.09c1.49-1,3-2.11,4.42-3.21A2.34,2.34,0,0,0,191.32,241.57Z"/><path class="cls-12" d="M192.71,242.15a100.71,100.71,0,0,1,14.42-34.59,7.56,7.56,0,0,1,3.94-3L202,207l11.53-1.08-9-.41-4.8,3.42-4,3.14-2.19,4.2q-3.14,9-6.61,17.82a94.13,94.13,0,0,0-3.54,10.81,28.67,28.67,0,0,0-1.25,7,41.54,41.54,0,0,0-.31,10.51c0,1.07,1.71-1.57,1.56-1.36.74-1.06,1.46-2.12,2.16-3.21a7,7,0,0,0,1-1.76l-.06-6.43a47.17,47.17,0,0,1,1.4-9.84c1.22-5.7,3-11.28,4.64-16.87l-1.74,4.1a24.22,24.22,0,0,1,6.14-8.93,44.23,44.23,0,0,1,17.37-12.35c.35-.12.35-.23,0-.36l-1.42-.89c-1-.61-2.78,0-3.83.16s-2.29.31-3.43.49a10.37,10.37,0,0,0-2.35.51,20,20,0,0,0-3.84,4,36.24,36.24,0,0,0-1.91,3.52,211.3,211.3,0,0,0-13.05,33.64,1.2,1.2,0,0,0,1-.23c1.11-.56,2.21-1.15,3.28-1.77C189.51,244.4,192.45,243.22,192.71,242.15Z"/><path class="cls-12" d="M195.49,242.54a16.34,16.34,0,0,1,1.78-10,157,157,0,0,1,11.84-24.15l1.21-1.25q2.7-1.68,4.59.51l-.08-.49a61.66,61.66,0,0,0-11.29,8.13,71.93,71.93,0,0,0-10,9.53,52.13,52.13,0,0,0-8.62,13.23,48.45,48.45,0,0,0-2.75,7.25l-1.65,7.09a54.66,54.66,0,0,0-.48,14.17c0,1,1.39-.43,1.36-1l-.35-6.63a31.2,31.2,0,0,1,6.84-20.48,29.19,29.19,0,0,1,13-19.47,51.28,51.28,0,0,1,15.7-11.22c.2-.12,0-.42-.09-.5-1.3-1.06-2.33-2-4.13-1.87-2.15.2-3.28,1-4.69,2.75-2.65,3.27-4.14,7.38-6,11.13-1.59,3.2-3,6.44-4.38,9.73l-2.88,7a8.48,8.48,0,0,0,.08,6.52C194.55,243.19,195.46,243,195.49,242.54Z"/><path class="cls-12" d="M169.64,245.47a80.52,80.52,0,0,1,.94-15.74l-.1.42a20.8,20.8,0,0,1,4.7-9.61l-2.43,2.57q4.65-4.22,9.13-8.62a16.48,16.48,0,0,0,3.84-4.91l1.75-3.85a31,31,0,0,0,1.65-8.84,2.33,2.33,0,0,0-1.39.6c-1.57,1-3.11,2-4.64,3.12s-3.06,2.14-4.55,3.26a2.36,2.36,0,0,0-1,1.09,31.63,31.63,0,0,1-2.18,7.68,35.39,35.39,0,0,1-4,7.36l.23-.34c-4,5.4-7.8,10.93-9.34,17.53s-1.71,13.36-1.89,20a2.55,2.55,0,0,0,1.21-1q1.92-2.27,3.75-4.59c1.23-1.54,2.44-3.11,3.62-4.69A2.61,2.61,0,0,0,169.64,245.47Z"/><path class="cls-12" d="M170.06,247.31a81.29,81.29,0,0,1,1-15.74l-.1.36,1.17-4-.12.36,1.59-3.31,4.79-5.35c1.87-1.72,4-3.08,5.62-5.08a24.52,24.52,0,0,0,3.32-5.39,33.23,33.23,0,0,0,2.46-10.73,1.94,1.94,0,0,0-1.31.36c-1.51.73-3,1.49-4.47,2.28s-2.94,1.59-4.38,2.43a1.93,1.93,0,0,0-1,.88,31.28,31.28,0,0,1-2.11,7.77,33.94,33.94,0,0,1-4,7.35c-2.26,3.21-4.69,6.15-6.58,9.65-4.4,8.17-4.48,17.89-4.7,26.95a1.88,1.88,0,0,0,1.14-.71c1.21-1.12,2.4-2.27,3.55-3.44s2.33-2.35,3.45-3.55A1.94,1.94,0,0,0,170.06,247.31Z"/><path class="cls-12" d="M171.11,242.35c-.25-8.93-.45-16.78,5.73-24.66l-2.11,2.25c4.16-3.82,10.1-7.55,13.14-12.59,2.51-4.14,3-8.32,3.48-13,.07-.73-1.1.26-1.12.28-.51.39-2.06,1.38-2.15,2.11-.42,3.61-.83,7-2.47,10.31a12.28,12.28,0,0,1-2,3.32,10.28,10.28,0,0,1-3,3.24c-2,1.81-4.17,3.49-6,5.46-6.79,7.22-6.72,18-6.67,27.22,0,.86,1.26-.86,1.17-.74C169.63,244.84,171.13,243.29,171.11,242.35Z"/><path class="cls-12" d="M172.22,247.08a35.12,35.12,0,0,1,.09-14.93,22.06,22.06,0,0,1,2.8-6.59,25.55,25.55,0,0,1,6.57-6,20.37,20.37,0,0,0,5.47-5.32,17,17,0,0,0,2.87-5.46,33.19,33.19,0,0,0,1.48-9.12c.07-.81-1.67-.34-1.71.08a35,35,0,0,1-1.55,9,22.52,22.52,0,0,1-6.53,9.63c-2.92,2.32-5.91,4-8,7.31a29.5,29.5,0,0,0-3.57,10.65q-.3,2.13-.54,4.26c.48,2.27,1,4.51,1.69,6.74C171.48,248,172.3,247.53,172.22,247.08Z"/><path class="cls-12" d="M169.07,248.31c-.06-3.31-.11-6.61.15-9.92A46.38,46.38,0,0,1,171.1,229l-.12.37,1.56-3.33a17.18,17.18,0,0,1,3.44-4.15c2.18-2.13,4.82-3.94,6.77-6.3a31.45,31.45,0,0,0,2.58-3.63c2.34-3.83,2.87-8.29,3.34-12.62a2.08,2.08,0,0,0-1.38.35q-2.39,1.09-4.74,2.28c-1.57.78-3.13,1.59-4.66,2.43a2.08,2.08,0,0,0-1.12.89,45.88,45.88,0,0,1-2.15,7.68,41.56,41.56,0,0,1-3.94,7.46,85.34,85.34,0,0,0-6.38,10.2c-4,8.3-4.24,17.84-4.47,26.9a2,2,0,0,0,1.18-.75q1.89-1.75,3.71-3.59t3.6-3.7A2,2,0,0,0,169.07,248.31Z"/><path class="cls-12" d="M169.7,246.37a80.38,80.38,0,0,1,1-15.73l-.12.41,1.18-4-.13.4a22,22,0,0,1,9.11-11,14.19,14.19,0,0,0,2.86-2.88,22.52,22.52,0,0,0,4-7.17,30.83,30.83,0,0,0,1.64-8.82,2.45,2.45,0,0,0-1.45.54c-1.65,1-3.29,1.94-4.9,2.95s-3.24,2-4.82,3.09a2.38,2.38,0,0,0-1.14,1.05,49.57,49.57,0,0,1-2.18,7.66,39.68,39.68,0,0,1-5,8.82,60.26,60.26,0,0,0-5.3,8.55c-4.12,8.42-4.32,18.09-4.57,27.3a2.58,2.58,0,0,0,1.26-1q2-2.16,3.92-4.38c1.3-1.48,2.57-3,3.81-4.49A2.53,2.53,0,0,0,169.7,246.37Z"/><path class="cls-12" d="M170.1,247.91a95.19,95.19,0,0,1,.33-11.82,29.82,29.82,0,0,1,1.72-7.34,25.29,25.29,0,0,1,7.75-9.41,47.2,47.2,0,0,0,4.27-3.72,16.54,16.54,0,0,0,3.25-5.21c1.67-3.55,2.16-7.07,2.58-11,.05-.4-2.82,1-2.72.94-.53.27-2.24.85-2.38,1.62a30,30,0,0,1-3.74,11.79l-2.34,3.42c-1.7,1.77-3.4,3.54-5.08,5.33a19.18,19.18,0,0,0-3.38,4.49c-4.29,7.05-4,16.2-4.18,24.16,0,.8,1.28-.49,1.31-.51.62-.56,1.22-1.13,1.8-1.72A3,3,0,0,0,170.1,247.91Z"/><path class="cls-12" d="M171.89,244a68.81,68.81,0,0,1,.22-11.75l.66-3.8a51.57,51.57,0,0,1,11.83-14.92,14.93,14.93,0,0,0,4-4.76L190.4,205A31,31,0,0,0,192,196c.08-.75-1.19.2-1.28.25-.54.35-2.62,1.42-2.72,2.17a32.39,32.39,0,0,1-1.72,8.44,25.27,25.27,0,0,1-6.57,9.29c-2.79,2.68-5.88,5-7.73,8.49-3.72,7.05-3.65,15.18-3.61,22.94,0,.83,1.28-.65,1.25-.62.55-.6,1.09-1.23,1.61-1.86A3.09,3.09,0,0,0,171.89,244Z"/><path class="cls-12" d="M169.91,248.73c-.19-6.22-.55-12.95,1.89-18.83a23,23,0,0,1,6.39-8.65,69.41,69.41,0,0,0,5.71-5.13A22,22,0,0,0,188,209a30.16,30.16,0,0,0,1.58-8.78c0-.31-4.55,1.56-4.42,1.5-.55.24-3.93,1.25-4.12,2.19a31.76,31.76,0,0,1-2.1,7.91,31.26,31.26,0,0,1-6.21,9.78c-2.74,3.65-5.51,7.19-6.93,11.59-2.18,6.78-2.32,14.05-2.37,21.11a1,1,0,0,0,.87-.35q1.33-1,2.61-2.13C167.44,251.34,169.94,249.71,169.91,248.73Z"/><path class="cls-12" d="M169.2,247.41a81.11,81.11,0,0,1,1-15.72l-.11.39,1.16-4-.12.39,1.56-3.32,4.74-5.37c1.84-1.74,3.93-3.13,5.55-5.14a24.61,24.61,0,0,0,3.31-5.41,33.48,33.48,0,0,0,2.49-10.71,2.15,2.15,0,0,0-1.4.45c-1.6.83-3.19,1.7-4.75,2.61s-3.14,1.8-4.69,2.74a2.23,2.23,0,0,0-1.1,1,51.13,51.13,0,0,1-2.17,7.67,40.18,40.18,0,0,1-5,8.86,59.88,59.88,0,0,0-5.28,8.58c-4.09,8.4-4.3,18-4.54,27.21a2.27,2.27,0,0,0,1.2-.87c1.28-1.31,2.53-2.63,3.76-4s2.45-2.7,3.64-4.08A2.27,2.27,0,0,0,169.2,247.41Z"/><path class="cls-12" d="M170.49,247.82c-.19-6.12-.59-13.16,1.89-18.84l1.59-3.3a31.48,31.48,0,0,1,6.29-6.49c2.56-2.11,5-4.24,6.63-7.23l1.76-3.84a30,30,0,0,0,1.57-8.81c0-.27-4.65,1.82-4.52,1.76-.59.29-4,1.45-4.2,2.45a32.35,32.35,0,0,1-2.08,7.92,30.38,30.38,0,0,1-6.26,9.74c-2.78,3.64-5.59,7.15-7,11.56-2.23,6.8-2.36,14.1-2.43,21.19a1.12,1.12,0,0,0,.91-.42c.93-.76,1.85-1.54,2.73-2.36C167.9,250.66,170.52,248.85,170.49,247.82Z"/><path class="cls-12" d="M172.86,247.69c-.88-5.07-1.24-10.06,0-15.09a22,22,0,0,1,2.83-6.6,25.29,25.29,0,0,1,6.57-5.95,20.44,20.44,0,0,0,5.46-5.31,16.83,16.83,0,0,0,2.88-5.46,33.17,33.17,0,0,0,1.46-9.12c.07-.79-1.52-.44-1.56,0a35.58,35.58,0,0,1-1.53,9,22.36,22.36,0,0,1-6.55,9.61c-2.91,2.29-5.88,4-8,7.22a27.93,27.93,0,0,0-3.56,10.58,34.65,34.65,0,0,0-.47,4.19q.66,3.51,1.58,7C172.14,248.19,172.93,248.09,172.86,247.69Z"/><path class="cls-12" d="M150.86,245.35a30.37,30.37,0,0,1,.61-8.92l-.09.42a32.52,32.52,0,0,1,2.9-8.14,33.32,33.32,0,0,1,7.71-10l-11.22,8.22L148,233.18l.16-.31c-3.35,4.8-6.52,9.88-10.5,14.18-.86.9-1.7,1.83-2.52,2.77a27.75,27.75,0,0,1-5,4.65c-.24.06-.27.17-.09.34q4.13,5,8.32,10a18.66,18.66,0,0,0,5.95,4.62c.21.13.61-5.66.61-5.52.07-1.46.1-2.92.1-4.38a1.53,1.53,0,0,0-.25-1.17,29.06,29.06,0,0,1-6.33-5.09c-1.63.29-3.27.54-4.91.74l2.44,6.51a18.37,18.37,0,0,1,5.59-12.69c1.62-1.8,3.32-3.53,5.11-5.17l5.38-7.25a98.55,98.55,0,0,0,10.13-17.07,2.36,2.36,0,0,0-1.37.66c-1.09.76-2.17,1.54-3.23,2.34-1.33,1-2.66,2-4,3a21.54,21.54,0,0,0-2.64,2.22,46,46,0,0,0-4.61,8.24c-.61,1.52-1.18,3.11-1.67,4.67s-.92,3-1.29,4.49A58,58,0,0,0,142,257.56a2.61,2.61,0,0,0,1.17-1.11q1.81-2.35,3.56-4.77t3.42-4.87A2.62,2.62,0,0,0,150.86,245.35Z"/><path class="cls-12" d="M151.27,247.23a30.23,30.23,0,0,1,.65-8.95l-.09.37,1.3-4.58-.1.36A36.72,36.72,0,0,1,157,226.7a32.3,32.3,0,0,1,5.65-6.42l-10.72,6.05a133.76,133.76,0,0,0-11.79,14.8,4.29,4.29,0,0,0-.52.91c-1.08,2.74-1.27,17.48-.81,12.3-.31,3.48-.42,6.85,1,10.19l1.51,3.13a12.68,12.68,0,0,0,4.39,4.55c.23.19,1.57-5.42,1.54-5.28.32-1.41.6-2.82.85-4.25a1.46,1.46,0,0,0-.05-1.18,4.65,4.65,0,0,1-1.26-2.92,27.36,27.36,0,0,1-3-6.27,28.29,28.29,0,0,1-1.4-6.48,4.63,4.63,0,0,0-2.69-3.19l.1,8.55a22.93,22.93,0,0,1,4.59-5.6,28.69,28.69,0,0,0,5.89-6.26A100.46,100.46,0,0,0,158,228.7a50.39,50.39,0,0,0,4.8-8.74,1.87,1.87,0,0,0-1.29.41c-1,.55-2.07,1.12-3.09,1.72-1.27.72-2.54,1.47-3.8,2.23a16,16,0,0,0-2.54,1.69c-2.39,3.45-3,4-4.66,7.85-.66,1.49-1.23,3-1.74,4.58s-1,3.07-1.38,4.6a58.19,58.19,0,0,0-1.43,13.42,1.89,1.89,0,0,0,1.1-.77c1.15-1.17,2.28-2.37,3.37-3.59s2.21-2.45,3.27-3.71A1.89,1.89,0,0,0,151.27,247.23Z"/><path class="cls-12" d="M152.22,242.19A18.32,18.32,0,0,1,154,231.74a23.38,23.38,0,0,1,9.45-15.32L160.7,218a33.75,33.75,0,0,1-6.95,14.92,48.94,48.94,0,0,1-8.56,10.9c-3.15,3.25-6.88,6.42-8.28,10.93a16.44,16.44,0,0,0-.46,6.84,16,16,0,0,0,2.14,6.21,15,15,0,0,0,5.35,4.63c.46.31.94-.69.51-1a14.69,14.69,0,0,1-4.76-4.35q-4.81-9,2.33-19a65.38,65.38,0,0,0,12.54-14.91,83.81,83.81,0,0,0,9.6-17.52c.27-.57-.81,0-.86.07a11.35,11.35,0,0,0-2.41,2c-3.71,3.9-6.86,7.92-8.9,13a30.26,30.26,0,0,0-1.57,4.74,42.65,42.65,0,0,0-1.27,10.87c0,.9,1.28-1,1.16-.81C150.85,244.74,152.22,243.21,152.22,242.19Z"/><path class="cls-12" d="M153.32,247l1-12.15a24.73,24.73,0,0,1,3.07-5.71,41.71,41.71,0,0,1,7-7.87l-1.52,0A111.59,111.59,0,0,1,154.07,238a145.07,145.07,0,0,1-12.68,14.76c-2.19,2.52-3.85,4.44-4.75,7.7a16.94,16.94,0,0,0,.32,9.77,14.65,14.65,0,0,0,1.51,3.2,14.36,14.36,0,0,0,5.41,4.7c.35.24,1.42-2.25.82-2.68l-2.59-1.86a13.75,13.75,0,0,1-4.32-9.12c-.75-6.5,2-8.68,7.6-14.83,1.24-1.36,2.62-2.65,3.84-4a114.47,114.47,0,0,0,7.7-11.11,97.5,97.5,0,0,0,7.52-13.28c.48-.89-1.14-.42-1.44-.12a51.52,51.52,0,0,0-5.81,6.36,35.71,35.71,0,0,0-4.89,9.78c-.86,2.63-.72,1.57-.66,4.09.08,3,0,1.66.74,5.68C152.49,247.63,153.38,247.48,153.32,247Z"/><path class="cls-12" d="M150.3,248.25a30.38,30.38,0,0,1,.63-8.92l-.1.37,1.3-4.6-.12.37a38.19,38.19,0,0,1,3.88-7.78,32,32,0,0,1,5.61-6.5l-11.32,6.22-3.28,5.64.21-.27q-3.77,3.71-7.81,7.08l-.18.31a14.16,14.16,0,0,0-.26,2.84q-.15,6.66-.75,13.3a19.89,19.89,0,0,0,.67,7.07,15.2,15.2,0,0,0,2,4.85,13.13,13.13,0,0,0,4.44,4.66c.2.17,2.27-6.6,2.23-6.44q.75-2.58,1.39-5.19a2.15,2.15,0,0,0,.11-1.45,4.15,4.15,0,0,1-1.11-2.76,22.63,22.63,0,0,1-2.67-4.84,26.81,26.81,0,0,1-1.95-5.24,8.61,8.61,0,0,0-3.91-7.11l-.3,11.79a16.38,16.38,0,0,1,3.21-4.3,41.71,41.71,0,0,1,4.31-4.2l5.33-6.43a73.21,73.21,0,0,0,9.87-15.86,2.12,2.12,0,0,0-1.36.43q-2.33,1.22-4.6,2.52c-1.52.85-3,1.74-4.52,2.65a2.14,2.14,0,0,0-1.06.95c-.81,1.24-1.73,2.48-2.44,3.79a44.12,44.12,0,0,0-2.77,6.53,58.6,58.6,0,0,0-2.47,9,65.12,65.12,0,0,0-.95,11.17,2,2,0,0,0,1.14-.82c1.2-1.22,2.37-2.48,3.52-3.76s2.29-2.55,3.39-3.87A2,2,0,0,0,150.3,248.25Z"/><path class="cls-12" d="M150.92,246.28a30.09,30.09,0,0,1,.62-8.93l-.11.41,1.31-4.61-.12.41a36.51,36.51,0,0,1,3.88-7.69,32.34,32.34,0,0,1,5.58-6.39l-11.79,7.84-3,6,.18-.3a90.12,90.12,0,0,1-10,11.3l9-1.81-11.92.17c-.42,0,.25,3.81.13,3,.82,5.38,1,10.9,3.43,15.81a15.14,15.14,0,0,0,2.92,4.4,14.88,14.88,0,0,0,4.56,4.91c.24.2,2.18-5.76,2.13-5.61.48-1.51.92-3,1.32-4.55a1.71,1.71,0,0,0,.09-1.29,6.56,6.56,0,0,1-1.68-2.86,5.89,5.89,0,0,0-4-4,84.05,84.05,0,0,1-8.66-9.53l-.22-.27-3,1.18,6.21,7.31a43.85,43.85,0,0,1,5.43-5.64l3.36-2.67a19.77,19.77,0,0,0,2.84-3.59c2.79-3.58,2.82-3.61,5.45-7.43,4.26-6.19,2.56-3.65,7.43-12.74a2.44,2.44,0,0,0-1.42.62c-1.15.72-2.27,1.46-3.39,2.22-1.4.94-2.8,1.9-4.18,2.87a20.57,20.57,0,0,0-2.79,2.13,52.39,52.39,0,0,0-3.58,6.13,39.7,39.7,0,0,0-2.51,6.44c-.51,1.6-1,3.25-1.41,4.88A57.26,57.26,0,0,0,141.64,258a2.55,2.55,0,0,0,1.2-1c1.27-1.5,2.52-3,3.73-4.58s2.44-3.09,3.61-4.66A2.62,2.62,0,0,0,150.92,246.28Z"/><path class="cls-12" d="M151.27,247.78l0-4.49a24.62,24.62,0,0,1,1.27-6.42c1.88-6.42,5.09-10.89,10.28-15.89l-5,2.13a43.08,43.08,0,0,1-9.83,19.8q-4,5.76-8.07,11.46a18.23,18.23,0,0,0-2.59,6.81,16.43,16.43,0,0,0,.44,6.55l1.23,3a12,12,0,0,0,4.77,4.29c.32.21.77-3.86.76-3.73.07-.7.65-3.13,0-3.81a4.07,4.07,0,0,1-1.63-2.12,13.37,13.37,0,0,1-1.28-7.87,18.45,18.45,0,0,1,2.56-6.6c1.6-2.72,3.87-4.86,5.72-7.42l4.52-7.14A147.4,147.4,0,0,0,162.84,221c.41-.8-1.61.21-1.46.14-1.08.49-2.71,1.06-3.5,2a32.17,32.17,0,0,0-5.09,6.85,28.5,28.5,0,0,0-2.73,6.07,29.31,29.31,0,0,0-1.78,6.46,34.59,34.59,0,0,0-.72,8.73c0,.82,1.29-.6,1.27-.58.58-.58,1.15-1.18,1.69-1.8A3,3,0,0,0,151.27,247.78Z"/><path class="cls-12" d="M153,243.86l0-4.44a19,19,0,0,1,3.2-9.93,16.21,16.21,0,0,1,3.94-7.33,24.29,24.29,0,0,1,4.39-4.5l-3.91,2.1a70.07,70.07,0,0,1-18.19,29l-2.92,3.67a13.91,13.91,0,0,0-2.3,8.76,16.07,16.07,0,0,0,1.51,6.41,11.42,11.42,0,0,0,.75,1.58,14.52,14.52,0,0,0,5.2,4.52c.66.44,1.16-1.11.83-1.35l-2.75-2q-6.39-6.86-3.4-14.23a7.34,7.34,0,0,1,2.22-5A52.82,52.82,0,0,1,150,242c.86-1.08,4.57-6.13,5.35-7.3a41.21,41.21,0,0,0,2.73-4.46,72.59,72.59,0,0,0,6.71-12.88c.29-.61-.87,0-1,0a11.26,11.26,0,0,0-2.95,2.06c-3,3.3-5.93,6.73-7.79,10.86a39.55,39.55,0,0,0-2.29,6.59,42.92,42.92,0,0,0-1.19,10.73c0,.86,1.29-.76,1.22-.68.54-.63,1.05-1.28,1.54-1.94A3.14,3.14,0,0,0,153,243.86Z"/><path class="cls-12" d="M151.1,248.63c-.07-6,.64-11.39,3.46-16.66l2.18-3.73a31,31,0,0,1,5.67-6.37l-8.19,3.63a44.83,44.83,0,0,0-6.31,11,19.65,19.65,0,0,0-1.77,5.63c-1.72,5.82-6.54,12.12-7.49,18.55a16.34,16.34,0,0,0,.34,6.64l1.17,3a12.16,12.16,0,0,0,4.62,4.44c.22.16,1.16-5.55,1.14-5.41.21-1.44.38-2.88.52-4.33a1.5,1.5,0,0,0-.14-1.18c-1.52-2.1-1.79-4.63-1.79-7.17a10.51,10.51,0,0,1,.62-4.87,22.71,22.71,0,0,0,.93-6.66l-2.4,4.78c2.37-3.42,5-6.59,7.41-10q2.37-3.33,4.66-6.72a64.69,64.69,0,0,0,6.82-11.62,1.16,1.16,0,0,0-1,.13c-.79.32-1.58.66-2.35,1-1,.43-1.94.89-2.9,1.36a8.76,8.76,0,0,0-1.93,1.1,30.31,30.31,0,0,0-4.76,7.39,54.34,54.34,0,0,0-3.15,8.54A51.27,51.27,0,0,0,145,254.45a1,1,0,0,0,.85-.39c.85-.72,1.67-1.47,2.47-2.24C148.87,251.27,151.11,249.67,151.1,248.63Z"/><path class="cls-12" d="M150.42,247.33a30.38,30.38,0,0,1,.63-8.92l-.1.39,1.29-4.61-.11.39a37.34,37.34,0,0,1,3.87-7.74,32.17,32.17,0,0,1,5.59-6.45l-11.4,7L147,233.29l.2-.28q-4.28,4.4-8.17,9.11a1.77,1.77,0,0,0-.48,1.21,68.87,68.87,0,0,0-1.24,8.47,23.13,23.13,0,0,0,.57,9,21.41,21.41,0,0,0,3.08,6.47,13.36,13.36,0,0,0,4.4,4.69c.24.21,2.47-6.11,2.42-6,.56-1.6,1.08-3.22,1.56-4.84a1.93,1.93,0,0,0,.15-1.37,5.19,5.19,0,0,1-1.37-3.05,33.6,33.6,0,0,1-4-5.21,39.25,39.25,0,0,1-3.34-5.62,6.18,6.18,0,0,0-5.56-5.57l2.9,10.87a23.82,23.82,0,0,1,5-5.46,21.69,21.69,0,0,0,6-6.11,97.84,97.84,0,0,0,7.92-10.8,46.37,46.37,0,0,0,4.72-8.75,2.22,2.22,0,0,0-1.38.51c-1.1.65-2.2,1.31-3.27,2q-2,1.26-4.05,2.57a19.18,19.18,0,0,0-2.7,1.93c-.89,1.37-1.88,2.73-2.65,4.16a44.57,44.57,0,0,0-2.77,6.53,58.81,58.81,0,0,0-2.46,9,64.7,64.7,0,0,0-1,11.22,2.23,2.23,0,0,0,1.15-.93c1.22-1.37,2.4-2.75,3.56-4.16s2.33-2.82,3.44-4.27A2.23,2.23,0,0,0,150.42,247.33Z"/><path class="cls-12" d="M151.67,247.72,153.4,235a26.55,26.55,0,0,1,2.85-5.84A38.66,38.66,0,0,1,163,221l-8.41,4.1a104.25,104.25,0,0,0-6.31,11.79,21.19,21.19,0,0,0-2.06,5.64q-3.16,6.12-5.73,12.52A17.9,17.9,0,0,0,139,260a17,17,0,0,0,.31,6.63l1.14,3a12.18,12.18,0,0,0,4.64,4.23c.26.18.89-4.82.87-4.68.1-.87.84-3.87.13-4.76l-1.39-2.69a13.76,13.76,0,0,1-.12-8.37,57,57,0,0,0,1.44-7.78l-2.08,3.9a36.83,36.83,0,0,1,3.8-5.07,62.47,62.47,0,0,0,6.05-8.21l4.77-7A85.94,85.94,0,0,0,163,221c.55-1-2.56.7-2.31.58-1.34.66-2.66,1.33-4,2a9.59,9.59,0,0,0-2,1.22,30.69,30.69,0,0,0-4.82,7.4,52.81,52.81,0,0,0-3.19,8.54,51.64,51.64,0,0,0-1.51,13.34,1.12,1.12,0,0,0,.89-.45c.89-.8,1.75-1.62,2.59-2.47C149.32,250.59,151.68,248.81,151.67,247.72Z"/><path class="cls-12" d="M154,247.44a27.45,27.45,0,0,1-.34-8.09,24.37,24.37,0,0,1,2.28-6.08c2.23-4.66,5.38-8.1,9.15-11.58l-1.37-.07a149.13,149.13,0,0,1-9,16.84l-5.59,7.78-3.83,3.46c-3.76,3.64-7.54,7.47-8.38,12.84a16.78,16.78,0,0,0,1.31,9.73,6.58,6.58,0,0,0,1.92,2.9c1.93,2.17.91,1.16,4.35,3.47.34.23,1.24-2.08.64-2.49l-6.08-6.63-.85-2.9,0-5.83a25.06,25.06,0,0,1,6-8.82l3.66-3.84a26.6,26.6,0,0,0,4.49-5.53,76,76,0,0,0,5.2-7.63A101,101,0,0,0,165,221.69c.44-.82-1-.53-1.3-.23a51,51,0,0,0-5.81,6.31,33.55,33.55,0,0,0-4.81,9.65c-.85,2.63-.68,1.53-.66,4.1,0,3,0,1.72.64,5.86C153.18,247.88,154,247.94,154,247.44Z"/><path class="cls-12" d="M225.69,238.86c.89,1.21,1,1.38.38.51a3.53,3.53,0,0,0-2.38-1.63l-3.58.22-3.21,2.27a7.57,7.57,0,0,0-3.13,4,7.11,7.11,0,0,0-1,4.22l-.84,2.41A3,3,0,0,0,212,254c.29.68,1.28,2.7,2.14,2.43l.65-.57c.68-.75,1.35-1.5,2-2.28,1.2-1.4,2.46-2.79,3.52-4.3l.46-.73c.32-1.65-.73-.9-3.15,2.27C218.31,250.42,226,239.05,225.69,238.86Z"/><path class="cls-12" d="M227.13,242.37a1.85,1.85,0,0,0-.58-1.19,3.29,3.29,0,0,0-2.35-1.5l-3.43.26-3,2.09a7.77,7.77,0,0,0-2.92,3.72,6.87,6.87,0,0,0-1,3.74c-.85,2-2.52,3.39-1.86,5.78.17.64,1.07,3.08,1.88,2.69l.52-.64c.52-.8,1-1.61,1.5-2.44a50.56,50.56,0,0,0,2.6-4.59l.3-.76q-.28-4,4.08-6.88l-4.45,6.21-.69,1.31c-.22.42-.11.28.23.27l.83-.55c.92-.72,1.83-1.46,2.71-2.22C221.8,247.4,227.48,242.69,227.13,242.37Z"/><path class="cls-12" d="M228.34,237.53a3.82,3.82,0,0,0-3.1-2.81l-3.45.38-4,1.62-3.43,2.1a13.89,13.89,0,0,0-3.43,2.42,24.89,24.89,0,0,0-3.58,5.74c-1.6,3.18-1.09,1.73-1.82,4.53-.59,2.26-.68,1.3-.11,3.17.63,2.07.23,1.13,2,3.4.44.56,1,.11.6-.45q-6.58-8.06,4.91-15.11,2.57-1.14,5.24-2a9.65,9.65,0,0,1,4.58-.78,2.4,2.4,0,0,1,2.49,1.12l.05-.6-.29.77c-.32.84,1.41-.86,1.18-.6C226.62,240,228.49,238.22,228.34,237.53Z"/><path class="cls-12" d="M229.48,242.43a5,5,0,0,0-3.31-2.93l-3.35,0a4.5,4.5,0,0,0-2.41.78,31.65,31.65,0,0,0-8.8,4.66c-2.4,1.78-3.31,2.19-4.81,5.4,1-2.07-1.17,4.35-1.26,6.32a14.34,14.34,0,0,0,.08,3.1c.66,2.27,1.54,3,3.28,4.62.67.65.77-1.06.32-1.41l-2.93-3.1q-1.51-10.17,5.66-14.24a10.44,10.44,0,0,1,9.22-2.48q5.73-4.15,7.44-.3C228.83,243.23,229.63,242.76,229.48,242.43Z"/><path class="cls-12" d="M216.07,251.77q14.15-4,9.45-9.59a3.34,3.34,0,0,0-2.27-1.5l-3.33.13-3,2a10.85,10.85,0,0,0-4.16,7.92l-.78,2.34a3.19,3.19,0,0,0-.19,3.27,3.36,3.36,0,0,0,1,1.9c.19.88.53,1.13,1,.75l.69-.72c.74-.92,1.45-1.85,2.15-2.8,1.28-1.71,2.64-3.41,3.78-5.23l.49-.88q.47-3.81,5-5.66c.29-.38.09-.32-.23-.27l-.86.57c-1,.74-1.92,1.51-2.85,2.3-1.45,1.2-2.89,2.4-4.29,3.65A5.45,5.45,0,0,0,216.07,251.77Z"/><path class="cls-12" d="M216.16,251.86q15.39-5.52,9.59-12.11a5.36,5.36,0,0,0-5.51-.87,15,15,0,0,0-4.41,3.44,7.34,7.34,0,0,0-2.62,4.22,19.4,19.4,0,0,1-1,5.17,3,3,0,0,0,.07,3.15,5.17,5.17,0,0,0,1.81,2.59,1.68,1.68,0,0,0,1-.75,62.72,62.72,0,0,0,4.71-5.57c2.22-2.76,4.14-7.7,6.54-9.52a56.93,56.93,0,0,0-5.16,4.78q-2.1,2-4.13,4.16A2.52,2.52,0,0,0,216.16,251.86Z"/><path class="cls-12" d="M227.22,242.84a3,3,0,0,0-2.55-2.64,10.85,10.85,0,0,0-6.36,1.82c-2,1.42-4,2.8-6,4.13a20,20,0,0,0-4.54,7.2,5.7,5.7,0,0,0,.41,4.92,4.86,4.86,0,0,0,1.93,2c.18.18.62-2.08.65-2.28.12-.91.7-2.73.24-3.6a3,3,0,0,1,.08-3.88l-2.15,2.44,7.34-5.81a31.33,31.33,0,0,1,4.68-1.65c-1.78.53,3.67-1.4,2.32.16-1,1.12.83.16,1.1,0C225,245.1,227.31,243.79,227.22,242.84Z"/><path class="cls-12" d="M229.05,239c-.74-2.89-4-2.74-6.39-2.21a25,25,0,0,0-7.27,3.52,6.76,6.76,0,0,0-3.5,2.39,35.44,35.44,0,0,0-5.37,8.49,18.44,18.44,0,0,0-.63,3.47c.2,2.32,1,3,2.37,4.68.61.75,1.2.33.61-.46q-2.77-10.75,5-15.3c1.66-.72,3.36-1.35,5.08-1.9a8.3,8.3,0,0,1,4.36-.63,2.11,2.11,0,0,1,2.25,1.25l.12-.6-.35.79c-.1.22.12.21.25.25.41.1,1.2-.95,1.46-1.19C227.49,241.1,229.25,239.81,229.05,239Z"/><path class="cls-12" d="M227,243.82c-.75-2.43-3.76-3.15-6-2.11-2.54,1.19-4.6,3.63-6.18,5.85a18.16,18.16,0,0,1-3,4.24,3.91,3.91,0,0,0-1.56,2,10.44,10.44,0,0,0-.67,2.61,5.61,5.61,0,0,0,2.36,3.89c.26.29,1.42-3.09,1.13-2.29a48.7,48.7,0,0,0,1.81-5.64l.24-1.08L213,255l2.74-4.35-5.89,5.77c12.72-8.32,9-3.31,14.16-14.15l-3.7,6.16.17.07.36-.85-.47.76,1.45-1.46-1.32,1.17c-.24.21-.74.6-.43.78s2.21-1.23,2-1.06c1.11-.76,2.21-1.54,3.28-2.34C225.19,245.55,227.14,244.28,227,243.82Z"/><path class="cls-12" d="M216.08,251.87q14.44-4.69,9.56-10.58a3.49,3.49,0,0,0-2.31-1.54l-3.41.14L216.85,242a10.89,10.89,0,0,0-4.19,8.06l-.73,2.36a3.11,3.11,0,0,0-.06,3.22,3.32,3.32,0,0,0,1.08,1.82c.2.82.55,1.06,1,.73l.69-.68c.75-.86,1.47-1.73,2.18-2.62,1.3-1.62,2.67-3.22,3.83-4.94l.5-.83q.6-4,4.9-6.24c.3-.4.08-.34-.24-.26l-.88.65c-1,.83-1.94,1.69-2.88,2.57-1.47,1.34-2.93,2.68-4.35,4.07A6.36,6.36,0,0,0,216.08,251.87Z"/><path class="cls-12" d="M227.6,242.92a2.54,2.54,0,0,0-1-1.58,4.92,4.92,0,0,0-5.22-.5c-2.59,1.23-4.76,3.74-6.4,6a19,19,0,0,1-3,4.19,3.39,3.39,0,0,0-1.51,1.95,6.75,6.75,0,0,0-.64,2.55,5.42,5.42,0,0,0,2.3,3.8c.27.29,1.19-2.74,1-2a32.32,32.32,0,0,0,1.39-5l.16-1.13-.83,1.7,1.44-2.51-4.65,4.79,6.11-5.47-5.44,3.16c8.87-3.83,7.3-1.23,9.95-5.51l-.69.65.19.1,1.29-2.05-1.76,2.17c-.24.3,0,.26.21.28l.66-.34c.71-.48,1.41-1,2.1-1.51C223.63,246.4,228,243.51,227.6,242.92Z"/><path class="cls-12" d="M230,242.76c-2.18-4.39-7.91-2.85-11.43-1.28l-4.46,2.28-4.27,3.08c-.2.21-2.59,3.64-2.74,3.91-.9,1.67-1.57,6.79-.85,9.46.61,2.22,1.67,3,3.33,4.61.64.59.86-.88.4-1.23a5.47,5.47,0,0,1-3.36-5,9.6,9.6,0,0,1,1.19-7.59l6.38-6.56q6.66-5.07,15.09-1.23C229.58,243.66,230.25,243.21,230,242.76Z"/><path class="cls-13" d="M223.33,241.09s2,7-2,11-4,28-4,28-3,19-14,28c0,0-21,33-24,35s-6,15-6,15-21-10-44-6c0,0,5-30,4-38s4-72,9-77,11.5-21.5,21.5-23.5c0,0,5,1-2,7s-11,14-11,17-4,14-1,17,7-17,7-18,9-20,14-22c0,0,18-19,21-18s5,4,2,8-17,13-21,21-6,20-5,23,5-1,8-11,19-35,35-39c0,0,8,3-2,11s-24,28-21,42c0,0,2,5,12-16s26-25,27-26,7,4-2,11-24,34-21,56C203.83,276.59,214.83,234.59,223.33,241.09Z"/><path class="cls-12" d="M284,222.45a38,38,0,0,0,6,4,43.5,43.5,0,0,1,6.37,4.32l-.22-.27,2.11,2.56-.22-.27A79.89,79.89,0,0,1,302.11,244a85.08,85.08,0,0,1,3,11.35c1.57,7.56,2.57,15.19,3.48,22.86.05.43,0,.29.33.12l.43-.8c.41-1,.81-2,1.18-3,.58-1.54,1.16-3.09,1.68-4.65a4.38,4.38,0,0,0,.44-2.12A230.83,230.83,0,0,0,307,244.68a94,94,0,0,0-6.2-15.31,26.4,26.4,0,0,0-4.24-7.5c-3.41-4.34-8.4-6.81-12.16-10.78a1.63,1.63,0,0,0-.35,1.18c-.12,1.49-.21,3-.26,4.48s-.11,3-.11,4.49A1.59,1.59,0,0,0,284,222.45Z"/><path class="cls-12" d="M284.52,224.73a14.35,14.35,0,0,0,3.38,2.51q2,1.22,4,2.3l2.69,1.65a14.45,14.45,0,0,1,4.26,4.2l-.23-.29a78.17,78.17,0,0,1,4,11.15,89.52,89.52,0,0,1,2.92,11.32c1.5,7.54,2.46,15.14,3.33,22.77.16,1.41,1.49-3.26,1.3-2.62.53-1.78,1-3.55,1.51-5.34a14.33,14.33,0,0,0,.61-2.82,237.22,237.22,0,0,0-5.4-23.39A95.68,95.68,0,0,0,301,230.84a26.39,26.39,0,0,0-4.19-7.55c-3.47-4.39-8.6-6.84-12.43-10.85a1.81,1.81,0,0,0-.29,1.29c-.05,1.62-.06,3.24,0,4.86s.05,3.24.13,4.85A1.87,1.87,0,0,0,284.52,224.73Z"/><path class="cls-12" d="M283.49,225.73a14.8,14.8,0,0,0,3.68,1.91c1.42.62,2.87,1.16,4.34,1.65a17.7,17.7,0,0,1,6.8,5.87l2.53,7.42a127.67,127.67,0,0,1,3.56,15.06c1.28,7.5,2.06,15.05,2.76,22.63.08.89,1.14-.37,1.09-.86-.78-7.64-1.64-15.26-3-22.82a124.24,124.24,0,0,0-3.78-15.21,13.8,13.8,0,0,0-3.62-8.66,21.41,21.41,0,0,0-4.73-4.13,7.41,7.41,0,0,0-4.18-1.7,21.3,21.3,0,0,1-5-2C283.34,224.59,283.09,225.49,283.49,225.73Z"/><path class="cls-12" d="M283.41,230.17c.76.59,1.51,1.26,2.32,1.79,3,2,6.44,3.17,9.28,5.41q4.49,3,4.45,9.39a40.1,40.1,0,0,1,4,12.22,236.52,236.52,0,0,1,3.64,26.86c.08.83.9-1.15.81-.88a7.83,7.83,0,0,0,.68-3.07c-1.33-11.62-2.93-23.08-6.32-34.3-1.05-3.49-2.36-8.78-4.36-11.45-3.53-4.71-9.57-6.66-14-10.28-.55-.44-.57.89-.59,1.08C283.32,227.44,282.91,229.78,283.41,230.17Z"/><path class="cls-12" d="M283.94,225.48a13.81,13.81,0,0,0,3.4,2.48c1.32.81,2.68,1.56,4.06,2.27l2.69,1.64a14.45,14.45,0,0,1,4.25,4.21l-.22-.37a135.26,135.26,0,0,1,6.93,22.51c1.5,7.55,2.46,15.15,3.33,22.8.05.43,0,.47.33.1l.46-1.07c.46-1.3.89-2.6,1.3-3.92.64-2,1.27-4,1.85-6.08a6.38,6.38,0,0,0,.5-2.72c-2.73-13.33-5.87-26.62-12.16-38.77-2.53-4.9-4.3-8.26-8.45-11.59-2.69-2.15-5.4-4-7.76-6.49a2.69,2.69,0,0,0-.35,1.56c-.13,2-.22,4-.28,5.92s-.12,4-.13,5.94A2.59,2.59,0,0,0,283.94,225.48Z"/><path class="cls-12" d="M284.15,223.24a14,14,0,0,0,3.35,2.49c1.3.81,2.64,1.57,4,2.28l2.66,1.65a14.57,14.57,0,0,1,4.25,4.21l-.23-.31a132.32,132.32,0,0,1,7.13,22.51c1.56,7.55,2.55,15.17,3.46,22.83.05.47,0,.32.33.11l.43-.9c.42-1.11.82-2.22,1.19-3.34.58-1.72,1.16-3.44,1.69-5.18a5.17,5.17,0,0,0,.43-2.35,194.82,194.82,0,0,0-5.73-23.07l-2.78-7.73a102.06,102.06,0,0,0-7.69-15c-3.48-4.35-8.43-6.95-12.2-11a1.93,1.93,0,0,0-.33,1.33c-.1,1.68-.17,3.36-.19,5s-.06,3.36,0,5A1.94,1.94,0,0,0,284.15,223.24Z"/><path class="cls-12" d="M283.54,227.62a13.76,13.76,0,0,0,3.42,2.46c1.34.79,2.7,1.54,4.1,2.23l2.73,1.64a11.19,11.19,0,0,1,5.49,7.7c5,13.35,6.82,27.46,8.26,41.57.13,1.2,1.33-2.38,1.16-1.87.43-1.29.85-2.6,1.23-3.91a7.92,7.92,0,0,0,.47-2.09c-1.18-7.78-2.49-15.51-4.4-23.16a105.32,105.32,0,0,0-5-15.3,17.58,17.58,0,0,0-4.75-8.57c-3.56-3.85-8.43-6-12.18-9.69a1.09,1.09,0,0,0-.35.92c-.13,1.18-.22,2.37-.28,3.55C283.38,223.72,282.79,227,283.54,227.62Z"/><path class="cls-12" d="M284.41,226.24a15.37,15.37,0,0,0,3.62,2.34q2.1,1.14,4.29,2.12l2.7,1.67a10.61,10.61,0,0,1,5.39,7.78c4.59,13.44,6.31,27.39,7.61,41.47,0,.41.3.34.56.21a3,3,0,0,0,.61-1.68c-1.07-10.24-2.16-20.58-4.81-30.57l-2.2-7.62a12.31,12.31,0,0,0-2.85-7.71A18.33,18.33,0,0,0,295,230a19.62,19.62,0,0,0-5.35-3,22.35,22.35,0,0,1-4.9-2.88C284.07,223.7,284,226,284.41,226.24Z"/><path class="cls-12" d="M284.14,227.59a13.61,13.61,0,0,0,3.41,2.48c1.34.81,2.7,1.56,4.1,2.26l2.71,1.64a14.06,14.06,0,0,1,4.27,4.21l-.22-.31A76.13,76.13,0,0,1,302.33,249a89.41,89.41,0,0,1,2.81,11.31c1.44,7.53,2.34,15.11,3.15,22.73,0,.45.12.48.34.09a15.73,15.73,0,0,0,1-2.83q.78-2.77,1.5-5.56a15.39,15.39,0,0,0,.6-2.93c-1.37-7.86-2.89-15.65-5-23.34A97.43,97.43,0,0,0,301,233.14a34.26,34.26,0,0,0-4.11-7.58c-3.48-4.41-8.69-6.79-12.56-10.79a2,2,0,0,0-.32,1.34c-.09,1.68-.14,3.37-.16,5.06s0,3.38,0,5.07A1.91,1.91,0,0,0,284.14,227.59Z"/><path class="cls-12" d="M283.91,224.3a14.38,14.38,0,0,0,3.37,2.48c1.31.8,2.66,1.56,4,2.27l2.67,1.64a14.45,14.45,0,0,1,4.25,4.21l-.22-.34a133.42,133.42,0,0,1,7,22.53c1.53,7.56,2.51,15.17,3.39,22.83.05.46,0,.39.33.11l.46-1q.67-1.8,1.29-3.63c.63-1.87,1.26-3.75,1.84-5.65a5.83,5.83,0,0,0,.5-2.54c-2.72-13.16-5.77-26.6-12.12-38.57-2.13-4-4-7.8-7.43-10.79-2.94-2.56-6.17-4.57-8.84-7.44a2.26,2.26,0,0,0-.36,1.44c-.14,1.83-.24,3.66-.3,5.48s-.13,3.66-.14,5.49A2.31,2.31,0,0,0,283.91,224.3Z"/><path class="cls-12" d="M284.55,226.57a36.84,36.84,0,0,0,6.08,4,42.25,42.25,0,0,1,6.49,4.31l-.22-.26a17.1,17.1,0,0,1,4.72,9.69,88.28,88.28,0,0,1,3.07,11.28,233,233,0,0,1,4,26.53c.14,1.34,1.34-3,1.16-2.35q.66-2.38,1.24-4.79a11,11,0,0,0,.47-2.53c-1.33-7.86-2.79-15.64-4.88-23.33a98.39,98.39,0,0,0-5.51-15.37,19.66,19.66,0,0,0-4.06-7.55c-3.51-4.41-8.78-6.76-12.71-10.74a1.51,1.51,0,0,0-.28,1.16c0,1.47-.06,2.94,0,4.4s.05,2.93.13,4.4A1.53,1.53,0,0,0,284.55,226.57Z"/><path class="cls-12" d="M284,230.82a31.76,31.76,0,0,0,4.83,3.19,45.85,45.85,0,0,1,6.81,4.06q5,3.47,5.6,10.34a99.23,99.23,0,0,1,2.83,11.36,237.74,237.74,0,0,1,3.56,26.57c.05.56.27.53.58.16a5.88,5.88,0,0,0,.77-2.88c-1.54-14.44-3.36-29.05-8.87-42.59a22.28,22.28,0,0,0-1.64-3.94,13.92,13.92,0,0,0-3.28-3.22c-3.42-2.67-7.4-4.34-10.8-7.09-.54-.43-.53.86-.54,1C283.83,228.32,283.52,230.43,284,230.82Z"/><path class="cls-12" d="M299.93,212.62c7.39,7.72,14.9,15.36,22.21,23.16a69.44,69.44,0,0,1,5.68,7l-.18-.3a14.41,14.41,0,0,1,2.14,4.58,10.49,10.49,0,0,1,.77,4.81c.12,1.41,1.15-3.41,1-2.65q.49-2.62.92-5.26a13.47,13.47,0,0,0,.29-2.76,35,35,0,0,0-5.26-9.92c-1.5-1.93-3.13-3.79-4.73-5.64q-3.74-4.12-7.59-8.13-7.62-8-15-16.25a1.53,1.53,0,0,0-.33,1.18c-.1,1.49-.17,3-.19,4.49s-.06,3,0,4.49A1.66,1.66,0,0,0,299.93,212.62Z"/><path class="cls-12" d="M300.5,214.9c7.42,7.74,14.95,15.39,22.29,23.21a68.13,68.13,0,0,1,5.67,7l-.2-.31a16.23,16.23,0,0,1,2.77,9.32c.07.44.19.45.35,0a15,15,0,0,0,.52-2.9q.36-2.81.65-5.62a15.27,15.27,0,0,0,.16-2.94,33.64,33.64,0,0,0-2.08-5.17,29.34,29.34,0,0,0-3-4.79c-1.49-1.94-3.12-3.81-4.72-5.65q-3.75-4.14-7.63-8.15-7.69-8-15.07-16.32a1.87,1.87,0,0,0-.26,1.3c0,1.62,0,3.23,0,4.85s.1,3.24.2,4.86A1.79,1.79,0,0,0,300.5,214.9Z"/><path class="cls-12" d="M299.42,215.83a191.46,191.46,0,0,1,16.1,15.36q5.25,5.19,10.07,10.78l2,2.89a13.83,13.83,0,0,1,2.15,9.28c0,.3.43.24.58.14s.31-.91.31-1.19a20.59,20.59,0,0,0-.45-4.84,20.13,20.13,0,0,0-3.9-7.49c-.77-1-1.67-2-2.5-2.9q-3.84-4.14-7.82-8.15A122,122,0,0,0,300,215.11C299.56,214.69,299.05,215.49,299.42,215.83Z"/><path class="cls-12" d="M299.43,220.34q7.94,8.06,15.79,16.18,4,4,7.82,8.14c3.81,4.34,6.54,8.08,6.62,14.59,0,.71.34.54.59.1a8.42,8.42,0,0,0,.58-3.66,31.29,31.29,0,0,0-.45-3.74,21.7,21.7,0,0,0-3.83-7.67,62.35,62.35,0,0,0-4.63-5.5c-7.18-7.72-14.68-15.18-22-22.75-.51-.53-.56,1-.57,1.09C299.3,217.73,298.92,219.82,299.43,220.34Z"/><path class="cls-12" d="M299.92,215.65q7.88,8.19,15.77,16.37,3.94,4,7.79,8.14l2.36,2.78a25,25,0,0,1,3.64,5.92l-.17-.4a13.51,13.51,0,0,1,1.14,6.33c0,.48.16.4.35.05l.29-1.15c.25-1.37.48-2.74.67-4.12.33-2.12.64-4.25.9-6.38a6.61,6.61,0,0,0,.07-2.8,23.16,23.16,0,0,0-3.12-6.61,41.13,41.13,0,0,0-4.5-5.93q-2.3-2.79-4.77-5.42-10.29-10.69-20.12-21.79a2.65,2.65,0,0,0-.33,1.57c-.1,2-.17,3.95-.19,5.93s-.07,4,0,5.93A2.59,2.59,0,0,0,299.92,215.65Z"/><path class="cls-12" d="M300.12,213.41c7.41,7.73,14.92,15.37,22.24,23.18a68.22,68.22,0,0,1,5.68,7l-.18-.33,1.79,3.36-.18-.34a13.89,13.89,0,0,1,1.26,6.35c0,.49.14.25.34,0l.27-1c.22-1.17.42-2.34.59-3.51.28-1.82.55-3.63.76-5.45a5.26,5.26,0,0,0,0-2.4c-.42-1.12-.77-2.3-1.29-3.38a37.93,37.93,0,0,0-5.12-7.66c-1.56-1.87-3.13-3.73-4.77-5.53-7.06-7.75-14.28-15.34-21.33-23.1a1.92,1.92,0,0,0-.3,1.33c-.08,1.68-.11,3.36-.11,5s0,3.36,0,5.05A2,2,0,0,0,300.12,213.41Z"/><path class="cls-12" d="M299.54,217.79q7.88,8.16,15.77,16.3,4,4,7.81,8.14l4.21,5.43a15.34,15.34,0,0,1,2.56,9.34c.05,1.2,1-2.68.9-2.05.26-1.37.5-2.74.71-4.12a8.43,8.43,0,0,0,.19-2.18l-.81-3.38a18,18,0,0,0-2.37-4.72,31.93,31.93,0,0,0-3.22-4.41c-.83-1-1.67-2-2.53-3Q319,229,315.08,225q-7.75-8-15.16-16.23a1.11,1.11,0,0,0-.34.93c-.11,1.18-.19,2.36-.23,3.55C299.32,214.09,298.79,217,299.54,217.79Z"/><path class="cls-12" d="M300.44,216.41q8.1,7.92,15.92,16.1,4,4,7.83,8.17l2.37,2.78a15.54,15.54,0,0,1,4,12c0,.46.43.22.59.09.33-.26.31-1.43.3-1.82a21.11,21.11,0,0,0-.52-4.89,17.22,17.22,0,0,0-2.1-4.82,39.52,39.52,0,0,0-4.37-5.68c-7.44-8.41-15.72-16.21-23.73-24C300.23,213.82,300.06,216,300.44,216.41Z"/><path class="cls-12" d="M300.13,217.77c7.44,7.71,15,15.34,22.32,23.15a65.39,65.39,0,0,1,5.65,7l-.19-.33a15.64,15.64,0,0,1,2.62,9.31c.06.45.18.47.35,0a16.24,16.24,0,0,0,.56-3q.4-2.92.73-5.86a16.46,16.46,0,0,0,.2-3.06,31.07,31.07,0,0,0-1.94-5.19A25.74,25.74,0,0,0,327.5,235c-1.48-1.94-3.1-3.81-4.69-5.65q-3.74-4.16-7.63-8.14-7.68-8-15-16.27a2,2,0,0,0-.3,1.35c-.07,1.69-.11,3.38-.1,5.07s0,3.38.06,5.07A2,2,0,0,0,300.13,217.77Z"/><path class="cls-12" d="M299.89,214.47q7.85,8.19,15.73,16.36,3.94,4,7.79,8.14l2.35,2.78a25.13,25.13,0,0,1,3.67,5.92l-.17-.37a13.87,13.87,0,0,1,1.2,6.35c0,.5.13.33.34,0l.3-1.06c.25-1.27.47-2.54.67-3.82.32-2,.63-3.94.89-5.92a5.9,5.9,0,0,0,.08-2.61c-.43-1.12-.78-2.31-1.3-3.39a37.42,37.42,0,0,0-5.13-7.68c-1.56-1.87-3.12-3.73-4.76-5.53-7.06-7.75-14.28-15.33-21.32-23.1a2.25,2.25,0,0,0-.33,1.45c-.11,1.82-.18,3.65-.22,5.48s-.07,3.65-.06,5.48A2.32,2.32,0,0,0,299.89,214.47Z"/><path class="cls-12" d="M300.54,216.74q10.5,10.94,21,21.81a71.72,71.72,0,0,1,4.86,5.44l-.21-.28,2.26,3.16-.2-.28A15.74,15.74,0,0,1,331,255.9c.07.39.19.4.35,0a12.32,12.32,0,0,0,.46-2.61c.21-1.69.4-3.38.55-5.07a12.39,12.39,0,0,0,.11-2.65,26.67,26.67,0,0,0-2.67-6.77c-.64-1.07-1.36-2.18-2.1-3.18-1.44-2-3.08-3.82-4.67-5.65q-3.74-4.15-7.65-8.14-7.69-8-15.06-16.26a1.59,1.59,0,0,0-.27,1.17q0,2.21,0,4.41c0,1.46.09,2.93.18,4.39A1.56,1.56,0,0,0,300.54,216.74Z"/><path class="cls-12" d="M300,221q7.92,8.08,15.8,16.22,4,4,7.84,8.16c3.87,4.39,6.47,8.07,6.55,14.69,0,.69.38.43.59.08a7,7,0,0,0,.44-3.25,25.21,25.21,0,0,0-1.28-6.71,20.84,20.84,0,0,0-2.86-4.86,57.37,57.37,0,0,0-4.67-5.55c-7.24-7.71-14.73-15.22-22.07-22.83-.5-.53-.52,1-.53,1C299.82,218.6,299.54,220.48,300,221Z"/><path class="cls-12" d="M317.84,209.88c7.22,7.79,14.36,15.45,19.84,24.58l-.17-.3a46.24,46.24,0,0,1,3.35,8.74,87,87,0,0,1,1.95,10.38c.21,1.36,1.41-3.13,1.24-2.55q.75-2.58,1.41-5.18a13.46,13.46,0,0,0,.56-2.74c-1.32-5.05-1.36-5.86-3.47-10.66-1.05-2.39-2.29-4.7-3.5-7a32.29,32.29,0,0,0-3.6-5.75c-5.41-7.31-11.52-14.07-17.56-20.86a1.6,1.6,0,0,0-.31,1.19c-.07,1.5-.1,3-.1,4.49s0,3,.06,4.49A1.59,1.59,0,0,0,317.84,209.88Z"/><path class="cls-12" d="M318.42,212.17c6.26,6.75,12.44,13.44,17.71,21l-.2-.31,2.35,3.91-.19-.32a42.56,42.56,0,0,1,3.27,8.71,90.65,90.65,0,0,1,1.85,10.34c.22,1.43,1.25-3.48,1.1-2.77.39-1.83.76-3.68,1.1-5.52a15.1,15.1,0,0,0,.4-2.91,64.69,64.69,0,0,0-3.37-10.84,76.61,76.61,0,0,0-4.29-8.72c-.81-1.33-1.73-2.65-2.63-3.93q-3-4.11-6.37-8-5.38-6.69-11.25-13a1.85,1.85,0,0,0-.24,1.31q0,2.43.12,4.86c.06,1.62.16,3.24.29,4.85A1.84,1.84,0,0,0,318.42,212.17Z"/><path class="cls-12" d="M317.42,213.1c7.68,7,16.31,15.35,20.65,25.32,2.36,5.42,2.84,11.29,3.62,17.1.11.87,1.09-.46,1-1-.52-3.47-.89-7-1.65-10.44a36.14,36.14,0,0,0-4.16-10.6,76.31,76.31,0,0,0-7.13-9.8c-5.89-7.2-2.43-3.48-11.73-11.36C317.54,212,317.05,212.76,317.42,213.1Z"/><path class="cls-12" d="M317.4,217.61c5.81,6.1,11.71,12.06,16.48,19.06,5.23,7.69,6.35,13,7.75,24.33.1.85.84-1.3.75-1a8.52,8.52,0,0,0,.51-3.27c-.81-5.26-1.59-10.67-3.67-15.62a48.31,48.31,0,0,0-3.86-7.24,60.66,60.66,0,0,0-6.15-8,134.75,134.75,0,0,0-11.38-12.62c-.52-.55-.55,1.06-.56,1.09C317.23,215,316.89,217.07,317.4,217.61Z"/><path class="cls-12" d="M317.84,212.91c5.78,6.2,11.66,12.28,16.52,19.26a53,53,0,0,1,5,9.1l-.16-.4a36.83,36.83,0,0,1,2.11,7.55,72.64,72.64,0,0,1,1.31,7.76c.07.45.09.47.34.08l.38-1.12c.36-1.34.7-2.69,1-4,.5-2.08,1-4.17,1.4-6.27a6.79,6.79,0,0,0,.31-2.79,47.59,47.59,0,0,0-3.58-10.7q-2.21-4.49-4.55-8.89a82.2,82.2,0,0,0-5.12-7.05q-7.17-9-14.93-17.48a2.49,2.49,0,0,0-.3,1.57c-.07,2-.11,4-.1,5.93s0,4,.06,5.93A2.56,2.56,0,0,0,317.84,212.91Z"/><path class="cls-12" d="M318,210.68c7.23,7.79,14.38,15.44,19.86,24.58l-.17-.34a45.66,45.66,0,0,1,3.33,8.73A91.38,91.38,0,0,1,343,254c.07.44.09.35.35.09l.35-1c.33-1.15.63-2.3.9-3.46.45-1.78.88-3.56,1.26-5.35a5.57,5.57,0,0,0,.24-2.39,69.82,69.82,0,0,0-2.44-7.8,62.38,62.38,0,0,0-3.75-8,60.58,60.58,0,0,0-4.44-7.31c-5.26-7.37-11.59-14.15-17.58-20.9a2,2,0,0,0-.28,1.34c0,1.69,0,3.37,0,5.05s.06,3.36.15,5A1.92,1.92,0,0,0,318,210.68Z"/><path class="cls-12" d="M317.49,215.05c7.47,8,16,16,20.44,26.16,2.39,5.52,3.21,11.25,4,17.17.16,1.22,1.17-2.57,1-2,.35-1.36.67-2.72,1-4.08a8.83,8.83,0,0,0,.33-2.16l-1-5.19a45.64,45.64,0,0,0-2.74-8,49.81,49.81,0,0,0-5.12-9.85c-5.25-7.52-11.6-14.28-17.69-21.08a1.08,1.08,0,0,0-.32.93c-.1,1.18-.15,2.37-.17,3.55C317.2,211.41,316.73,214.25,317.49,215.05Z"/><path class="cls-12" d="M318.42,213.68a76.26,76.26,0,0,1,13.82,16.16,31.77,31.77,0,0,1,7.5,11.78c1.62,4.93,2.12,10.12,2.8,15.23.06.42.33.32.57.17a3.08,3.08,0,0,0,.51-1.76c-.55-3.49-.95-7.06-1.73-10.51a36.63,36.63,0,0,0-4.24-10.65c-1-1.7-1.27-2.11-2.39-3.74a47.93,47.93,0,0,0-4.9-6.3,82.87,82.87,0,0,0-11.7-12.5C318.18,211.08,318,213.29,318.42,213.68Z"/><path class="cls-12" d="M318.07,215a179.34,179.34,0,0,1,15.31,17.51,59,59,0,0,1,4.51,7.05l-.18-.34a41.41,41.41,0,0,1,3.18,8.7,92.41,92.41,0,0,1,1.73,10.31c0,.46.15.48.35.07a16.7,16.7,0,0,0,.76-3q.6-2.88,1.13-5.77a16.14,16.14,0,0,0,.41-3c-1.11-5-1.15-5.91-3.07-10.67-1-2.39-2.15-4.71-3.29-7a29.86,29.86,0,0,0-3.49-5.81c-5.31-7.37-11.49-14.09-17.5-20.88a2,2,0,0,0-.29,1.35c0,1.69-.05,3.38,0,5.07s.06,3.38.14,5.07A2,2,0,0,0,318.07,215Z"/><path class="cls-12" d="M317.8,211.73a184.64,184.64,0,0,1,15.3,17.53,59,59,0,0,1,4.56,7.06l-.17-.37,1.84,4.13-.16-.37a36.37,36.37,0,0,1,2.17,7.57,68.34,68.34,0,0,1,1.33,7.78c.07.46.07.38.34.08l.39-1c.35-1.25.68-2.5,1-3.76.49-1.94,1-3.88,1.39-5.83a5.85,5.85,0,0,0,.3-2.59,47.34,47.34,0,0,0-3.58-10.69q-2.22-4.47-4.56-8.88a78.6,78.6,0,0,0-5.13-7q-7.15-9-14.92-17.47a2.28,2.28,0,0,0-.3,1.46c-.08,1.82-.12,3.65-.12,5.48s0,3.66,0,5.48A2.28,2.28,0,0,0,317.8,211.73Z"/><path class="cls-12" d="M318.48,214a179.19,179.19,0,0,1,15.29,17.5l-.19-.28,2.58,3.72-.2-.29a45.43,45.43,0,0,1,4.56,9.82A78.2,78.2,0,0,1,343,257.27c.19,1.36,1.14-3.18,1-2.49.33-1.65.63-3.31.91-5a12.16,12.16,0,0,0,.29-2.62l-1.14-5.25a46.16,46.16,0,0,0-3-8,63.42,63.42,0,0,0-3.18-6.59c-.72-1.22-1.57-2.44-2.38-3.61a98.64,98.64,0,0,0-6.32-8q-5.37-6.66-11.21-12.91a1.57,1.57,0,0,0-.25,1.18c0,1.47,0,2.94.1,4.41s.14,2.93.26,4.4A1.51,1.51,0,0,0,318.48,214Z"/><path class="cls-12" d="M318,218.26c6.73,7.11,13.75,14.11,18.69,22.64,3.74,6.45,4.54,13.4,5.47,20.59.07.59.29.53.58.12a6.38,6.38,0,0,0,.64-3.14c-.85-5.37-1.47-11-3.51-16.11a46.53,46.53,0,0,0-4-7.48,58.48,58.48,0,0,0-6.14-8,138.64,138.64,0,0,0-11.4-12.7c-.51-.54-.52,1-.52,1C317.75,215.89,317.5,217.73,318,218.26Z"/><path class="cls-12" d="M345.1,225l3.31,2.08-.28-.22a25.34,25.34,0,0,1,5.11,5.53,43.78,43.78,0,0,1,3.6,6.63c2.67,5.84,4.28,12.05,5.94,18.23.36,1.34,1-3.27.92-2.65.27-1.75.52-3.51.75-5.26a14.26,14.26,0,0,0,.21-2.76c-2.65-7.06-5.78-13.88-10.39-19.91a51.32,51.32,0,0,0-6.77-7.59,45.8,45.8,0,0,0-6.51-4.75,1.66,1.66,0,0,0,.15,1.23c.48,1.43,1,2.84,1.55,4.24s1.1,2.81,1.7,4.19A1.62,1.62,0,0,0,345.1,225Z"/><path class="cls-12" d="M346,227.27l3.32,2.09-.29-.25a24.94,24.94,0,0,1,5.06,5.55,40.3,40.3,0,0,1,3.49,6.63c2.57,5.85,4.1,12,5.71,18.2.37,1.41.86-3.6.78-2.87q.29-2.81.48-5.61a15.09,15.09,0,0,0,.07-2.93c-2.78-7.7-6.09-15.22-11.19-21.69a51.42,51.42,0,0,0-5.42-6,43.14,43.14,0,0,0-6.52-4.83,1.92,1.92,0,0,0,.2,1.34q.79,2.34,1.71,4.65t1.85,4.6A1.91,1.91,0,0,0,346,227.27Z"/><path class="cls-12" d="M346.38,228l3,1.54q5.8,3.76,6.47,11.4a36.07,36.07,0,0,1,4.53,11.71q.78,3.5,1.68,7c.21.82,1-.54.87-1-1.95-7.29-3.41-14.87-6.71-21.71a31.49,31.49,0,0,0-2-3.65L352,230.09a14.16,14.16,0,0,0-5.35-3C346,226.8,345.93,227.76,346.38,228Z"/><path class="cls-12" d="M345.84,232.58a18,18,0,0,1,5.86,4.51,38.13,38.13,0,0,1,6,11.58,162.77,162.77,0,0,1,4.32,16.4c.19.82.71-1.33.66-1a8.39,8.39,0,0,0,.19-3.23c-1.66-6.13-3.18-12.34-5.78-18.16a34.81,34.81,0,0,0-2.81-5.24,23.92,23.92,0,0,0-3.47-4.55,19.89,19.89,0,0,0-5.68-4.29c-.62-.39-.25,1.12-.24,1.14C345,230.32,345.22,232.19,345.84,232.58Z"/><path class="cls-12" d="M345.41,227.9a19.72,19.72,0,0,1,6.07,4.69l-.28-.32a28.1,28.1,0,0,1,4.2,6.22,53,53,0,0,1,2.48,5.62,137.09,137.09,0,0,1,4.83,16c.11.43.13.45.35,0l.26-1.15c.21-1.36.4-2.73.56-4.11.26-2.11.52-4.23.72-6.35a6.52,6.52,0,0,0,0-2.78c-2.69-7.1-5.93-13.94-10.64-19.94a58.85,58.85,0,0,0-5.4-6.18,29.87,29.87,0,0,0-3-2.66,20.74,20.74,0,0,0-4.75-3.31,2.56,2.56,0,0,0,.2,1.58c.54,1.89,1.11,3.76,1.72,5.63s1.22,3.74,1.88,5.59A2.52,2.52,0,0,0,345.41,227.9Z"/><path class="cls-12" d="M345.37,225.78l3.31,2.08-.28-.25a25.24,25.24,0,0,1,5.09,5.53,43.52,43.52,0,0,1,3.57,6.62c2.65,5.85,4.25,12.05,5.9,18.23.07.45.18.46.35,0a15.52,15.52,0,0,0,.54-3q.39-2.92.7-5.87a15.78,15.78,0,0,0,.18-3.07,79.52,79.52,0,0,0-9.39-18.41,64.62,64.62,0,0,0-5.35-6.54,46.11,46.11,0,0,0-9.21-7.36,2,2,0,0,0,.2,1.37q.82,2.41,1.74,4.78t1.89,4.73A2,2,0,0,0,345.37,225.78Z"/><path class="cls-12" d="M345.5,230a20.76,20.76,0,0,1,8,7.39,37.3,37.3,0,0,1,3.34,6.69c2.42,5.9,3.81,12.1,5.31,18.27.29,1.18.9-2.63.81-2.06.21-1.36.39-2.73.54-4.1a8.18,8.18,0,0,0,.11-2.15c-2.25-7.5-4.81-15.2-9.31-21.7a45.89,45.89,0,0,0-5-6c-2.46-2.5-3.24-2.81-6.17-4.7a1,1,0,0,0,0,1c.25,1.12.53,2.24.85,3.34C344.2,226.81,344.54,229.44,345.5,230Z"/><path class="cls-12" d="M347,228.55a17.92,17.92,0,0,1,7.87,7.36,44.59,44.59,0,0,1,3.87,9c1.76,5.26,2.86,10.69,4.19,16.07.1.41.38.27.59.09a3,3,0,0,0,.27-1.78c-2-7.35-3.49-15.25-7.07-22.06a34.72,34.72,0,0,0-4.19-6.44c-1.81-2.09-3.8-3-6.12-4.4-.48-.28-.26.7-.25.74A2.54,2.54,0,0,0,347,228.55Z"/><path class="cls-12" d="M345.92,230a19.19,19.19,0,0,1,6,4.67l-.26-.27a28.18,28.18,0,0,1,4.12,6.23,55.33,55.33,0,0,1,2.38,5.62,139,139,0,0,1,4.61,16c.07.44.19.46.35,0a16.1,16.1,0,0,0,.46-3c.21-2,.4-3.89.56-5.84a16.28,16.28,0,0,0,.1-3c-2.79-8.4-6.28-16.33-11.77-23.33a33.11,33.11,0,0,0-4-4.44,36.79,36.79,0,0,0-6.31-4.83,1.89,1.89,0,0,0,.11,1.36c.43,1.63.91,3.24,1.41,4.84s1,3.21,1.57,4.79A2,2,0,0,0,345.92,230Z"/><path class="cls-12" d="M345.24,226.76a19.81,19.81,0,0,1,6.07,4.68l-.28-.29a28.32,28.32,0,0,1,4.24,6.21,52.22,52.22,0,0,1,2.52,5.61,131.39,131.39,0,0,1,4.91,16c.12.46.11.37.35.05l.26-1.06c.22-1.27.4-2.54.57-3.82.26-2,.52-3.93.72-5.9a6,6,0,0,0,0-2.59,77.63,77.63,0,0,0-9.38-18.25A61,61,0,0,0,350,221l-2.93-2.82a28.27,28.27,0,0,0-6.25-4.55,2.28,2.28,0,0,0,.19,1.47q.78,2.63,1.67,5.2t1.82,5.15A2.2,2.2,0,0,0,345.24,226.76Z"/><path class="cls-12" d="M346.3,229l3.29,2.07-.27-.22a23.51,23.51,0,0,1,5,5.54,38.63,38.63,0,0,1,3.41,6.65c2.47,5.87,3.93,12.06,5.47,18.22.34,1.33.8-3.29.73-2.59.16-1.68.28-3.37.38-5a11.65,11.65,0,0,0,0-2.64c-2.5-7.64-5.46-15.28-10.29-21.79a50.22,50.22,0,0,0-5.23-6.05,28.37,28.37,0,0,0-6.33-4.79,1.63,1.63,0,0,0,.12,1.22q.68,2.13,1.44,4.23c.5,1.41,1,2.8,1.59,4.18A1.57,1.57,0,0,0,346.3,229Z"/><path class="cls-12" d="M346.48,233.2a20.17,20.17,0,0,1,9.66,10.54,54,54,0,0,1,2.17,5.68c1.82,5.26,2.93,10.72,4.23,16.13.19.78.52.27.66-.26a7,7,0,0,0,.19-3.17c-1.26-4.59-2.31-9.35-3.92-13.83a52.06,52.06,0,0,0-3.49-8.2,35.76,35.76,0,0,0-2.16-3.42l-2.42-3a20,20,0,0,0-5.71-4.39c-.62-.39-.22,1.12-.22,1.12C345.61,231.05,345.85,232.81,346.48,233.2Z"/><path class="cls-12" d="M289.75,261.14c-2.93,1.95-3.56,2.73-1.88,2.36a3.33,3.33,0,0,0,2.35-1.22l1.43-2.9-.36-3.39a7,7,0,0,0-1.81-4.39,7.58,7.58,0,0,0-2.9-2.83L285,246.36a3.16,3.16,0,0,0-2.92-1.93,3.12,3.12,0,0,0-2.21.06c-.88-.21-1.27,0-1.16.6l.33.95c.48,1.08,1,2.15,1.52,3.21.94,1.94,1.84,3.94,2.94,5.8,1.28,2.16,5.38,6,5.78,6.44a1.64,1.64,0,0,0,1,.79A1.58,1.58,0,0,0,289.75,261.14Z"/><path class="cls-12" d="M287.41,265.75a1.9,1.9,0,0,0,1.33.05,3.31,3.31,0,0,0,2.45-1.34l1.39-3.14-.47-3.63a7.75,7.75,0,0,0-1.94-4.36,7.09,7.09,0,0,0-2.86-2.7c-1.41-1.72-1.82-3.92-4.35-4.35-.67-.11-3.16-.34-3.23.57l.29.75c.42.85.87,1.69,1.34,2.51a49.27,49.27,0,0,0,2.62,4.5c.43.62,1.87,1.8.09-.56-.29-.37-.22-.2-.34.1l.17,1c.29,1.12.6,2.24.94,3.35C285,258.92,286.87,265.93,287.41,265.75Z"/><path class="cls-12" d="M287.64,266.6a4.12,4.12,0,0,0,3.07-.85c1.34-.91.87-.54,1.78-2.3a5.92,5.92,0,0,0,1.09-4,21.17,21.17,0,0,0,.05-7.32l-1-5-2.17-3.74a59.9,59.9,0,0,0-4.47-4.23,8.14,8.14,0,0,0-2.75-1.66,3.25,3.25,0,0,0-1.42-.16,4.89,4.89,0,0,0-4.07.83c-.65.23,1.26,1.47,1.79,1.24q3.27-2.29,6,2,7.41,2.9,6.74,11.68l.16,4.44q.68,5.64-4.73,8.07C287.09,265.61,287.16,266.55,287.64,266.6Z"/><path class="cls-12" d="M287.27,271.19a3.28,3.28,0,0,0,3-.83c1.93-1.46,2.5-3.88,2.81-6.18a21.35,21.35,0,0,0,.26-6.13l-.46-4.49-1.67-4a9.7,9.7,0,0,0-2.34-2.7c-2-2.31-2.84-3.36-5.77-4.37-2.47-.86-2.95-.41-5.4.35-.47.14-.3.88.17.73q9.15-4.14,14.21,10a15.53,15.53,0,0,1-.79,8.19,5.61,5.61,0,0,1-2.33,5,2.13,2.13,0,0,1-2.33.23c-.7-.32-.26,1.41-.22,1.64C286.47,269.13,286.58,271,287.27,271.19Z"/><path class="cls-12" d="M283.32,251.89q-3.13,16.38,4.89,14.52a3.46,3.46,0,0,0,2.46-1.44l1.42-3.24-.47-3.84a7.73,7.73,0,0,0-2.06-4.62,7.28,7.28,0,0,0-3.3-2.92c-1.45-1.15-2.7-2.74-4.61-2.94-.76-.08-3-.22-3.18.68l.27.89c.41,1,.84,2,1.3,3,.81,1.82,1.58,3.68,2.55,5.42l.5.78c2.4,1.65,3.57,4.28,3.49,7.9.21.44.3.32.34-.08l-.15-1.17c-.28-1.36-.59-2.72-.92-4.07-.49-2.08-1-4.16-1.55-6.23C284.12,253.86,283.92,252.41,283.32,251.89Z"/><path class="cls-12" d="M283.52,252.2q-2.2,13.5,4.63,12.09a3.42,3.42,0,0,0,2.4-1.27l1.46-3-.38-3.55a7.07,7.07,0,0,0-1.9-4.5,7.57,7.57,0,0,0-3.13-2.88l-1.68-2a3.07,3.07,0,0,0-2.87-1.68,3.27,3.27,0,0,0-2.16.1q-1.26-.3-1.14.6l.29,1q.66,1.63,1.38,3.24c.86,2,1.68,4,2.7,5.87l.52.86c2,1.5,3,3.8,2.95,6.88.24.4.35.36.34-.1a17.49,17.49,0,0,0-.69-3c-.54-1.91-1.09-3.82-1.68-5.73A16.12,16.12,0,0,0,283.52,252.2Z"/><path class="cls-12" d="M286.83,268.57c2.88.6,4.59-2.15,4.78-4.78l-.19-3.61a52.64,52.64,0,0,1-1.33-6.47c-.77-1.67-1.54-3.33-2.32-5a5,5,0,0,0-1.18-2.36,7.37,7.37,0,0,0-2.1-1.88,5.38,5.38,0,0,0-4.7,0c-.61.15.37.68.48.74a9.32,9.32,0,0,0,3,1.19l3,1.11-1.66-2,2.27,3.69-.64-2.48a18.58,18.58,0,0,1,.17,10.82,2.55,2.55,0,0,0-.13,2.14c0,.12-.67,1.18-.9.92l.76,1.95-.57-1.77c-.1-.3-.25-.93-.55-.71s.25,2.56.19,2.25c.25,1.34.53,2.68.83,4C286,266.26,286.34,268.47,286.83,268.57Z"/><path class="cls-12" d="M288.22,267.11a4.06,4.06,0,0,0,4.06-1.15,12.09,12.09,0,0,0,1.82-3.26l.59-4.33a22.43,22.43,0,0,0-.67-6.88,7,7,0,0,0-1.56-4.19,10,10,0,0,0-1.18-2,41.84,41.84,0,0,0-4.55-4.67,7.66,7.66,0,0,0-2.59-1.68c-2.18-.6-3.05-.24-5.24.44-1,.3.82,1.15,1.28,1l10.43,6.14a12.12,12.12,0,0,1,1.9,6.28,15.11,15.11,0,0,1,.24,4.24q.5,5-4.92,7.82C287.1,264.66,287.71,267,288.22,267.11Z"/><path class="cls-12" d="M287.29,268.52a2.74,2.74,0,0,0,2-.12,5.44,5.44,0,0,0,3.09-4.86l-.6-3.74a14.07,14.07,0,0,0-2.66-5.17,5.92,5.92,0,0,1-2.38-3.59,4.52,4.52,0,0,0-.83-2c-1.57-2.37-3.36-2.2-5.9-1.64-.37.08,2.27,3,2.18,2.93.65.71,1.31,1.4,2,2.06a.81.81,0,0,0,.74.36l.2,1.51L284,248.14l.83,7.88.25-3.41-.52,4.11.94.91-.89-1.28c-.25-.37-.23-.26-.34.08l.12,1c.23,1.17.48,2.33.76,3.49C285.2,261.35,286.9,268.68,287.29,268.52Z"/><path class="cls-12" d="M283.29,251.84q-2.75,15.07,4.74,13.42a3.42,3.42,0,0,0,2.42-1.34l1.44-3.09-.42-3.68a10.94,10.94,0,0,0-5.21-7.44L284.5,248a3.11,3.11,0,0,0-2.81-1.55,3.49,3.49,0,0,0-2.12.09c-.82-.21-1.2,0-1.12.58l.28.93c.43,1.05.89,2.1,1.36,3.14.85,1.9,1.65,3.85,2.67,5.67l.51.83q3.25,2.32,3.17,7.24c.21.46.26.24.34-.08l-.15-1.09c-.26-1.26-.56-2.51-.88-3.76-.48-1.92-1-3.84-1.51-5.75A6,6,0,0,0,283.29,251.84Z"/><path class="cls-12" d="M287.67,267.54a2.68,2.68,0,0,0,1.95-.08,5.13,5.13,0,0,0,3.08-4.64l-.56-3.56a21.11,21.11,0,0,0-2.37-5.26,9.52,9.52,0,0,1-2.36-4.1,4.47,4.47,0,0,0-.91-2.11c-1.68-2.34-3.56-2.07-6.07-1.37-.38.11,1.41,2.07,1,1.63a38.43,38.43,0,0,0,3.05,3.2l.83.74-.89-1.43,1.31,2.47-1.12-5,.92,6.64.38-5.06-1.05,7.66.92.74-.94-1.14c-.27-.33-.21-.2-.34.09l.12.89c.24,1,.5,2,.79,3.05C285.54,261.33,287.19,267.72,287.67,267.54Z"/><path class="cls-12" d="M287.9,271.81c1.64.35,2.86-.44,4-1.55a12.83,12.83,0,0,0,2.18-7.83,30.76,30.76,0,0,0-.32-6.29,4.76,4.76,0,0,0-.32-2.41,11.32,11.32,0,0,0-4.15-6.66,10.41,10.41,0,0,0-5.67-4.25,6.82,6.82,0,0,0-5.73.58c-.27.09-.09.82.17.73,1.59-.54,3.21-1.24,4.94-.95l3.18,1.57a11.22,11.22,0,0,1,5.85,9.46,8.86,8.86,0,0,1,.1,8,4.89,4.89,0,0,1-1.65,4.49c-.94,1-1.91,1.67-3.35,1.09-.71-.28-.25,1.35-.2,1.6C287.07,269.88,287.21,271.66,287.9,271.81Z"/><path class="cls-14" d="M113.09,346.86s33-10,80,20c0,0-32,34-26,51l-71,2S119.09,375.86,113.09,346.86Z"/><g class="cls-15"><path class="cls-12" d="M335.46,337.53l-.25-3L334,331.22c-1.31-2.94-3.78-5.47-6.09-7.66-4.78-4.52-10.66-7.49-15.72-11.64a27.59,27.59,0,0,1-5.4-5.5c-1.58-2.28-2.58-4.93-3.93-7.34-2.14-3.85-4.88-7.31-7-11.18a24.88,24.88,0,0,1-2.48-5.24,38.21,38.21,0,0,1-2.58-8.1l.09.43a53.3,53.3,0,0,1-1.25-11,49.91,49.91,0,0,1,1.1-10.9c.27-1.69-2.36,4-2,3.13q-1.47,3.21-2.86,6.45a22.52,22.52,0,0,0-1.31,3.42,70.07,70.07,0,0,0,.43,11.69,66.41,66.41,0,0,0,2.85,12.05A69.1,69.1,0,0,0,295.8,306c1.58,2.12,3.12,4.27,4.64,6.43q2.07,3,4.18,5.87l2.83,3.61a17.83,17.83,0,0,0,4.72,5.22l2.95,2.44q2.88,2.4,5.55,5l.86,1.78a9.52,9.52,0,0,1,1.74,3c.49,1.12,1,2.26,1.43,3.39a9.91,9.91,0,0,1,.2,5.07,2.5,2.5,0,0,0,1.31-.86c1.44-1.31,2.85-2.64,4.23-4s2.78-2.71,4.12-4.11A2.51,2.51,0,0,0,335.46,337.53Z"/><path class="cls-12" d="M336,339.25l-.27-3-1.23-3.2a25.39,25.39,0,0,0-4.61-6.1c-4.47-4.59-10.1-7.83-15.27-11.53a29.88,29.88,0,0,1-6-5.3,38.28,38.28,0,0,1-4.22-6.9,83.89,83.89,0,0,0-5.13-8.33,30.42,30.42,0,0,1-2.85-4.71,37.49,37.49,0,0,1-3.58-7.93l.1.35-1.64-5.8.09.35A53.35,53.35,0,0,1,290.08,266a48.94,48.94,0,0,1,1.09-11c.23-1.45-2.27,3-1.9,2.34q-1.42,2.48-2.77,5a14.93,14.93,0,0,0-1.27,2.68,70.7,70.7,0,0,0,.26,11.56,59.37,59.37,0,0,0,1.11,6.21,70.81,70.81,0,0,0,6.31,16.7c2.89,5.55,6.93,10.54,10.52,15.64q1.94,2.85,4.11,5.52a13.24,13.24,0,0,0,3.35,3.94c2.87,2.62,6,5,8.83,7.62a6.1,6.1,0,0,1,2.4,3.1,10.29,10.29,0,0,1,1.92,3c.55,1.14,1.07,2.28,1.56,3.44a9.85,9.85,0,0,1,.31,5.08,1.85,1.85,0,0,0,1.23-.56q2-1.43,4-2.95c1.32-1,2.63-2,3.91-3.07A1.94,1.94,0,0,0,336,339.25Z"/><path class="cls-12" d="M337.26,334.5c-.39-3.43,0-2.37-1.08-4.89a26.66,26.66,0,0,0-5.62-8,52.11,52.11,0,0,0-8.55-6.85c-4.07-2.72-9.44-5.43-12.64-9a33,33,0,0,1-4.39-6.36,37.5,37.5,0,0,0-3.22-5.86c-.87-1.45-1.79-2.88-2.74-4.29a53,53,0,0,1-6.3-12.59l-1.43-5.42a49.86,49.86,0,0,1,.31-21.38c.14-.8-.13-.75-.55-.23-.34.68-.65,1.37-.93,2.08a22.69,22.69,0,0,0-.77,2.14c-.63,4.66-1,6.55-.88,11.23A54,54,0,0,0,290,277a56.41,56.41,0,0,0,5.43,13.47c2.51,4.46,5.46,8.66,8.19,13a55.43,55.43,0,0,0,5.77,8,66.42,66.42,0,0,0,6.62,5c4.52,3.05,9.37,5.9,12.84,10.21l2.06,2.78a13.78,13.78,0,0,1,3,8.18c.07.75,1.12-.46,1.18-.52C335.53,336.74,337.35,335.22,337.26,334.5Z"/><path class="cls-12" d="M338.42,339.52c-.86-3.19-.69-3.48-2.68-6.38-1.35-1.58-2.68-3.17-4-4.77a31.23,31.23,0,0,0-4.4-4.58,61.44,61.44,0,0,0-5.67-4c-2-1.33-4-2.61-6-3.86a25.63,25.63,0,0,1-6.26-5.2,12.74,12.74,0,0,1-4.6-6.25l-1.67-3.66c-2.43-4.82-6.08-8.68-8.26-13.68A48.39,48.39,0,0,1,290.66,271a67.2,67.2,0,0,1,1.25-16.31c.13-.73-1,0-1.07.52-.89,5.48-1.69,11-1.08,16.55a52.47,52.47,0,0,0,3.29,13.64,66.81,66.81,0,0,0,6.63,12,27.22,27.22,0,0,1,3.58,6.14,52.76,52.76,0,0,0,2.74,5.41c3.38,4.53,8.33,7.43,13,10.46a34.72,34.72,0,0,1,7.26,5.54,21.18,21.18,0,0,1,5.67,6.07l2.6,2.94a15.39,15.39,0,0,1,2.91,5.76C337.63,340.27,338.54,340,338.42,339.52Z"/><path class="cls-12" d="M334.9,340.19l-.26-3L333.43,334a25.08,25.08,0,0,0-4.51-6c-4.37-4.54-9.9-7.81-15-11.48a30.16,30.16,0,0,1-5.92-5.3,39.1,39.1,0,0,1-4.24-6.89,84.11,84.11,0,0,0-5.17-8.32,29.72,29.72,0,0,1-2.86-4.71,37.75,37.75,0,0,1-3.61-7.92l.11.36-1.67-5.82.09.37a54.12,54.12,0,0,1-1.36-11.13,49,49,0,0,1,1-11c.23-1.5-2.29,3.17-1.92,2.5q-1.44,2.63-2.81,5.3a16.41,16.41,0,0,0-1.29,2.83,61.61,61.61,0,0,0,3.43,23.65,69.74,69.74,0,0,0,8,16.18q2.38,3.19,4.68,6.46l4.2,5.89c2.36,3.12,4.55,6.29,7.48,8.89L315,330.3q2.75,2.42,5.28,5l.77,1.67a8.59,8.59,0,0,1,1.67,2.84l1.41,3.26a9.48,9.48,0,0,1,.22,4.93,2.07,2.07,0,0,0,1.28-.58q2.14-1.48,4.22-3t4.12-3.16A2,2,0,0,0,334.9,340.19Z"/><path class="cls-12" d="M335.54,338.36l-.26-3-1.23-3.23c-1.32-2.9-3.78-5.39-6.08-7.54-4.75-4.45-10.57-7.4-15.58-11.5a27.34,27.34,0,0,1-5.37-5.48c-1.6-2.28-2.61-4.93-4-7.35-2.16-3.85-4.9-7.31-7-11.18a25.5,25.5,0,0,1-2.49-5.25,38.28,38.28,0,0,1-2.61-8.12l.09.42-1-6,.07.42a39.25,39.25,0,0,1-.24-8.32,37.69,37.69,0,0,1,1-8.18c.07-.46,0-.45-.31-.15l-.62,1c-.65,1.23-1.27,2.46-1.87,3.71-.94,1.92-1.87,3.84-2.76,5.78a7.41,7.41,0,0,0-.91,2.64c-.1,5.36-.29,6.21.55,11.69a66.28,66.28,0,0,0,5,17.22,72.06,72.06,0,0,0,7.37,12.73c2.92,4,5.68,8.1,8.73,12q1.75,2.16,3.33,4.47l2.75,2.57q2.19,1.77,4.28,3.66t4,3.79l.8,1.72a12.06,12.06,0,0,1,2.11,4l.95,2.28a9.6,9.6,0,0,1,.17,5,2.51,2.51,0,0,0,1.37-.8c1.5-1.24,3-2.5,4.44-3.8s2.91-2.58,4.33-3.92A2.48,2.48,0,0,0,335.54,338.36Z"/><path class="cls-12" d="M336.07,339.79a8.65,8.65,0,0,0-.9-4.68,9.06,9.06,0,0,0-1.64-3.21,35.53,35.53,0,0,0-6.59-7.52,54.05,54.05,0,0,0-5.06-3.86c-1.93-1.32-3.86-2.65-5.8-4a44.75,44.75,0,0,1-6.87-5.17,33,33,0,0,1-4.42-6.32,43.9,43.9,0,0,0-3.3-5.87q-1.32-2.19-2.75-4.3a54,54,0,0,1-6.36-12.59c-3-8.94-3-17.82-1.37-27.29.16-.89-1.24,1.16-1.06.85a9.38,9.38,0,0,0-1.57,3.3,35.84,35.84,0,0,0-.58,8.2,29.13,29.13,0,0,0,.29,5.68,55.8,55.8,0,0,0,3.19,14A63.47,63.47,0,0,0,298,299.67c2.25,3.38,4.31,6.89,6.59,10.25a51.46,51.46,0,0,0,4.63,6.17,48,48,0,0,0,4.76,3.8q3.45,2.48,6.64,5.26a25.51,25.51,0,0,1,7.08,6.57l1.75,2.77,1.34,2.73a11.65,11.65,0,0,1,.78,5.72c0,.4,2.56-1.34,2.46-1.27C334.44,341.39,336.13,340.51,336.07,339.79Z"/><path class="cls-12" d="M338,336c-.35-3.19,0-2.27-1-4.7a26.19,26.19,0,0,0-5.54-8,52.42,52.42,0,0,0-8.49-6.87q-2-1.36-4.06-2.69a72.13,72.13,0,0,1-8.57-6.31,33.49,33.49,0,0,1-4.39-6.34,40.78,40.78,0,0,0-3.24-5.86q-1.32-2.17-2.75-4.29a53.53,53.53,0,0,1-6.31-12.58c-2.95-8.95-2.78-17.79-1.11-27.24.16-.9-1.24,1.27-1.05.93a10.89,10.89,0,0,0-1.52,3.5c-.57,4.38-1,6.52-.79,11.05a63.73,63.73,0,0,0,1.56,11.25c2.28,9.89,8.32,17.94,13.59,26.38,1.69,2.7,3.45,5.8,5.77,8a67.78,67.78,0,0,0,8.58,6.49c3.91,2.69,7.81,5.56,10.76,9.32,2.64,3.37,4.38,6.73,4.69,11.17.06.81,1.55-.67,1.74-.84C336.36,337.93,338,336.86,338,336Z"/><path class="cls-12" d="M335.82,340.71a8.17,8.17,0,0,0-.93-4.56,8.8,8.8,0,0,0-1.65-3.11,36,36,0,0,0-6.39-7.22,94.87,94.87,0,0,0-8.71-6.47c-3.74-2.6-8-5.17-10.63-9-1.6-2.34-2.82-4.91-4.21-7.36-3.12-5.52-7.12-10.52-9.54-16.4A51.64,51.64,0,0,1,290.17,273l-.35-5.56a48.16,48.16,0,0,1,1.1-10.91c.19-1.14-1.76,1.87-1.47,1.42-.67,1.07-1.32,2.15-1.95,3.25a7,7,0,0,0-.86,1.79,33.43,33.43,0,0,0-.22,8.36,45.92,45.92,0,0,0,1,8.65,65.35,65.35,0,0,0,4.64,13.89,71.84,71.84,0,0,0,4.44,8.08c3.32,5.3,7.25,10.86,11.14,15.87a27.06,27.06,0,0,0,3.67,4c2.61,2.29,5.46,4.3,8.08,6.59a29.56,29.56,0,0,1,7.26,9.37l1.16,2.41a10,10,0,0,1,.52,5.16c0,.28,4-2.08,3.93-2C332.65,343.14,335.9,341.54,335.82,340.71Z"/><path class="cls-12" d="M335,339.34l-.26-3-1.21-3.19A25.3,25.3,0,0,0,329,327c-4.41-4.59-10-7.87-15.11-11.57a29.76,29.76,0,0,1-5.94-5.31,38.55,38.55,0,0,1-4.22-6.89,82.69,82.69,0,0,0-5.14-8.32,30.27,30.27,0,0,1-2.86-4.72,37.88,37.88,0,0,1-3.59-7.91l.12.38-1.66-5.83.09.39a53.88,53.88,0,0,1-1.33-11.1,49.36,49.36,0,0,1,1-11c.24-1.58-2.33,3.49-1.95,2.75q-1.45,2.86-2.84,5.76a19.81,19.81,0,0,0-1.31,3.07,68.79,68.79,0,0,0,.52,11.67,67.55,67.55,0,0,0,2.92,12,69.67,69.67,0,0,0,8,16.18q2.38,3.18,4.68,6.44c1.39,2,2.79,3.94,4.2,5.89,2.36,3.11,4.55,6.28,7.49,8.86l2.9,2.46c1.84,1.6,3.62,3.27,5.32,5l.78,1.71a8.84,8.84,0,0,1,1.66,2.88c.46,1.1.92,2.2,1.39,3.3a9.59,9.59,0,0,1,.19,5,2.3,2.3,0,0,0,1.31-.69c1.44-1.11,2.87-2.25,4.27-3.42s2.8-2.33,4.16-3.54A2.19,2.19,0,0,0,335,339.34Z"/><path class="cls-12" d="M336.43,339.83a8.33,8.33,0,0,0-.94-4.59,13.9,13.9,0,0,0-2.71-4.69,46,46,0,0,0-5.47-5.7c-3.28-2.93-7.14-5.27-10.73-7.79-2.75-1.93-5.53-3.79-7.69-6.4s-3.52-5.67-5.21-8.61l-.15-.23a89.3,89.3,0,0,1-6.59-11.58,32.35,32.35,0,0,1-5.4-12.69l-.92-5.55-.33-5.55a47.73,47.73,0,0,1,1.15-10.92c.19-1.19-1.85,2-1.54,1.54-.72,1.16-1.41,2.32-2.08,3.5a8.08,8.08,0,0,0-.92,1.92,44.74,44.74,0,0,0-.11,11.27l.86,5.74a61.21,61.21,0,0,0,5.87,16.59,82.35,82.35,0,0,0,6.15,9.67c2.26,3.29,4.43,6.63,6.83,9.82a36.19,36.19,0,0,0,5,5.79c3.18,2.79,6.6,5.27,9.8,8a7.25,7.25,0,0,1,2.87,3.39,13.24,13.24,0,0,1,2.23,3.4c.63,1.2,1.22,2.41,1.79,3.65a10.13,10.13,0,0,1,.52,5.2c0,.24,4.19-2.36,4.09-2.29C333.14,342.49,336.52,340.7,336.43,339.83Z"/><path class="cls-12" d="M339,340c-.79-3-.75-3.81-2.67-6.45a59,59,0,0,0-7-7.95,65.09,65.09,0,0,0-9.1-6.71,52.8,52.8,0,0,1-7.3-5.11,18.9,18.9,0,0,1-5.69-5.36c-1.89-3-3-6.38-4.91-9.39a117.86,117.86,0,0,1-6.9-11.53,45.58,45.58,0,0,1-4.21-16.17,67.13,67.13,0,0,1,1.26-16.3c.11-.59-.87-.25-.95.26-.92,5.46-1.73,10.91-1.14,16.48a52.21,52.21,0,0,0,3.25,13.6,66.72,66.72,0,0,0,6.61,12,27.12,27.12,0,0,1,3.57,6.14,54.62,54.62,0,0,0,2.73,5.4c3.39,4.56,8.4,7.44,13.06,10.51a40.25,40.25,0,0,1,7.33,5.59,22.68,22.68,0,0,1,5.81,6.07l2.56,3a15.67,15.67,0,0,1,2.81,5.93C338.3,340.63,339.15,340.49,339,340Z"/></g><path class="cls-13" d="M281.89,240.93s-2,7,2,11,4,28,4,28,3,19,14,28c0,0,21,33,24,35s6,15,6,15,21-10,44-6c0,0-5-30-4-38s-4-72-9-77-11.5-21.5-21.5-23.5c0,0-5,1,2,7s11,14,11,17,4,14,1,17-7-17-7-18-9-20-14-22c0,0-18-19-21-18s-5,4-2,8,17,13,21,21,6,20,5,23-5-1-8-11-19-35-35-39c0,0-8,3,2,11s24,28,21,42c0,0-2,5-12-16s-26-25-27-26-7,4,2,11,24,34,21,56C301.39,276.43,290.39,234.43,281.89,240.93Z"/><path class="cls-14" d="M388.89,347.93s-33-10-80,20c0,0,32,34,26,51l71,2S382.89,376.93,388.89,347.93Z"/><path class="cls-14" d="M185.4,71.59c6.6-8.45,22.77-9.24,33.67-5,6,2.36,5.94,4.51,12.54,8.26,16.38,9.29,35,6.42,40.26,5.61,20.51-3.17,26-13.16,35.32-9.58,8.86,3.4,15.47,14.64,13.86,24.1-2.59,15.22-25.45,20.16-28.38,20.79-18.64,4-23.42-6.06-45.22-4.95-23.59,1.21-28.57,13.56-41.59,9.24C188.31,114.28,175.35,84.49,185.4,71.59Z"/><g class="cls-16"><text class="cls-17" transform="matrix(1, -0.05, 0.05, 1, 229.94, 106.09)">ond</text><text class="cls-18" transform="matrix(1, -0.05, 0.05, 1, 282.48, 103.25)">a</text><text class="cls-17" transform="matrix(1, -0.05, 0.05, 1, 297.9, 102.42)">y</text></g><path class="cls-19" d="M219.38,107.75l10-1.11S225.18,91,224.79,88.91s-12.09-2.24-12.75.6-1.2,5.12-1.2,5.12-4.33-11.06-4.44-12-7-1.28-9.22.56-2.87,24.75-2.87,24.75l9.17,0s1.66-4.84.09-12.46c-2.92-10.46,3.09,6.75,3.16,7.72l8.7-.86s.36-8.76,2.57-7.57C214.66,100.83,219.38,107.75,219.38,107.75Z"/><circle class="cls-19" cx="200.34" cy="75.8" r="4.62"/><circle class="cls-19" cx="219.68" cy="81.87" r="4.2"/><text class="cls-20" transform="matrix(1.17, -0.06, 0.05, 1, 227.87, 86.82)">EA</text><text class="cls-21" transform="matrix(1.17, -0.06, 0.05, 1, 251.91, 85.58)">S</text><text class="cls-20" transform="matrix(1.17, -0.06, 0.05, 1, 262.31, 85.05)">Y</text><g class="cls-22"><path class="cls-23" d="M188.11,253.63a83.42,83.42,0,0,0-2,27.5c0,.48.8.48.75,0a82.85,82.85,0,0,1,2-27.31.38.38,0,0,0-.73-.19Z"/></g><g class="cls-22"><path class="cls-23" d="M168.31,250.8a84.51,84.51,0,0,0,1.46,26.73c.11.48.83.28.73-.2a83.84,83.84,0,0,1-1.44-26.53c.05-.48-.7-.47-.75,0Z"/></g><g class="cls-22"><path class="cls-23" d="M150.3,256a58,58,0,0,0,4.9,32.58c.2.44.85.06.65-.38a56.93,56.93,0,0,1-4.82-32c.06-.47-.66-.67-.73-.2Z"/></g><g class="cls-22"><path class="cls-23" d="M315.75,252.93A72.81,72.81,0,0,1,319,278.66c0,.48.72.48.75,0a73.22,73.22,0,0,0-3.26-25.93c-.14-.46-.87-.26-.72.2Z"/></g><g class="cls-22"><path class="cls-23" d="M335.3,250.37l.82,16.56c.24,4.8.81,10.1-1.94,14.35-.26.4.39.78.65.37,2.65-4.08,2.32-9.1,2.09-13.75l-.87-17.53c0-.48-.78-.48-.75,0Z"/></g><g class="cls-22"><path class="cls-23" d="M354.4,256.51A79.26,79.26,0,0,1,353,282.75c-.1.47.62.67.72.2a79.67,79.67,0,0,0,1.41-26.44c-.06-.48-.81-.48-.75,0Z"/></g><g class="cls-22"><path class="cls-23" d="M135.27,299.2c-1,12.1-1.54,27.66,10.39,34.88a.38.38,0,0,0,.38-.65c-11.68-7.07-11-22.43-10-34.23,0-.48-.71-.48-.75,0Z"/></g><g class="cls-22"><path class="cls-23" d="M355.87,333.24a42.22,42.22,0,0,0,9.46-34.87c-.09-.47-.81-.27-.72.2a41.42,41.42,0,0,1-9.27,34.14c-.31.36.21.89.53.53Z"/></g></svg>