<svg id="Layer_1" data-name="Layer 1" xmlns="http://www.w3.org/2000/svg" viewBox="0 0 528 502"><defs><style>.cls-1{fill:#738458;}.cls-2{fill:#0c0c0b;}.cls-2,.cls-4{stroke:#141412;}.cls-12,.cls-14,.cls-2,.cls-3,.cls-4,.cls-6,.cls-7,.cls-9{stroke-miterlimit:10;}.cls-3,.cls-5,.cls-9{fill:#a6b58a;}.cls-3{stroke:#0a0a09;}.cls-4{fill:#94b578;}.cls-6{fill:#aebc93;stroke:#090a09;}.cls-7{fill:#8fa06e;}.cls-7,.cls-9{stroke:#0c0c0b;}.cls-8{fill:#bdd09e;}.cls-10{fill:#5f6b48;}.cls-11{fill:#63704b;}.cls-12{fill:#cebea1;stroke:#020202;}.cls-12,.cls-14{stroke-width:0.5px;}.cls-13{fill:#a89a83;}.cls-14{fill:none;stroke:#111110;}.cls-15,.cls-16,.cls-17,.cls-19,.cls-20,.cls-21{isolation:isolate;}.cls-16,.cls-17{font-size:20.04px;font-family:MyriadPro-Bold, Myriad Pro;font-weight:700;}.cls-16,.cls-17,.cls-18{fill:#fff;}.cls-17{letter-spacing:-0.01em;}.cls-19,.cls-20,.cls-21{font-size:10.03px;font-family:Montserrat-Light, Montserrat;font-weight:300;}.cls-19,.cls-20{fill:#fbfcfa;}.cls-20{letter-spacing:-0.01em;}.cls-21{fill:#f7f9f4;}</style></defs><path class="cls-1" d="M296.16,68c20.81-1.91,39.73-11.32,60.22-14.88,37.49-6.53,79.21,8.52,104,37.49,16.43,19.21,25.47,44.41,22.29,68.31-2.92,21.93-15.54,41.25-30.15,58S421,248.6,407.36,266.06C400.05,275.39,393.5,286,393,297.83c-.47,10.64,4,21.05,8.06,31.16,6.89,16.95,13.18,34.64,12.4,52.49-1,24-14.72,45.3-29.75,64.06-6.91,8.63-14.37,17.13-24.15,22.74-15.09,8.67-34.33,9.5-52,5.66s-34.18-12-50.19-20.42c-15.49-8.18-31-16.88-48-21-22.18-5.4-45.15-2.66-67.82-3.12A243,243,0,0,1,45.18,407.1c-5-2.33-10.13-4.93-13.75-9s-5.34-9.06-6.8-14c-7-23.92-7.6-50.37,4.51-71.54,7.28-12.72,18.62-22.77,27.34-34.61a101.65,101.65,0,0,0,19.6-54.39c1.46-25.6-6.65-51.16-9.29-76.84-4.54-44.24,9.06-91.07,43.71-119.17s91.89-32.1,128.14-2.78C258.2,40.54,273.06,65.47,298.05,69"/><path class="cls-2" d="M108.78,312S108,368,121.26,370.76,122,376,122,376s-27.94-7.4-22.72-63.45S108.78,312,108.78,312Z"/><path class="cls-3" d="M188,110S98,73,90,306c0,0,17,23,26-3l6-60s0-79,4-87S138,110,188,110Z"/><path class="cls-4" d="M155,387s-32,9-33-11-7-219,4-220-12-36,62-46,110,9,119,16,18,33,17,76,25,178,7,184S175,398,155,387Z"/><path class="cls-5" d="M392.08,293.19c.16,6-1.5,12.45-5.73,16.93a20.11,20.11,0,0,1-8.7,5.16,65.84,65.84,0,0,1-11.54,2.54,1.51,1.51,0,0,0-1.05,1.85,1.54,1.54,0,0,0,1.85,1.05c7.61-1.05,16.41-2.79,21.81-8.74,4.58-5.06,6.54-12.06,6.36-18.79-.05-1.93-3.05-1.94-3,0Z"/><path class="cls-5" d="M356.14,320.9c8.23.94,16.73.94,23.76-4.06,6-4.23,9.94-10.55,12.7-17.21.74-1.78-2.16-2.55-2.89-.79-2.49,6-6.22,11.89-11.63,15.63-6.55,4.51-14.35,4.3-21.94,3.43-1.91-.22-1.9,2.78,0,3Z"/><path class="cls-5" d="M371.81,315.75a20.83,20.83,0,0,0,18.61-12.32,1.55,1.55,0,0,0-.54-2.05,1.51,1.51,0,0,0-2.05.54,17.93,17.93,0,0,1-16,10.83,1.5,1.5,0,0,0,0,3Z"/><path class="cls-5" d="M393.2,301.44c2.25-6.78,4.95-13.76,4.45-21-.13-1.92-3.13-1.93-3,0,.49,7-2.18,13.71-4.34,20.23-.61,1.84,2.28,2.63,2.89.8Z"/><path class="cls-6" d="M326,238.7s20.52-136.33-71.49-130.26-106,24.06-104,37.06-14,101-3.5,116.5l10.5,15.5Z"/><path class="cls-1" d="M179,173s117-14,124-9,17,68,9,71-129.15,16.61-132.57,8.8S165,169,179,173Z"/><path class="cls-7" d="M181.43,230.5s-28.9,19.64-18,114.82c0,0-15.07,46.18,34,38.18,0,0,126.07,3,129.07-6s-5-84-5-84l-24-43Z"/><path class="cls-8" d="M206.31,237c2.24-7.43,130.52-11.58,140.26,1.34l8.2-5.67L391,280.21s7.83,28.14-20.07,37.35S246.13,303.5,241.24,289.91,206.31,237,206.31,237Z"/><path class="cls-9" d="M147,262s17.94-73.64,59.31-25.53q1.81,2.1,3.69,4.53l3.18,4.1c1.77,2.25,3.51,4.46,5.25,6.62,38.58,47.93,72.81,73.08,154,61q2.85-.42,5.76-.9L383,311a39,39,0,0,0,4-3.8c7.64-8.18,21.76-28.83,1-54.2-27-33-23.59-45.95-63.29-21l1.3,6.67s26.49-3.2,32.49.8,32,34,32,49-12,32-16,31-91,18-129-18-46-71-62-64-19,33-19,33-5,105,2,109S147,262,147,262Z"/><path class="cls-10" d="M177,173s10-9,19-10,110-17,112-12-7.22,18.38-7.22,18.38Z"/><path class="cls-11" d="M309,151s18.64,62.3,15.82,65.15-9.29,17.61-13.55,14.23-9.49-61-9.49-61Z"/><path class="cls-8" d="M217,165s-5-21,0-21,56.62-8.45,56.31-1.73,3.39,21,3.39,21l-8.13-.67s-.22-18.49-5.4-16.55S224,144,223,148s-.52,13.93-.52,13.93Z"/><path class="cls-12" d="M292.86,102.42c2-13.49-18.58,18.34-29.47,37.14-3.95,6.81-6.65,11.93-6.47,12.53,2.37,7.66,23-17.28,29.93-27.06,1.24-1.75,3.95-1.6,5.63-.28,3.45,2.7,8.41,7,6.57,7.84-2.73,1.28-5.91,8.15-12.37,9.13s-11.61,7.21-11.61,7.21-8.95,26.49,8.71,11.18c12.27-10.64,26.26-14.32,33.66-15.58a36.37,36.37,0,0,0,11.42-4c11.53-6.33,35.42-19.52,38.14-21.57,3.6-2.72,49.26-5.41,84.3-48.77L406.93,38.41S328.43,108.3,324.57,105s-8.46-2.18-8.31-4-9-9.36-12.89-7.8c0,0-3.56-7-12.91-2.92,0,0-6.31-.89-13.22,5.69S261.29,98,258.39,106s-10.13,23.21-9.42,23.64-4.22,15.06-4.09,18.07,3.41,8.92,8.31,4.06c0,0,.6,5,4.31.71"/><path class="cls-13" d="M312.44,114.53a23.17,23.17,0,0,1-10.85,8.69c-.44.18-.25.9.2.73a24.15,24.15,0,0,0,11.3-9c.27-.4-.38-.78-.65-.38Z"/><path class="cls-13" d="M298,132.77a.38.38,0,0,0,0-.75.38.38,0,0,0,0,.75Z"/><path class="cls-13" d="M309,129.12a.38.38,0,0,0,0-.75.38.38,0,0,0,0,.75Z"/><path class="cls-13" d="M315.94,119.29a.38.38,0,0,0,0-.75.38.38,0,0,0,0,.75Z"/><path class="cls-13" d="M301.7,97.3a2.84,2.84,0,0,0,1.9-2.81.38.38,0,0,0-.37-.37.38.38,0,0,0-.38.37,2.54,2.54,0,0,1,0,.39c0,.07,0,0,0,0a.19.19,0,0,1,0,.08.85.85,0,0,1,0,.17l-.06.19,0,.08,0,0a2,2,0,0,1-.18.32.18.18,0,0,1-.05.07s-.05.08,0,.05l0,0a.27.27,0,0,1-.07.08,2.13,2.13,0,0,1-.26.26s0,0,0,0l-.09.06-.15.1-.15.08c-.1,0,.06,0,0,0l-.1,0a.38.38,0,0,0-.26.46.37.37,0,0,0,.46.26Z"/><path class="cls-13" d="M273.94,165.12a7.06,7.06,0,0,1,4.92-6.48c5-1.85,5.32-.7,5.32-.7l.6,1.18S275.78,166.89,273.94,165.12Z"/><path class="cls-12" d="M281,102.66a32.91,32.91,0,0,0-22.77,21.45c-6,17.92-9.72,27.37-10.87,27.66s-1.55.42-3.06-1.67"/><path class="cls-14" d="M281,110s-10,2-15,14a191.47,191.47,0,0,1-10.21,20.89"/><path class="cls-13" d="M256.91,152.72s-2.27-.83,2.86-7.54c0,0,2.07-1.61,1.86.92S257.28,154,256.91,152.72Z"/><path class="cls-13" d="M252.6,152.55s-2.28-.84,2.85-7.54c0,0,2.08-1.62,1.86.91S253,153.87,252.6,152.55Z"/><path class="cls-13" d="M246.6,153s-2.27-.83,2.86-7.54c0,0,2.07-1.61,1.86.92S247,154.27,246.6,153Z"/><path class="cls-13" d="M244.5,151.09s-2.4-.22.84-8c0,0,1.59-2.08,2,.42S245.2,152.27,244.5,151.09Z"/><path class="cls-8" d="M373,51s7.95,35.54,56.27,66.78c0,0,12.61-45.1,29.79-46.88L425.58,3S400.16,44,373,51Z"/><path class="cls-8" d="M198.83,193.5c3.76-6.13,14.46-7.87,22-5.83,4.16,1.12,4.29,2.55,9,4.55,11.6,5,23.77,1.65,27.22.71,13.41-3.65,16.3-10.71,22.79-9,6.15,1.59,11.4,8.58,11,15-.58,10.33-15.42,15.33-17.33,16-12.1,4.08-16-2.28-30.47.1-15.61,2.57-18,11.17-27,9.27C204,221.69,193.11,202.83,198.83,193.5Z"/><g class="cls-15"><text class="cls-16" transform="translate(231.07 213.11) rotate(-9.53)">ond</text><text class="cls-17" transform="translate(265.83 207.28) rotate(-9.53)">a</text><text class="cls-16" transform="translate(276.03 205.56) rotate(-9.53)">y</text></g><path class="cls-18" d="M224.16,215l6.6-1.5s-4-10.1-4.41-11.45-8.22-.58-8.44,1.36-.42,3.5-.42,3.5-3.71-7-3.85-7.66-4.73-.33-6.1,1.06,0,16.7,0,16.7l6.11-.67a17.36,17.36,0,0,0-.88-8.31c-2.73-6.74,2.57,4.26,2.68,4.91l5.73-1.23s-.42-5.86,1.14-5.23C220.5,210.76,224.16,215,224.16,215Z"/><circle class="cls-18" cx="209.09" cy="195.17" r="3.1"/><circle class="cls-18" cx="222.42" cy="197.76" r="2.81"/><text class="cls-19" transform="matrix(1.15, -0.19, 0.16, 0.99, 228.24, 200.44)">EA</text><text class="cls-20" transform="matrix(1.15, -0.19, 0.16, 0.99, 244.15, 197.81)">S</text><text class="cls-21" transform="matrix(1.15, -0.19, 0.16, 0.99, 251.03, 196.68)">Y</text></svg>