<?xml version="1.0" encoding="utf-8"?>
<!-- Generator: Adobe Illustrator 25.4.1, SVG Export Plug-In . SVG Version: 6.00 Build 0)  -->
<svg version="1.1" id="Layer_1" xmlns="http://www.w3.org/2000/svg" xmlns:xlink="http://www.w3.org/1999/xlink" x="0px" y="0px"
	 viewBox="0 0 531 475" style="enable-background:new 0 0 531 475;" xml:space="preserve">
<style type="text/css">
	.st0{fill:#738458;}
	.st1{fill:#BCAD96;stroke:#050505;stroke-width:0.5;stroke-miterlimit:10;}
	.st2{fill:#9B8C79;stroke:#050505;stroke-width:0.5;stroke-miterlimit:10;}
	.st3{fill:#337233;stroke:#224C22;stroke-width:0.25;stroke-miterlimit:10;}
	.st4{fill:#CEBEA1;stroke:#020202;stroke-width:0.5;stroke-miterlimit:10;}
	.st5{fill:#A89A83;}
	.st6{fill:#050505;}
	.st7{fill:#333231;}
	.st8{fill:#999796;stroke:#020202;stroke-width:0.25;stroke-miterlimit:10;}
	.st9{fill:#4C4C4B;}
	.st10{fill:#337233;stroke:#1F3D1F;stroke-width:0.25;stroke-miterlimit:10;}
	.st11{fill:#BDD09E;}
	.st12{fill:#337233;}
	.st13{fill:#224C22;}
</style>
<path class="st0" d="M96.3,220.6c-4.7-20.4-16.6-37.8-22.9-57.7c-11.5-36.3-2.2-79.6,23.1-108.1c16.8-18.9,40.6-31.2,64.7-31.3
	c22.1-0.1,43,9.8,61.5,22.1s35.6,26.9,54.7,38.1c10.2,6,21.6,11,33.4,10c10.6-1,20.3-6.8,29.8-12.2c15.9-9.1,32.5-17.7,50.3-19.4
	c24-2.2,46.9,8.5,67.5,20.8c9.5,5.7,18.9,11.9,25.8,20.9c10.6,13.8,14,32.7,12.6,50.8s-7.2,35.5-13.5,52.5
	c-6,16.4-12.5,33-14.4,50.4c-2.4,22.7,3.5,45.1,6,67.6c3.7,33.1,0.6,66.6-9.1,98.4c-1.6,5.3-3.5,10.7-7.1,14.8s-8.2,6.5-13,8.6
	c-22.8,10.2-48.9,14.3-71.5,5.2c-13.6-5.5-25.1-15.4-38-22.4c-17.3-9.4-36.9-13.6-56.5-12.1c-25.6,2-49.8,13.5-74.9,19.6
	c-43.2,10.5-91.4,3.3-124-27.3s-44.2-86.7-20-126.6c13.1-21.5,35.8-39.6,36-64.8"/>
<path class="st1" d="M396.5,283.5c0,0,90.5,58.5,90.5,64.5s-1,9-12,10s-133,23-143,19s-19-4-42-58c0,0,15.4-27.6,26.7-31.8
	c0,0,6.3-7.2-8.7-10.2s-5-9,1-10s14.9-3.9,17-0.4s20.5,11.9,20.5,11.9S385.5,268.5,396.5,283.5z"/>
<path class="st2" d="M280.1,318.7c0,0,24.9,73.3,49.9,75.3s155-11,159-23s6-18-2-23c0,0,4.8,7.4-8.4,9.4S334.5,380.5,332,377
	s-19.5-1.5-42-58L280.1,318.7z"/>
<path class="st3" d="M347,310.7c0,0,2.5-17,12.6-17.1s22,0.9,25,5.7s6,11.6,2,14.5S371.2,334.7,347,310.7z"/>
<path class="st4" d="M358.5,289.5c0,0-7.8,30.2-16.4,3.6s-31.6-37.6-31.6-37.6s-26-51-28-56s-47-36-56-102l65-5c0,0,37,120,43,119
	s10,3,11,1s15-4,18,0c0,0,8-5,15,5c0,0,7,3,10,14s15,12,13,22s-4,30-5,30s-5,18-7,21s-9,7-11-1s-7-11,0-41c0,0-11-18-10-34
	s-1,49,3,54s5,17,3,19s-7.3,8.8-18-24.3c-1.7-5.3-3.7-11.8-6-19.7c0,0-9-5-7-2s1,12,7,17S358.5,289.5,358.5,289.5z"/>
<path class="st5" d="M339.1,228.1c0.3,5.8,2.3,11.5,5.9,16.1c0.3,0.4,0.9,0,0.6-0.4c-3.5-4.5-5.5-10-5.8-15.7
	C339.9,227.7,339.1,227.6,339.1,228.1L339.1,228.1z"/>
<path class="st5" d="M333.3,230.5c-0.2,5.5-0.4,11.3,1.7,16.5c1.5,4,4.6,7.2,8.5,8.8c0.5,0.2,0.6-0.6,0.2-0.7
	c-9.9-3.6-10-15.8-9.7-24.5c0-0.2-0.2-0.3-0.4-0.3C333.5,230.2,333.3,230.3,333.3,230.5L333.3,230.5z"/>
<path class="st5" d="M362.2,216.6c-0.7-0.9-0.7-2.1-0.1-3.1c0.1-0.2,0-0.4-0.1-0.5s-0.4,0-0.5,0.1c-0.8,1.2-0.7,2.9,0.2,4
	c0.1,0.1,0.4,0.1,0.5,0C362.3,217,362.3,216.8,362.2,216.6L362.2,216.6z"/>
<path class="st5" d="M372.2,302.3c0,0-5.2,0.7-3.2-11.3c0,0,2.1-3.5,4.5-0.2S374.4,303.7,372.2,302.3z"/>
<path class="st5" d="M385.6,294.2c0,0,2.8,12.9,0.8,12.9s-5,3-6.5-0.5S381.8,294.3,385.6,294.2z"/>
<path class="st5" d="M348,303.7c1.7-3.1,1.3-7-1-9.7c-4-5-5-4-5-4l-1.4,0.8C340.6,290.8,345,304.3,348,303.7z"/>
<path class="st4" d="M379.5,235.5c9.2,9.5,13,23.1,10,36c-5,22-7,34-6,35s1.3,1.4,4.2,0.2"/>
<path class="st5" d="M388.1,305.2c0-0.7,0-1.4,0-2.1v-1.1c0-0.2,0-0.3,0-0.5v-0.1v0c-0.1,0.1-0.2,0.1-0.2,0c0.2,0.1,0.4,0,0.5-0.1
	c0.1-0.2,0-0.4-0.1-0.5c-0.4-0.3-0.8,0-0.9,0.4c-0.1,0.4-0.1,0.8-0.1,1.3c0,0.9,0,1.9,0,2.8c0,0.2,0.2,0.3,0.4,0.3
	C387.9,305.5,388,305.4,388.1,305.2L388.1,305.2z"/>
<path class="st5" d="M386.7,307.2c0.9,0,1.3-0.9,1.7-1.5c0.4-0.7,0.8-1.4,1.1-2.2c0.1-0.5-0.6-0.7-0.7-0.2c-0.2,0.6-0.5,1.3-0.9,1.8
	c-0.2,0.3-0.4,0.6-0.5,0.9c-0.1,0.2-0.4,0.4-0.6,0.4C386.3,306.4,386.3,307.2,386.7,307.2L386.7,307.2z"/>
<path class="st5" d="M389.2,304.1c0.8-1.3,1.4-2.8,1.9-4.2c0.1-0.4-0.5-0.6-0.7-0.3c-0.4,0.6-1.4,0.4-2,0.4c-0.8-0.1-1.6,0.3-1.9,1
	c-0.3,0.8-0.4,1.7-0.3,2.6c-0.1,1,0,2,0.2,2.9c0.1,0.2,0.3,0.3,0.5,0.2c0.2-0.1,0.3-0.2,0.2-0.4c-0.1-0.8-0.2-1.7-0.2-2.6
	c-0.1-0.8,0-1.6,0.2-2.4c0.2-0.7,0.7-1.2,1.4-1.4c0.4-0.1,0.8-0.2,1.1-0.1c0.2,0,0.4,0,0.6,0h0.1c0.2,0,0,0,0,0
	c0,0.1-0.2,0.3-0.3,0.5c-0.1,0.1-0.1,0.3-0.1,0.4c-0.1,0.4-0.2,0.7-0.2,1.1c-0.1,0.7-0.4,1.3-0.8,1.9c-0.4,0.6-0.9,1.1-1.5,1.5
	c-0.1,0.1-0.3,0.2-0.4,0.3l0,0c0.2,0.2,0.3,0.2,0.2,0c0-0.1,0-0.2,0-0.3c0-0.5,0-0.9,0-1.4s0-1,0.1-1.5c0-0.4,0.1-0.8,0.3-1.1
	c0.3-0.3,0.6-0.5,1-0.6c0.4-0.2,0.8-0.3,1.3-0.4c0.5-0.1,0.3-0.8-0.2-0.7c-0.9,0.1-1.8,0.5-2.6,1.1c-0.7,0.7-0.6,1.9-0.6,2.8
	c0,0.5,0,1.1,0,1.6c0,0.4-0.1,0.9,0.3,1.1s0.8-0.2,1-0.4c0.4-0.3,0.7-0.6,1.1-1c0.6-0.6,1.1-1.4,1.4-2.2c0.1-0.4,0.2-0.8,0.2-1.2
	c0-0.2,0.1-0.4,0.1-0.6c0.1-0.2,0.2-0.5,0.4-0.7c0.2-0.3,0.1-0.7-0.3-0.9c-0.4-0.2-0.8-0.2-1.2-0.2c-0.9,0-1.8,0.2-2.5,0.8
	c-0.7,0.8-1,1.8-0.9,2.9c0,1.2,0,2.5,0.2,3.7l0.7-0.2c-0.3-0.9-0.3-1.9-0.2-2.8c0-0.5,0-0.9,0.1-1.4c0-0.4,0.1-0.7,0.3-1
	c0.4-0.6,1.4-0.3,2.1-0.3c0.7,0.1,1.3-0.2,1.8-0.7l-0.7-0.3c-0.5,1.4-1.1,2.7-1.8,4C388.3,304.1,389,304.5,389.2,304.1L389.2,304.1z
	"/>
<path class="st5" d="M389.7,300.1c-0.3,0.8-0.7,1.7-1.2,2.5l-0.6,1.2l-0.3,0.6l-0.1,0.3l-0.1,0.2c0,0.1,0,0.1,0,0h0.2c0.1,0,0,0,0,0
	s0-0.2-0.1-0.2c0-0.2-0.1-0.3-0.1-0.5c0-0.3,0-0.7,0.1-1c0.1-0.7,0.4-1.3,0.8-1.9c0.1-0.1,0.2-0.2,0.3-0.3l0.1,0h0.1
	c-0.1-0.1-0.2-0.2-0.1-0.1c0,0.1,0,0.2,0,0.2c0,0.1,0,0.2-0.1,0.3c0,0.2-0.1,0.4-0.2,0.5l-0.4,1.1c-0.1,0.3-0.2,0.6-0.5,0.9l0.6,0.2
	c-0.1-0.5-0.2-1-0.1-1.5c0.1-0.3,0.1-0.9,0.5-1l-0.5-0.4c0,0.2,0,0.4,0,0.6c0,0.1,0,0.2,0,0.3v0.1c-0.1,0.1,0,0.1,0.1,0h0.2l0.1,0.1
	v-0.1c0,0,0-0.1,0-0.2s0-0.2,0.1-0.2l-0.4-0.4c0,0.5-0.1,1-0.4,1.4c-0.1,0.2,0,0.4,0.1,0.5c0.2,0.1,0.4,0,0.5-0.1
	c0.4-0.5,0.6-1.1,0.5-1.7c0-0.2-0.2-0.4-0.4-0.4c-0.4,0-0.7,0.3-0.8,0.7c-0.1,0.3,0,0.7,0.2,1c0.3,0.3,0.7,0,0.9-0.3
	c0.1-0.4,0.2-0.9,0.1-1.3c0-0.2-0.2-0.4-0.4-0.4c0,0-0.1,0-0.1,0c-0.6,0.2-0.9,0.7-1,1.3c-0.2,0.7-0.1,1.4,0.1,2.1
	c0.1,0.2,0.3,0.3,0.5,0.3c0.1,0,0.1,0,0.2-0.1c0.2-0.2,0.4-0.4,0.4-0.7c0.1-0.3,0.2-0.6,0.3-0.9c0.3-0.5,0.4-1.1,0.5-1.7
	c0-0.3,0-0.5-0.2-0.8c-0.2-0.2-0.5-0.2-0.7-0.1c-0.5,0.2-0.9,0.5-1.1,1c-0.6,1-0.8,2.1-0.7,3.3c0,0.5,0.2,1.2,0.9,1.1
	c0.2-0.1,0.4-0.2,0.5-0.5c0.2-0.3,0.3-0.6,0.5-0.9l1-2c0.3-0.6,0.7-1.3,0.9-2C390.6,299.7,389.9,299.5,389.7,300.1L389.7,300.1z"/>
<path class="st6" d="M386,307.9c0.9-0.2,1.7-0.7,2.3-1.4c0.3-0.3,0.6-0.7,0.9-1.1c0.1-0.2,0.3-0.4,0.4-0.6c0.1-0.2,0.2-0.4,0.3-0.5
	c0.2-0.1,0.3-0.3,0.2-0.5c-0.1-0.2-0.3-0.3-0.5-0.2c0,0-0.1,0-0.1,0.1c-0.3,0.3-0.6,0.7-0.8,1.1c-0.2,0.4-0.5,0.7-0.8,1.1
	c-0.6,0.6-1.3,1.1-2.1,1.3C385.3,307.2,385.5,308,386,307.9L386,307.9z"/>
<path class="st6" d="M389.9,304.3c0.7-1.6,1.4-3.2,2-4.8c0.2-0.5-0.5-0.6-0.7-0.2c-0.6,1.6-1.2,3.1-1.9,4.7c-0.1,0.2,0,0.4,0.1,0.5
	C389.6,304.5,389.8,304.5,389.9,304.3L389.9,304.3z"/>
<path class="st6" d="M383.4,307.8c-0.9,0.2-1.9-0.1-2.6-0.8c-0.3-0.3-0.6-0.7-0.8-1.1c-0.1-0.2-0.2-0.4-0.3-0.6
	c-0.1-0.2-0.2-0.5-0.4-0.6c-0.2-0.1-0.4,0-0.5,0.2c-0.1,0.2,0,0.3,0.1,0.4c0,0,0,0,0,0.1l0.1,0.2c0,0.1,0.1,0.2,0.2,0.4
	c0.1,0.2,0.2,0.5,0.4,0.7c0.3,0.4,0.6,0.8,1,1.1c0.9,0.7,2,0.9,3.1,0.7C384,308.4,383.8,307.7,383.4,307.8L383.4,307.8z"/>
<path class="st6" d="M383.2,308.5c1,0.1,2-0.1,2.9-0.7c0.2-0.1,0.2-0.4,0.1-0.5c-0.1-0.1-0.3-0.2-0.4-0.1c-0.7,0.4-1.5,0.6-2.3,0.6
	c-0.2,0-0.4,0.1-0.5,0.3C382.9,308.2,383,308.4,383.2,308.5L383.2,308.5z"/>
<path class="st7" d="M294.2,297.4c0,0-4.2,18.6-3.2,20.6s-30-2.1-30-5s-6-33-6-33L294.2,297.4z"/>
<path class="st8" d="M435,318c0,0-82,10-117,1h-28l3.2-20.6C293.2,298.4,433,316,435,318z"/>
<path class="st9" d="M303,309c0,0,38,2,47,5"/>
<path class="st4" d="M73,150c0,0,82,75,90,78s74,21,85,20c0,0,9,1,36,21s44,17,50,23s13,4,9,13s-41-7-43-6s-33-10-38-9s6,39-9,40
	s-17-1-21-6s-6.5,19.5-24.5,2.5c0,0-11,12-28-3s-32-20-32-21s-24-29-27-28c0,0-43-34-51-30S73,150,73,150z"/>
<path class="st5" d="M202.7,253.5c5.5,0.4,10.8,1.9,15.7,4.5c0.4,0.2,0.8-0.4,0.4-0.6c-5-2.6-10.5-4.2-16.1-4.6
	C202.3,252.8,202.3,253.5,202.7,253.5z"/>
<path class="st5" d="M245.1,267.2c4.8,3.1,7.3,8.8,6.1,14.4c-0.1,0.5,0.6,0.7,0.7,0.2c1.2-5.9-1.3-12-6.4-15.2
	C245,266.3,244.7,267,245.1,267.2L245.1,267.2z"/>
<path class="st5" d="M226,288.1c3.5,2.6,5.2,7,4.3,11.3c-0.1,0.5,0.6,0.7,0.7,0.2c1-4.6-0.8-9.4-4.6-12.1
	C226,287.2,225.6,287.9,226,288.1L226,288.1z"/>
<path class="st5" d="M239.2,294.7c-4.8,8.9-7.2,18.8-6.8,28.9c0,0.5,0.8,0.5,0.8,0c-0.3-9.9,2-19.8,6.7-28.5
	C240.1,294.6,239.5,294.2,239.2,294.7z"/>
<path class="st5" d="M182.8,292.3c2.4,1.7,4.7,3.3,7,5c2.3,1.6,4.3,3.6,5.9,6c1.4,2.3,1.8,5,1.1,7.6c-0.7,2.2-2.4,3.9-2.1,6.3
	c0.1,0.5,0.8,0.3,0.7-0.2c-0.3-1.6,0.7-3,1.4-4.4c0.5-1,0.9-2,1-3.1c0.2-2.4-0.4-4.9-1.7-6.9c-1.4-2.1-3.2-3.9-5.2-5.4
	c-2.5-1.9-5.1-3.7-7.7-5.6C182.7,291.4,182.4,292,182.8,292.3L182.8,292.3z"/>
<path class="st5" d="M343,305c0,0-10,2-12-6s3-7,3-7l9.1,6.5C343.1,298.5,345,305,343,305z"/>
<path class="st10" d="M351,322.4c0,0,2.6-17.4,12.8-17.5s22.3,0.9,25.3,5.9s6.1,11.9,2,14.9C386.8,328.8,370,348,351,322.4z"/>
<ellipse transform="matrix(0.996 -8.963770e-02 8.963770e-02 0.996 -27.2556 34.857)" class="st11" cx="374.5" cy="320.9" rx="17.1" ry="12.6"/>
<path class="st12" d="M372,318c0,0-4-5-1-7S374,316,372,318z"/>
<path class="st12" d="M375.5,318c0,0,3.1-5.6,6.1-3.5S378.1,319.1,375.5,318z"/>
<path class="st12" d="M370.1,321.1c0,0-6.2,1.4-6.7-2.2S369.2,318.5,370.1,321.1z"/>
<path class="st12" d="M375.5,321.9c0,0,6.4-0.1,6.2,3.5S375.9,324.7,375.5,321.9z"/>
<path class="st12" d="M373.5,322.1c0,0-0.7,6.4-4.2,5.7S370.6,322.1,373.5,322.1z"/>
<path class="st13" d="M359.6,297.6c1.4,1.5,2.5,3.3,3.1,5.3c0.1,0.5,0.9,0.3,0.7-0.2c-0.7-2.1-1.8-4-3.3-5.6
	C359.8,296.7,359.3,297.2,359.6,297.6L359.6,297.6z"/>
<path class="st13" d="M354.7,301.7l3.1,3.5c0.1,0.1,0.4,0.1,0.5,0c0,0,0,0,0,0c0.1-0.1,0.1-0.4,0-0.5l-3.1-3.5
	c-0.1-0.1-0.4-0.1-0.5,0S354.5,301.6,354.7,301.7L354.7,301.7z"/>
<path class="st13" d="M377.1,304.4l-1.4-3.6c-0.1-0.2-0.3-0.3-0.5-0.2c-0.2,0.1-0.3,0.2-0.2,0.4l1.4,3.6c0.1,0.2,0.3,0.3,0.5,0.3
	C377,304.8,377.1,304.6,377.1,304.4L377.1,304.4z"/>
<path class="st13" d="M367.6,303.5l-4.2-9.2c-0.2-0.4-0.8-0.1-0.6,0.4l4.2,9.2C367.1,304.3,367.8,303.9,367.6,303.5L367.6,303.5z"/>
<path class="st13" d="M357.7,295.1c2.3,2.7,4.2,5.8,5.5,9.1c0.2,0.5,0.9,0.2,0.7-0.2c-1.4-3.4-3.3-6.6-5.8-9.5
	C357.9,294.2,357.4,294.7,357.7,295.1z"/>
<path class="st13" d="M354.2,300.4l4.3,5.8c0.3,0.4,0.9,0,0.6-0.4l-4.3-5.8C354.5,299.6,353.9,300,354.2,300.4z"/>
<path class="st13" d="M349.5,304.4c1.6,0.3,3.1,1,4.4,1.9c0.4,0.3,0.8-0.4,0.4-0.6c-1.4-1-2.9-1.6-4.5-2
	C349.2,303.6,349,304.3,349.5,304.4L349.5,304.4z"/>
<path class="st10" d="M439.4,365.5c0,0-16.2-7-13.6-16.9s6.7-21.3,12.3-22.9s13.1-2.7,14.9,1.9C455,332.7,469.1,353.9,439.4,365.5z"
	/>
<ellipse transform="matrix(0.1733 -0.9849 0.9849 0.1733 27.3449 719.722)" class="st11" cx="442.4" cy="343.6" rx="17" ry="12.5"/>
<path class="st12" d="M440.7,344.1c0,0-5.9,2.6-7-0.9S439.3,341.7,440.7,344.1z"/>
<path class="st12" d="M441.6,340.7c0,0-4.6-4.5-1.8-6.8S443.4,338.5,441.6,340.7z"/>
<path class="st12" d="M443.2,346.8c0,0-0.3,6.4-3.9,5.9S440.4,347,443.2,346.8z"/>
<path class="st12" d="M445.4,341.7c0,0,1.5-6.2,5-5S448.1,342.1,445.4,341.7z"/>
<path class="st12" d="M445,343.8c0,0,6,2.3,4.4,5.6S444.3,346.5,445,343.8z"/>
<path class="st10" d="M423.3,362.2c0,0-16.2-7-13.6-16.9s6.6-21.3,12.2-23s13.1-2.8,14.9,1.9C438.8,329.4,453,350.5,423.3,362.2z"/>
<ellipse transform="matrix(0.1706 -0.9853 0.9853 0.1706 18.2794 702.143)" class="st11" cx="426.2" cy="340.2" rx="17" ry="12.5"/>
<path class="st12" d="M424.5,340.8c0,0-5.9,2.6-7-0.9S423.1,338.4,424.5,340.8z"/>
<path class="st12" d="M425.5,337.4c0,0-4.6-4.5-1.8-6.8S427.2,335.2,425.5,337.4z"/>
<path class="st12" d="M427.1,343.5c0,0-0.3,6.4-3.8,5.9S424.2,343.6,427.1,343.5z"/>
<path class="st12" d="M429.2,338.4c0,0,1.5-6.2,4.9-5.1S432,338.8,429.2,338.4z"/>
<path class="st12" d="M428.9,340.5c0,0,6,2.3,4.4,5.5S428.1,343.2,428.9,340.5z"/>
<path class="st10" d="M416.1,317.4c0,0,11.8,13.1,5.4,21S406.7,355,401,354.2s-13.1-2.9-12.8-7.9
	C388.5,340.9,384.3,315.8,416.1,317.4z"/>
<ellipse transform="matrix(0.5632 -0.8263 0.8263 0.5632 -101.186 481.0182)" class="st11" cx="404.4" cy="336.2" rx="17" ry="12.5"/>
<path class="st12" d="M406.2,336.4c0,0,6.4,0.1,6,3.7S406.5,339.2,406.2,336.4z"/>
<path class="st12" d="M403.9,339.1c0,0,2.3,6-1.1,7S401.4,340.4,403.9,339.1z"/>
<path class="st12" d="M405,332.9c0,0,2.9-5.7,6-3.8S407.6,333.9,405,332.9z"/>
<path class="st12" d="M401,336.6c0,0-4,5-6.6,2.5S398.6,335.1,401,336.6z"/>
<path class="st12" d="M402.1,334.9c0,0-4.5-4.6-1.7-6.9S403.9,332.7,402.1,334.9z"/>
<path class="st6" d="M486.8,349.3c0.2,1.6-0.2,3.3-1.1,4.7l0.6,0.3c0-0.1,0.2-0.3,0.3-0.4s0.2-0.3,0.3-0.5c0.2-0.3,0.4-0.7,0.5-1
	c0.3-0.7,0.3-1.5,0.2-2.3c0-0.2-0.2-0.3-0.4-0.3c-0.2,0-0.3,0.2-0.3,0.3c0.2,1.2-0.1,2.3-0.8,3.3c-0.2,0.3-0.5,0.6-0.6,1
	c0,0.2,0.2,0.4,0.4,0.4c0.1,0,0.2,0,0.3-0.1c1.1-1.5,1.6-3.4,1.3-5.2C487.5,348.9,486.7,348.9,486.8,349.3L486.8,349.3z"/>
<path class="st11" d="M319.3,133.5c0,0-30.1,31.4-98.8,33.5c0,0,15-53.9-1.4-66.3l76.2-48.8C295.2,51.9,295.8,109.5,319.3,133.5z"/>
<path class="st11" d="M126.9,171.1c0,0,2.2,43.4-43.3,94.9c0,0-29-47.9-49.3-44.4L51,132.7C51,132.7,93.4,171.7,126.9,171.1z"/>
</svg>
